<?xml version="1.0" standalone="no"?>
<!DOCTYPE svg PUBLIC "-//W3C//DTD SVG 1.1//EN" "http://www.w3.org/Graphics/SVG/1.1/DTD/svg11.dtd" >
<svg>
<metadata>
Created by FontForge 20090622 at Tue Feb  7 05:02:34 2017
 By deploy user
Copyright (c) 2012 by Doan BC. All rights reserved.
</metadata>
<defs>
<font id="VNF-Futura" horiz-adv-x="1184" >
  <font-face 
    font-family="VNF-Futura"
    font-weight="400"
    font-stretch="normal"
    units-per-em="2048"
    panose-1="2 0 5 3 0 0 0 2 0 4"
    ascent="1638"
    descent="-410"
    x-height="958"
    cap-height="1544"
    bbox="-360 -549 2279 2431"
    underline-thickness="50"
    underline-position="-50"
    unicode-range="U+000D-U+FB02"
  />
<missing-glyph horiz-adv-x="1024" 
d="M0 1434h1024v-1434h-1024v1434zM860 1331h-696l348 -522zM922 195v1044l-349 -522zM860 102l-348 523l-348 -523h696zM102 195l349 522l-349 522v-1044z" />
    <glyph glyph-name=".notdef" horiz-adv-x="1024" 
d="M0 1434h1024v-1434h-1024v1434zM860 1331h-696l348 -522zM922 195v1044l-349 -522zM860 102l-348 523l-348 -523h696zM102 195l349 522l-349 522v-1044z" />
    <glyph glyph-name=".null" horiz-adv-x="1024" 
 />
    <glyph glyph-name=".null" horiz-adv-x="1024" 
 />
    <glyph glyph-name="nonmarkingreturn" unicode="&#xd;" horiz-adv-x="1024" 
 />
    <glyph glyph-name="space" horiz-adv-x="592" 
 />
    <glyph glyph-name="A" unicode="A" horiz-adv-x="1440" 
d="M367 387l-177 -387h-206l737 1610l737 -1610h-207l-176 387h-708zM721 1188l-275 -625h549z" />
    <glyph glyph-name="B" unicode="B" horiz-adv-x="1096" 
d="M324 860h49q68 0 128.5 9t105.5 37t71.5 78.5t26.5 133.5q0 81 -26 131t-70.5 77.5t-104.5 36.5t-127 9h-53v-512zM324 172h147q67 0 132 11.5t117 42t84 83.5t32 135q0 54 -17 95t-46.5 70t-69 48t-83 30t-89.5 15.5t-89 4.5h-118v-535zM131 1544h188q73 0 143 -7
t133 -25.5t116 -49t92 -78t60.5 -112.5t21.5 -152q0 -42 -11.5 -86t-32.5 -84t-52 -72t-70 -51v-4q68 -12 125 -49.5t98 -90.5t63.5 -118.5t22.5 -132.5q0 -116 -45.5 -198t-120.5 -134t-171.5 -76t-198.5 -24h-361v1544z" />
    <glyph glyph-name="C" unicode="C" horiz-adv-x="1354" 
d="M1272 1249q-84 75 -191 113.5t-217 38.5q-87 0 -165.5 -23t-146.5 -64.5t-123 -99.5t-94 -128.5t-60 -150.5t-21 -165q0 -84 21 -163.5t59.5 -149t93.5 -127.5t122 -99.5t145.5 -64.5t164.5 -23q115 0 220 41.5t192 118.5v-227q-90 -53 -197 -81t-209 -28
q-110 0 -212.5 28t-192 79.5t-163 123.5t-126.5 160.5t-82 191t-29 214.5q0 114 29.5 219t82.5 195t128 164t166.5 126t196.5 80.5t219 28.5q102 0 201.5 -25t187.5 -79v-224z" />
    <glyph glyph-name="D" unicode="D" horiz-adv-x="1362" 
d="M131 1544h320q118 0 228.5 -21t206.5 -63t175.5 -105.5t136 -148t88 -191.5t31.5 -235q0 -132 -31 -240.5t-87 -195.5t-135.5 -151.5t-176.5 -107.5t-209 -64t-234 -21h-313v1544zM324 176h67q98 0 190.5 13t174 42t149.5 75t116.5 112.5t75.5 154t27 199.5
q0 113 -27 201t-75.5 154t-116.5 112t-149.5 74.5t-174 41.5t-190.5 13h-67v-1192z" />
    <glyph glyph-name="E" unicode="E" horiz-adv-x="1067" 
d="M147 1544h830v-176h-637v-432h618v-176h-618v-584h637v-176h-830v1544z" />
    <glyph glyph-name="F" unicode="F" horiz-adv-x="971" 
d="M338 1368v-434h536v-176h-536v-758h-193v1544h748v-176h-555z" />
    <glyph glyph-name="G" unicode="G" horiz-adv-x="1597" 
d="M1554 778v-61q0 -159 -53.5 -296t-150 -238t-231 -158.5t-296.5 -57.5q-108 0 -208 29.5t-186.5 83t-157.5 127.5t-121.5 163t-78.5 190t-28 208q0 111 28.5 214t80.5 193t125 164t162 127t191.5 82t213.5 29q90 0 178 -20t169 -58.5t153 -94t129 -126.5l-136 -129
q-41 57 -95.5 103.5t-117.5 79.5t-132.5 51t-139.5 18q-87 0 -166 -22.5t-147.5 -63.5t-124.5 -98t-95.5 -126.5t-61 -150t-21.5 -166.5q0 -81 21 -159t60 -148t93.5 -129.5t121.5 -102.5t143.5 -67.5t160.5 -24.5q60 0 120 16.5t115.5 46.5t103.5 72t84.5 93t58 109.5
t23.5 121.5h-399v176h612z" />
    <glyph glyph-name="H" unicode="H" horiz-adv-x="1382" 
d="M1059 922v622h192v-1544h-192v741h-735v-741h-193v1544h193v-622h735z" />
    <glyph glyph-name="I" unicode="I" horiz-adv-x="475" 
d="M334 0h-193v1544h193v-1544z" />
    <glyph glyph-name="J" unicode="J" horiz-adv-x="741" 
d="M621 1544v-981q0 -74 -6 -147t-22.5 -139.5t-45.5 -123t-75.5 -98t-112.5 -65t-156 -23.5q-68 0 -126.5 17t-115.5 51l96 164q32 -25 72 -38.5t82 -13.5q55 0 92.5 20t62 53t37 76t18.5 89.5t6.5 92.5t0.5 85v981h193z" />
    <glyph glyph-name="K" unicode="K" horiz-adv-x="1229" 
d="M995 1544h252l-694 -694l707 -850h-261l-581 719l-78 -74v-645h-193v1544h193v-670z" />
    <glyph glyph-name="L" unicode="L" horiz-adv-x="788" 
d="M340 176h469v-176h-662v1544h193v-1368z" />
    <glyph glyph-name="M" unicode="M" horiz-adv-x="1743" 
d="M410 1020h-4l-181 -1020h-198l315 1610l530 -1217l531 1217l315 -1610h-198l-181 1020h-4l-463 -1053z" />
    <glyph glyph-name="N" unicode="N" horiz-adv-x="1608" 
d="M129 1618l1159 -1215v1141h193v-1607l-1159 1214v-1151h-193v1618z" />
    <glyph glyph-name="O" unicode="O" horiz-adv-x="1696" 
d="M848 1577q110 0 213 -29t193 -81.5t164 -126t127.5 -163t82.5 -192.5t29 -213q0 -115 -29 -219t-81.5 -193.5t-126.5 -162t-164 -123.5t-193.5 -79t-214.5 -28q-112 0 -215.5 28t-193 79t-163.5 123.5t-126.5 162t-81.5 193.5t-29 219q0 110 29 213t82.5 192.5t127.5 163
t164 126t192.5 81.5t213.5 29zM848 147q125 0 237 48t196 132.5t133.5 198.5t49.5 246q0 127 -45.5 241t-127 199t-194.5 135t-249 50t-249.5 -50t-195 -135t-127 -199t-45.5 -241q0 -88 22.5 -168.5t63 -150t97.5 -126t125.5 -96.5t146.5 -62t162 -22z" />
    <glyph glyph-name="P" unicode="P" horiz-adv-x="1014" 
d="M340 0h-193v1544h222q178 0 297.5 -30t191.5 -87t102.5 -140t30.5 -189q0 -122 -43.5 -208t-117 -140t-172 -78.5t-207.5 -24.5h-111v-647zM340 819h61q74 0 147 9.5t131.5 39.5t95 86t36.5 148q0 60 -18 103.5t-48.5 73.5t-72 48.5t-88 28t-96 13t-97.5 3.5h-51v-553z
" />
    <glyph glyph-name="Q" unicode="Q" horiz-adv-x="1696" 
d="M1421 -33l-133 137q-48 -33 -102 -58.5t-110.5 -43t-114.5 -26.5t-113 -9q-112 0 -215.5 28t-193 79t-163.5 123.5t-126.5 162t-81.5 193.5t-29 219q0 110 29 213t82.5 192.5t127.5 163t164 126t192.5 81.5t213.5 29q110 0 213 -29t193 -81.5t164 -126t127.5 -163
t82.5 -192.5t29 -213q0 -82 -16.5 -161t-47.5 -152t-76 -137.5t-102 -118.5l240 -236h-234zM1284 340q45 40 78.5 91.5t56 109t34 117t11.5 114.5q0 127 -45.5 241t-127 199t-194.5 135t-249 50t-249.5 -50t-195 -135t-127 -199t-45.5 -241q0 -88 22.5 -168.5t63 -150
t97.5 -126t125.5 -96.5t146.5 -62t162 -22q71 0 153.5 22t153.5 67l-354 346h239z" />
    <glyph glyph-name="R" unicode="R" horiz-adv-x="1112" 
d="M1108 0h-234l-454 653h-80v-653h-193v1544h234q51 0 104 -1.5t105 -8t102 -21t96 -40.5q49 -29 86.5 -69.5t63.5 -88.5t39.5 -102t13.5 -109q0 -83 -26.5 -157t-75 -132t-116.5 -95.5t-152 -47.5zM340 813h61q74 0 147 9.5t131.5 39.5t95 86t36.5 148q0 60 -18 104
t-48.5 74.5t-72 49.5t-88 30t-96 14.5t-97.5 3.5h-51v-559z" />
    <glyph glyph-name="S" unicode="S" horiz-adv-x="1100" 
d="M834 1251q-44 73 -102.5 109.5t-145.5 36.5q-46 0 -92 -15t-83 -43.5t-60 -69t-23 -91.5q0 -45 20 -80.5t51 -62t69.5 -46t74.5 -33.5l110 -43q82 -32 152 -72.5t121.5 -95t80.5 -127t29 -169.5q0 -105 -38 -193.5t-105 -152.5t-157 -100t-193 -36q-94 0 -175.5 33
t-144.5 90.5t-104 136.5t-53 172l194 41q-1 -64 22.5 -117.5t64 -92.5t95.5 -61t117 -22t114.5 24.5t90.5 66t59 96t21 115.5q0 62 -23 107.5t-60.5 79.5t-85 59t-97.5 46l-107 45q-66 28 -127 63t-107.5 81t-74 106.5t-27.5 141.5q0 93 38 167t101.5 125.5t145.5 79
t170 27.5q130 0 232 -60.5t165 -173.5z" />
    <glyph glyph-name="T" unicode="T" horiz-adv-x="934" 
d="M563 0h-192v1368h-367v176h926v-176h-367v-1368z" />
    <glyph glyph-name="U" unicode="U" horiz-adv-x="1370" 
d="M313 1544v-911q0 -95 16.5 -182.5t58.5 -155t114.5 -108t183.5 -40.5t183.5 40.5t114.5 108t58.5 155t16.5 182.5v911h192v-977q0 -128 -38.5 -237.5t-111.5 -190t-177.5 -126.5t-237.5 -46t-238 46t-177.5 126.5t-111 190t-38.5 237.5v977h192z" />
    <glyph glyph-name="V" unicode="V" horiz-adv-x="1311" 
d="M657 401l459 1143h211l-670 -1626l-671 1626h211z" />
    <glyph glyph-name="W" unicode="W" horiz-adv-x="2103" 
d="M616 438l437 1139l436 -1139l432 1106h209l-641 -1605l-436 1132l-437 -1132l-641 1605h209z" />
    <glyph glyph-name="X" unicode="X" horiz-adv-x="1176" 
d="M59 1544h220l315 -563l336 563h219l-444 -735l469 -809h-216l-364 633l-379 -633h-215l485 809z" />
    <glyph glyph-name="Y" unicode="Y" horiz-adv-x="1174" 
d="M-12 1544h221l379 -659l379 659h221l-504 -872v-672h-192v672z" />
    <glyph glyph-name="Z" unicode="Z" horiz-adv-x="1130" 
d="M1114 176v-176h-1096l783 1368h-672v176h985l-782 -1368h782z" />
    <glyph glyph-name="Agrave" unicode="&#xc0;" horiz-adv-x="1440" 
d="M367 387l-177 -387h-206l737 1610l737 -1610h-207l-176 387h-708zM721 1188l-275 -625h549zM596 2038l256 -340l-90 -56l-336 306z" />
    <glyph glyph-name="Aacute" unicode="&#xc1;" horiz-adv-x="1440" 
d="M367 387l-177 -387h-206l737 1610l737 -1610h-207l-176 387h-708zM721 1188l-275 -625h549zM1016 1948l-336 -306l-90 56l256 340z" />
    <glyph glyph-name="Acircumflex" unicode="&#xc2;" horiz-adv-x="1440" 
d="M367 387l-177 -387h-206l737 1610l737 -1610h-207l-176 387h-708zM721 1188l-275 -625h549zM719 2038l330 -297l-121 -94l-209 196l-207 -196l-119 94z" />
    <glyph glyph-name="uni1EA6" unicode="&#x1ea6;" horiz-adv-x="1440" 
d="M367 387l-177 -387h-206l737 1610l737 -1610h-207l-176 387h-708zM721 1188l-275 -625h549zM719 2038l330 -297l-121 -94l-209 196l-207 -196l-119 94zM859 2299l256 -340l-90 -55l-336 305z" />
    <glyph glyph-name="uni1EA4" unicode="&#x1ea4;" horiz-adv-x="1420" 
d="M367 387l-177 -387h-206l737 1610l737 -1610h-207l-176 387h-708zM721 1188l-275 -625h549zM719 2038l330 -297l-121 -94l-209 196l-207 -196l-119 94zM1356 2156l-336 -305l-90 55l256 340z" />
    <glyph glyph-name="uni1EAA" unicode="&#x1eaa;" horiz-adv-x="1440" 
d="M367 387l-177 -387h-206l737 1610l737 -1610h-207l-176 387h-708zM721 1188l-275 -625h549zM719 2038l330 -297l-121 -94l-209 196l-207 -196l-119 94zM356 2114l6 11q21 30 43 58t48 49.5t57.5 34.5t72.5 13q53 0 97.5 -15.5t85.5 -37.5q40 -22 76.5 -38.5t70.5 -16.5
q22 0 41.5 8.5t36 22.5t29.5 31.5t24 35.5l96 -80q-18 -36 -42 -67t-54 -53.5t-66.5 -35t-78.5 -12.5q-44 0 -86 17t-84 37l-80 34.5t-80 16.5q-19 0 -37 -8.5t-33 -22t-27 -30.5t-20 -33z" />
    <glyph glyph-name="uni1EA8" unicode="&#x1ea8;" horiz-adv-x="1440" 
d="M367 387l-177 -387h-206l737 1610l737 -1610h-207l-176 387h-708zM721 1188l-275 -625h549zM719 2038l330 -297l-121 -94l-209 196l-207 -196l-119 94zM1255 1738h-143q6 35 21 61t33 47.5t39 39t38 34.5t28 36.5t12 44.5q0 56 -40.5 85.5t-128.5 36.5v108q84 0 145 -16
t100 -46t58 -72.5t19 -93.5q-1 -39 -13 -68.5t-30.5 -52t-41 -41l-42 -33.5t-34.5 -29t-18 -31z" />
    <glyph glyph-name="uni1EAC" unicode="&#x1eac;" horiz-adv-x="1440" 
d="M655 -190q24 0 46 -9.5t38 -26t25.5 -38t9.5 -45.5q0 -25 -9.5 -46.5t-25.5 -37.5t-38 -25.5t-46 -9.5q-25 0 -46.5 9.5t-37.5 25.5t-25.5 37.5t-9.5 46.5q0 24 9.5 45.5t25.5 38t37.5 26t46.5 9.5zM367 387l-177 -387h-206l737 1610l737 -1610h-207l-176 387h-708z
M721 1188l-275 -625h549zM719 2038l330 -297l-121 -94l-209 196l-207 -196l-119 94z" />
    <glyph glyph-name="Atilde" unicode="&#xc3;" horiz-adv-x="1440" 
d="M367 387l-177 -387h-206l737 1610l737 -1610h-207l-176 387h-708zM721 1188l-275 -625h549zM330 1790l6 10l42.5 58t48 50t58 35t72.5 13q53 0 97.5 -16t84.5 -37q41 -22 77.5 -39t70.5 -17q22 0 41 8.5t35.5 23t30 32t24.5 35.5l96 -80q-18 -36 -42 -67t-54.5 -53.5
t-67 -35t-78.5 -12.5q-43 0 -85.5 16.5t-84.5 36.5q-40 19 -79.5 35t-79.5 16q-19 0 -37 -8.5t-33 -22t-27.5 -30.5t-19.5 -33z" />
    <glyph glyph-name="Adieresis" unicode="&#xc4;" horiz-adv-x="1440" 
d="M367 387l-177 -387h-206l737 1610l737 -1610h-207l-176 387h-708zM721 1188l-275 -625h549zM506 1956q25 0 47.5 -9.5t39 -26.5t26.5 -39.5t10 -47.5q0 -26 -10 -49t-26.5 -40t-39 -26.5t-47.5 -9.5q-26 0 -49 9.5t-40 26.5t-26.5 40t-9.5 49q0 25 9.5 47.5t26.5 39.5
t40 26.5t49 9.5zM938 1956q25 0 47.5 -9.5t39.5 -26.5t26.5 -39.5t9.5 -47.5q0 -26 -9.5 -49t-26.5 -40t-39.5 -26.5t-47.5 -9.5q-26 0 -49 9.5t-40 26.5t-26.5 40t-9.5 49q0 25 9.5 47.5t26.5 39.5t40 26.5t49 9.5z" />
    <glyph glyph-name="Abreve" unicode="&#x102;" horiz-adv-x="1440" 
d="M367 387l-177 -387h-206l737 1610l737 -1610h-207l-176 387h-708zM721 1188l-275 -625h549zM512 1972q31 -72 79 -112.5t130 -40.5t130.5 40.5t80.5 112.5h145q-11 -64 -44 -117t-81 -91.5t-107.5 -59.5t-123.5 -21t-123 21t-107 59.5t-81 91.5t-45 117h147z" />
    <glyph glyph-name="uni1EB0" unicode="&#x1eb0;" horiz-adv-x="1440" 
d="M367 387l-177 -387h-206l737 1610l737 -1610h-207l-176 387h-708zM721 1188l-275 -625h549zM512 1972q31 -72 79 -112.5t130 -40.5t130.5 40.5t80.5 112.5h145q-11 -64 -44 -117t-81 -91.5t-107.5 -59.5t-123.5 -21t-123 21t-107 59.5t-81 91.5t-45 117h147zM539 2328
l256 -340l-90 -55l-336 305z" />
    <glyph glyph-name="uni1EAE" unicode="&#x1eae;" horiz-adv-x="1440" 
d="M367 387l-177 -387h-206l737 1610l737 -1610h-207l-176 387h-708zM721 1188l-275 -625h549zM512 1972q31 -72 79 -112.5t130 -40.5t130.5 40.5t80.5 112.5h145q-11 -64 -44 -117t-81 -91.5t-107.5 -59.5t-123.5 -21t-123 21t-107 59.5t-81 91.5t-45 117h147zM1067 2248
l-336 -305l-90 55l256 340z" />
    <glyph glyph-name="uni1EB4" unicode="&#x1eb4;" horiz-adv-x="1440" 
d="M367 387l-177 -387h-206l737 1610l737 -1610h-207l-176 387h-708zM721 1188l-275 -625h549zM512 1972q31 -72 79 -112.5t130 -40.5t130.5 40.5t80.5 112.5h145q-11 -64 -44 -117t-81 -91.5t-107.5 -59.5t-123.5 -21t-123 21t-107 59.5t-81 91.5t-45 117h147zM350 2131
l6 11q21 30 43 58t48 49.5t57.5 34.5t72.5 13q53 0 97.5 -15.5t85.5 -37.5q40 -22 76.5 -38.5t70.5 -16.5q22 0 41.5 8.5t36 22.5t29.5 31.5t24 35.5l96 -80q-18 -36 -42 -67t-54 -53.5t-66.5 -35t-78.5 -12.5q-44 0 -86 17t-84 37l-80 34.5t-80 16.5q-19 0 -37 -8.5
t-33 -22t-27 -30.5t-20 -33z" />
    <glyph glyph-name="uni1EB2" unicode="&#x1eb2;" horiz-adv-x="1440" 
d="M367 387l-177 -387h-206l737 1610l737 -1610h-207l-176 387h-708zM721 1188l-275 -625h549zM512 1972q31 -72 79 -112.5t130 -40.5t130.5 40.5t80.5 112.5h145q-11 -64 -44 -117t-81 -91.5t-107.5 -59.5t-123.5 -21t-123 21t-107 59.5t-81 91.5t-45 117h147zM799 1938
h-143q6 35 21 61t33 47.5t39 39t38 34.5t28 36.5t12 44.5q0 56 -40.5 85.5t-128.5 36.5v108q84 0 145 -16t100 -46t58 -72.5t19 -93.5q-1 -39 -13 -68.5t-30.5 -52t-41 -41l-42 -33.5t-34.5 -29t-18 -31z" />
    <glyph glyph-name="uni1EB6" unicode="&#x1eb6;" horiz-adv-x="1440" 
d="M655 -190q24 0 46 -9.5t38 -26t25.5 -38t9.5 -45.5q0 -25 -9.5 -46.5t-25.5 -37.5t-38 -25.5t-46 -9.5q-25 0 -46.5 9.5t-37.5 25.5t-25.5 37.5t-9.5 46.5q0 24 9.5 45.5t25.5 38t37.5 26t46.5 9.5zM367 387l-177 -387h-206l737 1610l737 -1610h-207l-176 387h-708z
M721 1188l-275 -625h549zM512 1972q31 -72 79 -112.5t130 -40.5t130.5 40.5t80.5 112.5h145q-11 -64 -44 -117t-81 -91.5t-107.5 -59.5t-123.5 -21t-123 21t-107 59.5t-81 91.5t-45 117h147z" />
    <glyph glyph-name="Aring" unicode="&#xc5;" horiz-adv-x="1440" 
d="M367 387l-177 -387h-206l737 1610l737 -1610h-207l-176 387h-708zM721 1188l-275 -625h549zM721 2017q39 0 73 -14.5t59 -40t39.5 -59.5t14.5 -72t-14.5 -71.5t-39.5 -58.5t-59 -39.5t-73 -14.5t-72.5 14.5t-58 39.5t-39 58.5t-14.5 71.5t14.5 72t39 59.5t58 40
t72.5 14.5zM721 1739q19 0 36 7t30 19.5t20.5 29.5t7.5 36t-7.5 36t-20.5 30t-30 20.5t-36 7.5q-18 0 -35 -7.5t-29.5 -20.5t-20 -30t-7.5 -36t7.5 -36t20 -29.5t29.5 -19.5t35 -7z" />
    <glyph glyph-name="uni1EA2" unicode="&#x1ea2;" horiz-adv-x="1440" 
d="M367 387l-177 -387h-206l737 1610l737 -1610h-207l-176 387h-708zM721 1188l-275 -625h549zM786 1704h-143q6 35 21 61t33 47.5t39 39t38 34.5t28 36.5t12 44.5q0 56 -40.5 85.5t-128.5 36.5v108q84 0 145 -16t100 -46t58 -72.5t19 -93.5q-1 -39 -13 -68.5t-30.5 -52
t-41 -41l-42 -33.5t-34.5 -29t-18 -31z" />
    <glyph glyph-name="uni1EA0" unicode="&#x1ea0;" horiz-adv-x="1440" 
d="M367 387l-177 -387h-206l737 1610l737 -1610h-207l-176 387h-708zM721 1188l-275 -625h549zM655 -190q24 0 46 -9.5t38 -26t25.5 -38t9.5 -45.5q0 -25 -9.5 -46.5t-25.5 -37.5t-38 -25.5t-46 -9.5q-25 0 -46.5 9.5t-37.5 25.5t-25.5 37.5t-9.5 46.5q0 24 9.5 45.5
t25.5 38t37.5 26t46.5 9.5z" />
    <glyph glyph-name="AE" unicode="&#xc6;" horiz-adv-x="2042" 
d="M387 387l-176 -387h-211l741 1544h676l78 -176h-633l187 -432h616l82 -176h-619l248 -584h637l78 -176h-831l-170 387h-703zM752 1161l-283 -598h549z" />
    <glyph glyph-name="AEacute" unicode="&#x1fc;" horiz-adv-x="2028" 
d="M387 387l-176 -387h-211l741 1544h676l78 -176h-633l187 -432h616l82 -176h-619l248 -584h637l78 -176h-831l-170 387h-703zM752 1161l-283 -598h549zM1581 2052l-336 -305l-90 55l256 340z" />
    <glyph glyph-name="uni01E2" unicode="&#x1e2;" horiz-adv-x="2028" 
d="M387 387l-176 -387h-211l741 1544h676l78 -176h-633l187 -432h616l82 -176h-619l248 -584h637l78 -176h-831l-170 387h-703zM752 1161l-283 -598h549zM1762 1810v-139h-740v139h740z" />
    <glyph glyph-name="Ccedilla" unicode="&#xc7;" horiz-adv-x="1354" 
d="M1272 1249q-84 75 -191 113.5t-217 38.5q-87 0 -165.5 -23t-146.5 -64.5t-123 -99.5t-94 -128.5t-60 -150.5t-21 -165q0 -84 21 -163.5t59.5 -149t93.5 -127.5t122 -99.5t145.5 -64.5t164.5 -23q115 0 220 41.5t192 118.5v-227q-90 -53 -197 -81t-209 -28
q-110 0 -212.5 28t-192 79.5t-163 123.5t-126.5 160.5t-82 191t-29 214.5q0 114 29.5 219t82.5 195t128 164t166.5 126t196.5 80.5t219 28.5q102 0 201.5 -25t187.5 -79v-224zM625 -371l-109 56l178 280l146 -59z" />
    <glyph glyph-name="Dcroat" unicode="&#x110;" horiz-adv-x="1362" 
d="M131 1544h320q118 0 228.5 -21t206.5 -63t175.5 -105.5t136 -148t88 -191.5t31.5 -235q0 -132 -31 -240.5t-87 -195.5t-135.5 -151.5t-176.5 -107.5t-209 -64t-234 -21h-313v741h-131v164h131v639zM324 905h274v-164h-274v-565h67q98 0 190.5 13t174 42t149.5 75
t116.5 112.5t75.5 154t27 199.5q0 113 -27 201t-75.5 154t-116.5 112t-149.5 74.5t-174 41.5t-190.5 13h-67v-463z" />
    <glyph glyph-name="Egrave" unicode="&#xc8;" horiz-adv-x="1067" 
d="M147 1544h830v-176h-637v-432h618v-176h-618v-584h637v-176h-830v1544zM451 2038l256 -340l-91 -56l-335 306z" />
    <glyph glyph-name="Eacute" unicode="&#xc9;" horiz-adv-x="1067" 
d="M147 1544h830v-176h-637v-432h618v-176h-618v-584h637v-176h-830v1544zM829 1948l-335 -306l-91 56l256 340z" />
    <glyph glyph-name="uni1EC0" unicode="&#x1ec0;" horiz-adv-x="1067" 
d="M147 1544h830v-176h-637v-432h618v-176h-618v-584h637v-176h-830v1544zM557 2038l330 -297l-121 -94l-209 196l-207 -196l-119 94zM691 2299l256 -340l-90 -55l-336 305z" />
    <glyph glyph-name="uni1EC4" unicode="&#x1ec4;" horiz-adv-x="1065" 
d="M141 1544h830v-176h-637v-432h618v-176h-618v-584h637v-176h-830v1544zM551 2038l330 -297l-121 -94l-209 196l-207 -196l-119 94zM216 2114l6 11q21 30 43 58t48 49.5t57.5 34.5t72.5 13q53 0 97.5 -15.5t85.5 -37.5q40 -22 76.5 -38.5t70.5 -16.5q22 0 41.5 8.5
t36 22.5t29.5 31.5t24 35.5l96 -80q-18 -36 -42 -67t-54 -53.5t-66.5 -35t-78.5 -12.5q-44 0 -86 17t-84 37l-80 34.5t-80 16.5q-19 0 -37 -8.5t-33 -22t-27 -30.5t-20 -33z" />
    <glyph glyph-name="uni1EC2" unicode="&#x1ec2;" horiz-adv-x="1067" 
d="M147 1544h830v-176h-637v-432h618v-176h-618v-584h637v-176h-830v1544zM557 2038l330 -297l-121 -94l-209 196l-207 -196l-119 94zM995 1898h-143q6 35 21 61t33 47.5t39 39t38 34.5t28 36.5t12 44.5q0 56 -40.5 85.5t-128.5 36.5v108q84 0 145 -16t100 -46t58 -72.5
t19 -93.5q-1 -39 -13 -68.5t-30.5 -52t-41 -41l-42 -33.5t-34.5 -29t-18 -31z" />
    <glyph glyph-name="uni1EC6" unicode="&#x1ec6;" horiz-adv-x="1067" 
d="M668 -190q24 0 46 -9.5t38 -26t25.5 -38t9.5 -45.5q0 -25 -9.5 -46.5t-25.5 -37.5t-38 -25.5t-46 -9.5q-25 0 -46.5 9.5t-37.5 25.5t-25.5 37.5t-9.5 46.5q0 24 9.5 45.5t25.5 38t37.5 26t46.5 9.5zM147 1544h830v-176h-637v-432h618v-176h-618v-584h637v-176h-830v1544z
M557 2038l330 -297l-121 -94l-209 196l-207 -196l-119 94z" />
    <glyph glyph-name="uni1EBC" unicode="&#x1ebc;" horiz-adv-x="1067" 
d="M230 1790l6 10l42.5 58t48 50t58 35t72.5 13q53 0 97.5 -16t84.5 -37q41 -22 77.5 -39t70.5 -17q22 0 41 8.5t35.5 23t30 32t24.5 35.5l96 -80q-18 -36 -42 -67t-54.5 -53.5t-67 -35t-78.5 -12.5q-43 0 -85.5 16.5t-84.5 36.5q-40 19 -79.5 35t-79.5 16q-19 0 -37 -8.5
t-33 -22t-27.5 -30.5t-19.5 -33zM147 1544h830v-176h-637v-432h618v-176h-618v-584h637v-176h-830v1544z" />
    <glyph glyph-name="Edieresis" unicode="&#xcb;" horiz-adv-x="1067" 
d="M147 1544h830v-176h-637v-432h618v-176h-618v-584h637v-176h-830v1544zM344 1956q25 0 47.5 -9.5t39.5 -26.5t26.5 -39.5t9.5 -47.5q0 -26 -9.5 -49t-26.5 -40t-39.5 -26.5t-47.5 -9.5q-26 0 -49 9.5t-40 26.5t-26.5 40t-9.5 49q0 25 9.5 47.5t26.5 39.5t40 26.5t49 9.5z
M776 1956q25 0 47.5 -9.5t39.5 -26.5t26.5 -39.5t9.5 -47.5q0 -26 -9.5 -49t-26.5 -40t-39.5 -26.5t-47.5 -9.5q-26 0 -48.5 9.5t-39.5 26.5t-27 40t-10 49q0 25 10 47.5t27 39.5t39.5 26.5t48.5 9.5z" />
    <glyph glyph-name="uni1EBA" unicode="&#x1eba;" horiz-adv-x="1067" 
d="M147 1544h830v-176h-637v-432h618v-176h-618v-584h637v-176h-830v1544zM660 1704h-143q6 35 21 61t33 47.5t39 39t38 34.5t28 36.5t12 44.5q0 56 -40.5 85.5t-128.5 36.5v108q84 0 145 -16t100 -46t58 -72.5t19 -93.5q-1 -39 -13 -68.5t-30.5 -52t-41 -41l-42 -33.5
t-34.5 -29t-18 -31z" />
    <glyph glyph-name="uni1EB8" unicode="&#x1eb8;" horiz-adv-x="1067" 
d="M147 1544h830v-176h-637v-432h618v-176h-618v-584h637v-176h-830v1544zM668 -190q24 0 46 -9.5t38 -26t25.5 -38t9.5 -45.5q0 -25 -9.5 -46.5t-25.5 -37.5t-38 -25.5t-46 -9.5q-25 0 -46.5 9.5t-37.5 25.5t-25.5 37.5t-9.5 46.5q0 24 9.5 45.5t25.5 38t37.5 26t46.5 9.5z
" />
    <glyph glyph-name="Igrave" unicode="&#xcc;" horiz-adv-x="475" 
d="M334 0h-193v1544h193v-1544zM133 2038l256 -340l-90 -56l-336 306z" />
    <glyph glyph-name="Iacute" unicode="&#xcd;" horiz-adv-x="475" 
d="M334 0h-193v1544h193v-1544zM512 1948l-336 -306l-90 56l256 340z" />
    <glyph glyph-name="Icircumflex" unicode="&#xce;" horiz-adv-x="475" 
d="M334 0h-193v1544h193v-1544zM236 2038l329 -297l-121 -94l-208 196l-207 -196l-119 94z" />
    <glyph glyph-name="Itilde" unicode="&#x128;" horiz-adv-x="475" 
d="M-130 1790l6 10l42.5 58t48 50t58 35t72.5 13q53 0 97.5 -16t84.5 -37q41 -22 77.5 -39t70.5 -17q22 0 41 8.5t35.5 23t30 32t24.5 35.5l96 -80q-18 -36 -42 -67t-54.5 -53.5t-67 -35t-78.5 -12.5q-43 0 -85.5 16.5t-84.5 36.5q-40 19 -79.5 35t-79.5 16q-19 0 -37 -8.5
t-33 -22t-27.5 -30.5t-19.5 -33zM334 0h-193v1544h193v-1544z" />
    <glyph glyph-name="Idieresis" unicode="&#xcf;" horiz-adv-x="475" 
d="M334 0h-193v1544h193v-1544zM23 1956q25 0 47.5 -9.5t39 -26.5t26 -39.5t9.5 -47.5q0 -26 -9.5 -49t-26 -40t-39 -26.5t-47.5 -9.5q-26 0 -49 9.5t-40 26.5t-26.5 40t-9.5 49q0 25 9.5 47.5t26.5 39.5t40 26.5t49 9.5zM455 1956q25 0 47.5 -9.5t39 -26.5t26.5 -39.5
t10 -47.5q0 -26 -10 -49t-26.5 -40t-39 -26.5t-47.5 -9.5q-26 0 -49 9.5t-40 26.5t-26.5 40t-9.5 49q0 25 9.5 47.5t26.5 39.5t40 26.5t49 9.5z" />
    <glyph glyph-name="uni1EC8" unicode="&#x1ec8;" horiz-adv-x="475" 
d="M334 0h-193v1544h193v-1544zM304 1704h-143q6 35 21 61t33 47.5t39 39t38 34.5t28 36.5t12 44.5q0 56 -40.5 85.5t-128.5 36.5v108q84 0 145 -16t100 -46t58 -72.5t19 -93.5q-1 -39 -13 -68.5t-30.5 -52t-41 -41l-42 -33.5t-34.5 -29t-18 -31z" />
    <glyph glyph-name="uni1ECA" unicode="&#x1eca;" horiz-adv-x="475" 
d="M334 0h-193v1544h193v-1544zM220 -190q24 0 46 -9.5t38 -26t25.5 -38t9.5 -45.5q0 -25 -9.5 -46.5t-25.5 -37.5t-38 -25.5t-46 -9.5q-25 0 -46.5 9.5t-37.5 25.5t-25.5 37.5t-9.5 46.5q0 24 9.5 45.5t25.5 38t37.5 26t46.5 9.5z" />
    <glyph glyph-name="IJ" unicode="&#x132;" horiz-adv-x="475" 
d="M334 0h-193v1544h193v-1544zM1149 1544v-981q0 -74 -6 -147t-22.5 -139.5t-45.5 -123t-75.5 -98t-112.5 -65t-156 -23.5q-68 0 -126.5 17t-115.5 51l96 164q32 -25 72 -38.5t82 -13.5q55 0 92.5 20t62 53t37 76t18.5 89.5t6.5 92.5t0.5 85v981h193z" />
    <glyph glyph-name="Ntilde" unicode="&#xd1;" horiz-adv-x="1608" 
d="M129 1618l1159 -1215v1141h193v-1607l-1159 1214v-1151h-193v1618zM414 1790l6 10l42.5 58t47.5 50t58 35t73 13q53 0 97.5 -16t84.5 -37q41 -22 77.5 -39t70.5 -17q22 0 41 8.5t35.5 23t30 32t24.5 35.5l96 -80q-18 -36 -42 -67t-54.5 -53.5t-67 -35t-78.5 -12.5
q-43 0 -85.5 16.5t-84.5 36.5q-40 19 -79.5 35t-79.5 16q-20 0 -37.5 -8.5t-33 -22t-27.5 -30.5t-19 -33z" />
    <glyph glyph-name="Ograve" unicode="&#xd2;" horiz-adv-x="1696" 
d="M848 1577q110 0 213 -29t193 -81.5t164 -126t127.5 -163t82.5 -192.5t29 -213q0 -115 -29 -219t-81.5 -193.5t-126.5 -162t-164 -123.5t-193.5 -79t-214.5 -28q-112 0 -215.5 28t-193 79t-163.5 123.5t-126.5 162t-81.5 193.5t-29 219q0 110 29 213t82.5 192.5t127.5 163
t164 126t192.5 81.5t213.5 29zM848 147q125 0 237 48t196 132.5t133.5 198.5t49.5 246q0 127 -45.5 241t-127 199t-194.5 135t-249 50t-249.5 -50t-195 -135t-127 -199t-45.5 -241q0 -88 22.5 -168.5t63 -150t97.5 -126t125.5 -96.5t146.5 -62t162 -22zM743 2038l256 -340
l-90 -56l-336 306z" />
    <glyph glyph-name="Oacute" unicode="&#xd3;" horiz-adv-x="1696" 
d="M848 1577q110 0 213 -29t193 -81.5t164 -126t127.5 -163t82.5 -192.5t29 -213q0 -115 -29 -219t-81.5 -193.5t-126.5 -162t-164 -123.5t-193.5 -79t-214.5 -28q-112 0 -215.5 28t-193 79t-163.5 123.5t-126.5 162t-81.5 193.5t-29 219q0 110 29 213t82.5 192.5t127.5 163
t164 126t192.5 81.5t213.5 29zM848 147q125 0 237 48t196 132.5t133.5 198.5t49.5 246q0 127 -45.5 241t-127 199t-194.5 135t-249 50t-249.5 -50t-195 -135t-127 -199t-45.5 -241q0 -88 22.5 -168.5t63 -150t97.5 -126t125.5 -96.5t146.5 -62t162 -22zM1122 1948l-336 -306
l-90 56l256 340z" />
    <glyph glyph-name="Ocircumflex" unicode="&#xd4;" horiz-adv-x="1696" 
d="M848 1577q110 0 213 -29t193 -81.5t164 -126t127.5 -163t82.5 -192.5t29 -213q0 -115 -29 -219t-81.5 -193.5t-126.5 -162t-164 -123.5t-193.5 -79t-214.5 -28q-112 0 -215.5 28t-193 79t-163.5 123.5t-126.5 162t-81.5 193.5t-29 219q0 110 29 213t82.5 192.5t127.5 163
t164 126t192.5 81.5t213.5 29zM848 147q125 0 237 48t196 132.5t133.5 198.5t49.5 246q0 127 -45.5 241t-127 199t-194.5 135t-249 50t-249.5 -50t-195 -135t-127 -199t-45.5 -241q0 -88 22.5 -168.5t63 -150t97.5 -126t125.5 -96.5t146.5 -62t162 -22zM846 2038l330 -297
l-121 -94l-209 196l-207 -196l-119 94z" />
    <glyph glyph-name="uni1ED2" unicode="&#x1ed2;" horiz-adv-x="1696" 
d="M848 1577q110 0 213 -29t193 -81.5t164 -126t127.5 -163t82.5 -192.5t29 -213q0 -115 -29 -219t-81.5 -193.5t-126.5 -162t-164 -123.5t-193.5 -79t-214.5 -28q-112 0 -215.5 28t-193 79t-163.5 123.5t-126.5 162t-81.5 193.5t-29 219q0 110 29 213t82.5 192.5t127.5 163
t164 126t192.5 81.5t213.5 29zM848 147q125 0 237 48t196 132.5t133.5 198.5t49.5 246q0 127 -45.5 241t-127 199t-194.5 135t-249 50t-249.5 -50t-195 -135t-127 -199t-45.5 -241q0 -88 22.5 -168.5t63 -150t97.5 -126t125.5 -96.5t146.5 -62t162 -22zM846 2038l330 -297
l-121 -94l-209 196l-207 -196l-119 94zM949 2299l256 -340l-90 -55l-336 305z" />
    <glyph glyph-name="uni1ED0" unicode="&#x1ed0;" horiz-adv-x="1696" 
d="M848 1577q110 0 213 -29t193 -81.5t164 -126t127.5 -163t82.5 -192.5t29 -213q0 -115 -29 -219t-81.5 -193.5t-126.5 -162t-164 -123.5t-193.5 -79t-214.5 -28q-112 0 -215.5 28t-193 79t-163.5 123.5t-126.5 162t-81.5 193.5t-29 219q0 110 29 213t82.5 192.5t127.5 163
t164 126t192.5 81.5t213.5 29zM848 147q125 0 237 48t196 132.5t133.5 198.5t49.5 246q0 127 -45.5 241t-127 199t-194.5 135t-249 50t-249.5 -50t-195 -135t-127 -199t-45.5 -241q0 -88 22.5 -168.5t63 -150t97.5 -126t125.5 -96.5t146.5 -62t162 -22zM846 2038l330 -297
l-121 -94l-209 196l-207 -196l-119 94zM1476 2156l-336 -305l-90 55l256 340z" />
    <glyph glyph-name="uni1ED6" unicode="&#x1ed6;" horiz-adv-x="1696" 
d="M848 1577q110 0 213 -29t193 -81.5t164 -126t127.5 -163t82.5 -192.5t29 -213q0 -115 -29 -219t-81.5 -193.5t-126.5 -162t-164 -123.5t-193.5 -79t-214.5 -28q-112 0 -215.5 28t-193 79t-163.5 123.5t-126.5 162t-81.5 193.5t-29 219q0 110 29 213t82.5 192.5t127.5 163
t164 126t192.5 81.5t213.5 29zM848 147q125 0 237 48t196 132.5t133.5 198.5t49.5 246q0 127 -45.5 241t-127 199t-194.5 135t-249 50t-249.5 -50t-195 -135t-127 -199t-45.5 -241q0 -88 22.5 -168.5t63 -150t97.5 -126t125.5 -96.5t146.5 -62t162 -22zM846 2038l330 -297
l-121 -94l-209 196l-207 -196l-119 94zM476 2114l6 11q21 30 43 58t48 49.5t57.5 34.5t72.5 13q53 0 97.5 -15.5t85.5 -37.5q40 -22 76.5 -38.5t70.5 -16.5q22 0 41.5 8.5t36 22.5t29.5 31.5t24 35.5l96 -80q-18 -36 -42 -67t-54 -53.5t-66.5 -35t-78.5 -12.5q-44 0 -86 17
t-84 37l-80 34.5t-80 16.5q-19 0 -37 -8.5t-33 -22t-27 -30.5t-20 -33z" />
    <glyph glyph-name="uni1ED4" unicode="&#x1ed4;" horiz-adv-x="1696" 
d="M848 1577q110 0 213 -29t193 -81.5t164 -126t127.5 -163t82.5 -192.5t29 -213q0 -115 -29 -219t-81.5 -193.5t-126.5 -162t-164 -123.5t-193.5 -79t-214.5 -28q-112 0 -215.5 28t-193 79t-163.5 123.5t-126.5 162t-81.5 193.5t-29 219q0 110 29 213t82.5 192.5t127.5 163
t164 126t192.5 81.5t213.5 29zM848 147q125 0 237 48t196 132.5t133.5 198.5t49.5 246q0 127 -45.5 241t-127 199t-194.5 135t-249 50t-249.5 -50t-195 -135t-127 -199t-45.5 -241q0 -88 22.5 -168.5t63 -150t97.5 -126t125.5 -96.5t146.5 -62t162 -22zM846 2038l330 -297
l-121 -94l-209 196l-207 -196l-119 94zM1375 1738h-143q6 35 21 61t33 47.5t39 39t38 34.5t28 36.5t12 44.5q0 56 -40.5 85.5t-128.5 36.5v108q84 0 145 -16t100 -46t58 -72.5t19 -93.5q-1 -39 -13 -68.5t-30.5 -52t-41 -41l-42 -33.5t-34.5 -29t-18 -31z" />
    <glyph glyph-name="uni1ED8" unicode="&#x1ed8;" horiz-adv-x="1696" 
d="M848 1577q110 0 213 -29t193 -81.5t164 -126t127.5 -163t82.5 -192.5t29 -213q0 -115 -29 -219t-81.5 -193.5t-126.5 -162t-164 -123.5t-193.5 -79t-214.5 -28q-112 0 -215.5 28t-193 79t-163.5 123.5t-126.5 162t-81.5 193.5t-29 219q0 110 29 213t82.5 192.5t127.5 163
t164 126t192.5 81.5t213.5 29zM848 147q125 0 237 48t196 132.5t133.5 198.5t49.5 246q0 127 -45.5 241t-127 199t-194.5 135t-249 50t-249.5 -50t-195 -135t-127 -199t-45.5 -241q0 -88 22.5 -168.5t63 -150t97.5 -126t125.5 -96.5t146.5 -62t162 -22zM846 2038l330 -297
l-121 -94l-209 196l-207 -196l-119 94zM840 -190q24 0 46 -9.5t38 -26t25.5 -38t9.5 -45.5q0 -25 -9.5 -46.5t-25.5 -37.5t-38 -25.5t-46 -9.5q-25 0 -46.5 9.5t-37.5 25.5t-25.5 37.5t-9.5 46.5q0 24 9.5 45.5t25.5 38t37.5 26t46.5 9.5z" />
    <glyph glyph-name="Otilde" unicode="&#xd5;" horiz-adv-x="1696" 
d="M848 1577q110 0 213 -29t193 -81.5t164 -126t127.5 -163t82.5 -192.5t29 -213q0 -115 -29 -219t-81.5 -193.5t-126.5 -162t-164 -123.5t-193.5 -79t-214.5 -28q-112 0 -215.5 28t-193 79t-163.5 123.5t-126.5 162t-81.5 193.5t-29 219q0 110 29 213t82.5 192.5t127.5 163
t164 126t192.5 81.5t213.5 29zM848 147q125 0 237 48t196 132.5t133.5 198.5t49.5 246q0 127 -45.5 241t-127 199t-194.5 135t-249 50t-249.5 -50t-195 -135t-127 -199t-45.5 -241q0 -88 22.5 -168.5t63 -150t97.5 -126t125.5 -96.5t146.5 -62t162 -22zM457 1790l6 10
l42.5 58t47.5 50t58 35t73 13q53 0 97.5 -16t84.5 -37q41 -22 77.5 -39t70.5 -17q22 0 41 8.5t35.5 23t30 32t24.5 35.5l96 -80q-18 -36 -42 -67t-54.5 -53.5t-67 -35t-78.5 -12.5q-43 0 -85.5 16.5t-84.5 36.5q-40 19 -79.5 35t-79.5 16q-20 0 -37.5 -8.5t-33 -22
t-27.5 -30.5t-19 -33z" />
    <glyph glyph-name="Odieresis" unicode="&#xd6;" horiz-adv-x="1696" 
d="M848 1577q110 0 213 -29t193 -81.5t164 -126t127.5 -163t82.5 -192.5t29 -213q0 -115 -29 -219t-81.5 -193.5t-126.5 -162t-164 -123.5t-193.5 -79t-214.5 -28q-112 0 -215.5 28t-193 79t-163.5 123.5t-126.5 162t-81.5 193.5t-29 219q0 110 29 213t82.5 192.5t127.5 163
t164 126t192.5 81.5t213.5 29zM848 147q125 0 237 48t196 132.5t133.5 198.5t49.5 246q0 127 -45.5 241t-127 199t-194.5 135t-249 50t-249.5 -50t-195 -135t-127 -199t-45.5 -241q0 -88 22.5 -168.5t63 -150t97.5 -126t125.5 -96.5t146.5 -62t162 -22zM633 1956
q25 0 47.5 -9.5t39 -26.5t26.5 -39.5t10 -47.5q0 -26 -10 -49t-26.5 -40t-39 -26.5t-47.5 -9.5q-26 0 -49 9.5t-40 26.5t-26.5 40t-9.5 49q0 25 9.5 47.5t26.5 39.5t40 26.5t49 9.5zM1065 1956q25 0 47.5 -9.5t39.5 -26.5t26.5 -39.5t9.5 -47.5q0 -26 -9.5 -49t-26.5 -40
t-39.5 -26.5t-47.5 -9.5q-26 0 -49 9.5t-40 26.5t-26.5 40t-9.5 49q0 25 9.5 47.5t26.5 39.5t40 26.5t49 9.5z" />
    <glyph glyph-name="uni1ECE" unicode="&#x1ece;" horiz-adv-x="1696" 
d="M848 1577q110 0 213 -29t193 -81.5t164 -126t127.5 -163t82.5 -192.5t29 -213q0 -115 -29 -219t-81.5 -193.5t-126.5 -162t-164 -123.5t-193.5 -79t-214.5 -28q-112 0 -215.5 28t-193 79t-163.5 123.5t-126.5 162t-81.5 193.5t-29 219q0 110 29 213t82.5 192.5t127.5 163
t164 126t192.5 81.5t213.5 29zM848 147q125 0 237 48t196 132.5t133.5 198.5t49.5 246q0 127 -45.5 241t-127 199t-194.5 135t-249 50t-249.5 -50t-195 -135t-127 -199t-45.5 -241q0 -88 22.5 -168.5t63 -150t97.5 -126t125.5 -96.5t146.5 -62t162 -22zM808 1704h-143
q6 35 21 61t33 47.5t39 39t38 34.5t28 36.5t12 44.5q0 56 -40.5 85.5t-128.5 36.5v108q84 0 145 -16t100 -46t58 -72.5t19 -93.5q-1 -39 -13 -68.5t-30.5 -52t-41 -41l-42 -33.5t-34.5 -29t-18 -31z" />
    <glyph glyph-name="uni1ECC" unicode="&#x1ecc;" horiz-adv-x="1696" 
d="M848 1577q110 0 213 -29t193 -81.5t164 -126t127.5 -163t82.5 -192.5t29 -213q0 -115 -29 -219t-81.5 -193.5t-126.5 -162t-164 -123.5t-193.5 -79t-214.5 -28q-112 0 -215.5 28t-193 79t-163.5 123.5t-126.5 162t-81.5 193.5t-29 219q0 110 29 213t82.5 192.5t127.5 163
t164 126t192.5 81.5t213.5 29zM848 147q125 0 237 48t196 132.5t133.5 198.5t49.5 246q0 127 -45.5 241t-127 199t-194.5 135t-249 50t-249.5 -50t-195 -135t-127 -199t-45.5 -241q0 -88 22.5 -168.5t63 -150t97.5 -126t125.5 -96.5t146.5 -62t162 -22zM850 -190
q24 0 46 -9.5t38 -26t25.5 -38t9.5 -45.5q0 -25 -9.5 -46.5t-25.5 -37.5t-38 -25.5t-46 -9.5q-25 0 -46.5 9.5t-37.5 25.5t-25.5 37.5t-9.5 46.5q0 24 9.5 45.5t25.5 38t37.5 26t46.5 9.5z" />
    <glyph glyph-name="Ohorn" unicode="&#x1a0;" horiz-adv-x="1696" 
d="M1577 1464q0 40 -16 78h127q5 -18 7.5 -38t2.5 -40q0 -88 -45.5 -157t-120.5 -109q59 -93 92 -200.5t33 -225.5q0 -115 -29 -219t-81.5 -193.5t-126.5 -162t-164 -123.5t-193.5 -79t-214.5 -28q-112 0 -215.5 28t-193 79t-163.5 123.5t-126.5 162t-81.5 193.5t-29 219
q0 110 29 213t82.5 192.5t127.5 163t164 126t192.5 81.5t213.5 29q92 0 179 -20.5t165.5 -58t147 -91t124.5 -119.5q51 26 82 73.5t31 102.5zM848 147q125 0 237 48t196 132.5t133.5 198.5t49.5 246q0 127 -45.5 241t-127 199t-194.5 135t-249 50t-249.5 -50t-195 -135
t-127 -199t-45.5 -241q0 -88 22.5 -168.5t63 -150t97.5 -126t125.5 -96.5t146.5 -62t162 -22z" />
    <glyph glyph-name="uni1EDC" unicode="&#x1edc;" horiz-adv-x="1696" 
d="M743 2038l256 -340l-90 -56l-336 306zM743 2038l256 -340l-90 -56l-336 306zM1577 1464q0 40 -16 78h127q5 -18 7.5 -38t2.5 -40q0 -88 -45.5 -157t-120.5 -109q59 -93 92 -200.5t33 -225.5q0 -115 -29 -219t-81.5 -193.5t-126.5 -162t-164 -123.5t-193.5 -79t-214.5 -28
q-112 0 -215.5 28t-193 79t-163.5 123.5t-126.5 162t-81.5 193.5t-29 219q0 110 29 213t82.5 192.5t127.5 163t164 126t192.5 81.5t213.5 29q92 0 179 -20.5t165.5 -58t147 -91t124.5 -119.5q51 26 82 73.5t31 102.5zM848 147q125 0 237 48t196 132.5t133.5 198.5t49.5 246
q0 127 -45.5 241t-127 199t-194.5 135t-249 50t-249.5 -50t-195 -135t-127 -199t-45.5 -241q0 -88 22.5 -168.5t63 -150t97.5 -126t125.5 -96.5t146.5 -62t162 -22z" />
    <glyph glyph-name="uni1EDA" unicode="&#x1eda;" horiz-adv-x="1696" 
d="M1122 1948l-336 -306l-90 56l256 340zM1577 1464q0 40 -16 78h127q5 -18 7.5 -38t2.5 -40q0 -88 -45.5 -157t-120.5 -109q59 -93 92 -200.5t33 -225.5q0 -115 -29 -219t-81.5 -193.5t-126.5 -162t-164 -123.5t-193.5 -79t-214.5 -28q-112 0 -215.5 28t-193 79
t-163.5 123.5t-126.5 162t-81.5 193.5t-29 219q0 110 29 213t82.5 192.5t127.5 163t164 126t192.5 81.5t213.5 29q92 0 179 -20.5t165.5 -58t147 -91t124.5 -119.5q51 26 82 73.5t31 102.5zM848 147q125 0 237 48t196 132.5t133.5 198.5t49.5 246q0 127 -45.5 241t-127 199
t-194.5 135t-249 50t-249.5 -50t-195 -135t-127 -199t-45.5 -241q0 -88 22.5 -168.5t63 -150t97.5 -126t125.5 -96.5t146.5 -62t162 -22z" />
    <glyph glyph-name="uni1EE0" unicode="&#x1ee0;" horiz-adv-x="1696" 
d="M480 1790l6 10l42.5 58t48 50t58 35t72.5 13q53 0 97.5 -16t84.5 -37q41 -22 77.5 -39t70.5 -17q22 0 41 8.5t35.5 23t30 32t24.5 35.5l96 -80q-18 -36 -42 -67t-54.5 -53.5t-67 -35t-78.5 -12.5q-43 0 -85.5 16.5t-84.5 36.5q-40 19 -79.5 35t-79.5 16q-19 0 -37 -8.5
t-33 -22t-27.5 -30.5t-19.5 -33zM1577 1464q0 40 -16 78h127q5 -18 7.5 -38t2.5 -40q0 -88 -45.5 -157t-120.5 -109q59 -93 92 -200.5t33 -225.5q0 -115 -29 -219t-81.5 -193.5t-126.5 -162t-164 -123.5t-193.5 -79t-214.5 -28q-112 0 -215.5 28t-193 79t-163.5 123.5
t-126.5 162t-81.5 193.5t-29 219q0 110 29 213t82.5 192.5t127.5 163t164 126t192.5 81.5t213.5 29q92 0 179 -20.5t165.5 -58t147 -91t124.5 -119.5q51 26 82 73.5t31 102.5zM848 147q125 0 237 48t196 132.5t133.5 198.5t49.5 246q0 127 -45.5 241t-127 199t-194.5 135
t-249 50t-249.5 -50t-195 -135t-127 -199t-45.5 -241q0 -88 22.5 -168.5t63 -150t97.5 -126t125.5 -96.5t146.5 -62t162 -22z" />
    <glyph glyph-name="uni1EDE" unicode="&#x1ede;" horiz-adv-x="1696" 
d="M1577 1464q0 40 -16 78h127q5 -18 7.5 -38t2.5 -40q0 -88 -45.5 -157t-120.5 -109q59 -93 92 -200.5t33 -225.5q0 -115 -29 -219t-81.5 -193.5t-126.5 -162t-164 -123.5t-193.5 -79t-214.5 -28q-112 0 -215.5 28t-193 79t-163.5 123.5t-126.5 162t-81.5 193.5t-29 219
q0 110 29 213t82.5 192.5t127.5 163t164 126t192.5 81.5t213.5 29q92 0 179 -20.5t165.5 -58t147 -91t124.5 -119.5q51 26 82 73.5t31 102.5zM848 147q125 0 237 48t196 132.5t133.5 198.5t49.5 246q0 127 -45.5 241t-127 199t-194.5 135t-249 50t-249.5 -50t-195 -135
t-127 -199t-45.5 -241q0 -88 22.5 -168.5t63 -150t97.5 -126t125.5 -96.5t146.5 -62t162 -22zM898 1704h-143q6 35 21 61t33 47.5t39 39t38 34.5t28 36.5t12 44.5q0 56 -40.5 85.5t-128.5 36.5v108q84 0 145 -16t100 -46t58 -72.5t19 -93.5q-1 -39 -13 -68.5t-30.5 -52
t-41 -41l-42 -33.5t-34.5 -29t-18 -31z" />
    <glyph glyph-name="uni1EE2" unicode="&#x1ee2;" horiz-adv-x="1696" 
d="M1577 1464q0 40 -16 78h127q5 -18 7.5 -38t2.5 -40q0 -88 -45.5 -157t-120.5 -109q59 -93 92 -200.5t33 -225.5q0 -115 -29 -219t-81.5 -193.5t-126.5 -162t-164 -123.5t-193.5 -79t-214.5 -28q-112 0 -215.5 28t-193 79t-163.5 123.5t-126.5 162t-81.5 193.5t-29 219
q0 110 29 213t82.5 192.5t127.5 163t164 126t192.5 81.5t213.5 29q92 0 179 -20.5t165.5 -58t147 -91t124.5 -119.5q51 26 82 73.5t31 102.5zM848 147q125 0 237 48t196 132.5t133.5 198.5t49.5 246q0 127 -45.5 241t-127 199t-194.5 135t-249 50t-249.5 -50t-195 -135
t-127 -199t-45.5 -241q0 -88 22.5 -168.5t63 -150t97.5 -126t125.5 -96.5t146.5 -62t162 -22zM820 -190q24 0 46 -9.5t38 -26t25.5 -38t9.5 -45.5q0 -25 -9.5 -46.5t-25.5 -37.5t-38 -25.5t-46 -9.5q-25 0 -46.5 9.5t-37.5 25.5t-25.5 37.5t-9.5 46.5q0 24 9.5 45.5t25.5 38
t37.5 26t46.5 9.5z" />
    <glyph glyph-name="Oslash" unicode="&#xd8;" horiz-adv-x="1696" 
d="M473 276q77 -60 173 -94.5t202 -34.5q125 0 237 48t196 132.5t133.5 198.5t49.5 246q0 103 -29.5 197t-84.5 172zM1245 1253q-77 68 -177.5 106t-219.5 38q-136 0 -249.5 -50t-195 -135t-127 -199t-45.5 -241q0 -111 35.5 -208.5t98.5 -176.5zM227 252
q-89 105 -138.5 236.5t-49.5 283.5q0 110 29 213t82.5 192.5t127.5 163t164 126t192.5 81.5t213.5 29q152 0 286.5 -53t239.5 -144l197 195l110 -109l-200 -196q83 -106 129.5 -232t46.5 -266q0 -115 -29 -219t-81.5 -193.5t-126.5 -162t-164 -123.5t-193.5 -79t-214.5 -28
q-146 0 -275.5 46.5t-234.5 129.5l-213 -209l-111 109z" />
    <glyph glyph-name="OE" unicode="&#x152;" horiz-adv-x="2341" 
d="M1470 258h-4q-52 -71 -120.5 -125.5t-148 -91.5t-168 -56t-181.5 -18q-112 0 -215.5 28t-193 79t-163.5 123.5t-126.5 162t-81.5 193.5t-29 219q0 110 29 213t82.5 192.5t127.5 163t164 126t192.5 81.5t213.5 29q88 -3 176.5 -23.5t169.5 -58.5t151 -93t121 -128h4v270
h809v-176h-634v-432h616v-176h-616v-584h634v-176h-809v258zM848 147q125 0 237 48t196 132.5t133.5 198.5t49.5 246q0 127 -45.5 241t-127 199t-194.5 135t-249 50t-249.5 -50t-195 -135t-127 -199t-45.5 -241q0 -88 22.5 -168.5t63 -150t97.5 -126t125.5 -96.5t146.5 -62
t162 -22z" />
    <glyph glyph-name="Ugrave" unicode="&#xd9;" horiz-adv-x="1370" 
d="M313 1544v-911q0 -95 16.5 -182.5t58.5 -155t114.5 -108t183.5 -40.5t183.5 40.5t114.5 108t58.5 155t16.5 182.5v911h192v-977q0 -128 -38.5 -237.5t-111.5 -190t-177.5 -126.5t-237.5 -46t-238 46t-177.5 126.5t-111 190t-38.5 237.5v977h192zM582 2038l256 -340
l-90 -56l-336 306z" />
    <glyph glyph-name="Uacute" unicode="&#xda;" horiz-adv-x="1370" 
d="M313 1544v-911q0 -95 16.5 -182.5t58.5 -155t114.5 -108t183.5 -40.5t183.5 40.5t114.5 108t58.5 155t16.5 182.5v911h192v-977q0 -128 -38.5 -237.5t-111.5 -190t-177.5 -126.5t-237.5 -46t-238 46t-177.5 126.5t-111 190t-38.5 237.5v977h192zM961 1948l-336 -306
l-90 56l256 340z" />
    <glyph glyph-name="Ucircumflex" unicode="&#xdb;" horiz-adv-x="1370" 
d="M313 1544v-911q0 -95 16.5 -182.5t58.5 -155t114.5 -108t183.5 -40.5t183.5 40.5t114.5 108t58.5 155t16.5 182.5v911h192v-977q0 -128 -38.5 -237.5t-111.5 -190t-177.5 -126.5t-237.5 -46t-238 46t-177.5 126.5t-111 190t-38.5 237.5v977h192zM684 2038l330 -297
l-121 -94l-209 196l-207 -196l-119 94z" />
    <glyph glyph-name="Utilde" unicode="&#x168;" horiz-adv-x="1370" 
d="M330 1790l6 10l42.5 58t48 50t58 35t72.5 13q53 0 97.5 -16t84.5 -37q41 -22 77.5 -39t70.5 -17q22 0 41 8.5t35.5 23t30 32t24.5 35.5l96 -80q-18 -36 -42 -67t-54.5 -53.5t-67 -35t-78.5 -12.5q-43 0 -85.5 16.5t-84.5 36.5q-40 19 -79.5 35t-79.5 16q-19 0 -37 -8.5
t-33 -22t-27.5 -30.5t-19.5 -33zM313 1544v-911q0 -95 16.5 -182.5t58.5 -155t114.5 -108t183.5 -40.5t183.5 40.5t114.5 108t58.5 155t16.5 182.5v911h192v-977q0 -128 -38.5 -237.5t-111.5 -190t-177.5 -126.5t-237.5 -46t-238 46t-177.5 126.5t-111 190t-38.5 237.5v977
h192z" />
    <glyph glyph-name="Udieresis" unicode="&#xdc;" horiz-adv-x="1370" 
d="M313 1544v-911q0 -95 16.5 -182.5t58.5 -155t114.5 -108t183.5 -40.5t183.5 40.5t114.5 108t58.5 155t16.5 182.5v911h192v-977q0 -128 -38.5 -237.5t-111.5 -190t-177.5 -126.5t-237.5 -46t-238 46t-177.5 126.5t-111 190t-38.5 237.5v977h192zM471 1956q25 0 47.5 -9.5
t39.5 -26.5t26.5 -39.5t9.5 -47.5q0 -26 -9.5 -49t-26.5 -40t-39.5 -26.5t-47.5 -9.5q-26 0 -49 9.5t-40 26.5t-26.5 40t-9.5 49q0 25 9.5 47.5t26.5 39.5t40 26.5t49 9.5zM903 1956q25 0 47.5 -9.5t39.5 -26.5t26.5 -39.5t9.5 -47.5q0 -26 -9.5 -49t-26.5 -40t-39.5 -26.5
t-47.5 -9.5q-26 0 -48.5 9.5t-39.5 26.5t-27 40t-10 49q0 25 10 47.5t27 39.5t39.5 26.5t48.5 9.5z" />
    <glyph glyph-name="uni1EE6" unicode="&#x1ee6;" horiz-adv-x="1370" 
d="M313 1544v-911q0 -95 16.5 -182.5t58.5 -155t114.5 -108t183.5 -40.5t183.5 40.5t114.5 108t58.5 155t16.5 182.5v911h192v-977q0 -128 -38.5 -237.5t-111.5 -190t-177.5 -126.5t-237.5 -46t-238 46t-177.5 126.5t-111 190t-38.5 237.5v977h192zM743 1704h-143
q6 35 21 61t33 47.5t39 39t38 34.5t28 36.5t12 44.5q0 56 -40.5 85.5t-128.5 36.5v108q84 0 145 -16t100 -46t58 -72.5t19 -93.5q-1 -39 -13 -68.5t-30.5 -52t-41 -41l-42 -33.5t-34.5 -29t-18 -31z" />
    <glyph glyph-name="uni1EE4" unicode="&#x1ee4;" horiz-adv-x="1370" 
d="M313 1544v-911q0 -95 16.5 -182.5t58.5 -155t114.5 -108t183.5 -40.5t183.5 40.5t114.5 108t58.5 155t16.5 182.5v911h192v-977q0 -128 -38.5 -237.5t-111.5 -190t-177.5 -126.5t-237.5 -46t-238 46t-177.5 126.5t-111 190t-38.5 237.5v977h192zM676 -190q24 0 46 -9.5
t38 -26t25.5 -38t9.5 -45.5q0 -25 -9.5 -46.5t-25.5 -37.5t-38 -25.5t-46 -9.5q-25 0 -46.5 9.5t-37.5 25.5t-25.5 37.5t-9.5 46.5q0 24 9.5 45.5t25.5 38t37.5 26t46.5 9.5z" />
    <glyph glyph-name="Uhorn" unicode="&#x1af;" horiz-adv-x="1526" 
d="M1393 1464q0 20 -4.5 40t-12.5 38h127q5 -18 7.5 -38t2.5 -40q0 -56 -20 -105.5t-55 -88.5t-83 -66t-104 -39v-598q0 -128 -38.5 -237.5t-111.5 -190t-177.5 -126.5t-237.5 -46t-238 46t-177.5 126.5t-111 190t-38.5 237.5v977h192v-911q0 -95 16.5 -182.5t58.5 -155
t114.5 -108t183.5 -40.5t183.5 40.5t114.5 108t58.5 155t16.5 182.5v911h192v-268q31 11 57 30t45 43.5t29.5 53.5t10.5 61z" />
    <glyph glyph-name="uni1EEA" unicode="&#x1eea;" horiz-adv-x="1526" 
d="M563 2038l256 -340l-90 -56l-336 306zM1393 1464q0 20 -4.5 40t-12.5 38h127q5 -18 7.5 -38t2.5 -40q0 -56 -20 -105.5t-55 -88.5t-83 -66t-104 -39v-598q0 -128 -38.5 -237.5t-111.5 -190t-177.5 -126.5t-237.5 -46t-238 46t-177.5 126.5t-111 190t-38.5 237.5v977h192
v-911q0 -95 16.5 -182.5t58.5 -155t114.5 -108t183.5 -40.5t183.5 40.5t114.5 108t58.5 155t16.5 182.5v911h192v-268q31 11 57 30t45 43.5t29.5 53.5t10.5 61z" />
    <glyph glyph-name="uni1EE8" unicode="&#x1ee8;" horiz-adv-x="1526" 
d="M961 1948l-336 -306l-90 56l256 340zM1393 1464q0 20 -4.5 40t-12.5 38h127q5 -18 7.5 -38t2.5 -40q0 -56 -20 -105.5t-55 -88.5t-83 -66t-104 -39v-598q0 -128 -38.5 -237.5t-111.5 -190t-177.5 -126.5t-237.5 -46t-238 46t-177.5 126.5t-111 190t-38.5 237.5v977h192
v-911q0 -95 16.5 -182.5t58.5 -155t114.5 -108t183.5 -40.5t183.5 40.5t114.5 108t58.5 155t16.5 182.5v911h192v-268q31 11 57 30t45 43.5t29.5 53.5t10.5 61z" />
    <glyph glyph-name="uni1EEE" unicode="&#x1eee;" horiz-adv-x="1526" 
d="M330 1790l6 10l42.5 58t48 50t58 35t72.5 13q53 0 97.5 -16t84.5 -37q41 -22 77.5 -39t70.5 -17q22 0 41 8.5t35.5 23t30 32t24.5 35.5l96 -80q-18 -36 -42 -67t-54.5 -53.5t-67 -35t-78.5 -12.5q-43 0 -85.5 16.5t-84.5 36.5q-40 19 -79.5 35t-79.5 16q-19 0 -37 -8.5
t-33 -22t-27.5 -30.5t-19.5 -33zM1393 1464q0 20 -4.5 40t-12.5 38h127q5 -18 7.5 -38t2.5 -40q0 -56 -20 -105.5t-55 -88.5t-83 -66t-104 -39v-598q0 -128 -38.5 -237.5t-111.5 -190t-177.5 -126.5t-237.5 -46t-238 46t-177.5 126.5t-111 190t-38.5 237.5v977h192v-911
q0 -95 16.5 -182.5t58.5 -155t114.5 -108t183.5 -40.5t183.5 40.5t114.5 108t58.5 155t16.5 182.5v911h192v-268q31 11 57 30t45 43.5t29.5 53.5t10.5 61z" />
    <glyph glyph-name="uni1EEC" unicode="&#x1eec;" horiz-adv-x="1526" 
d="M1393 1464q0 20 -4.5 40t-12.5 38h127q5 -18 7.5 -38t2.5 -40q0 -56 -20 -105.5t-55 -88.5t-83 -66t-104 -39v-598q0 -128 -38.5 -237.5t-111.5 -190t-177.5 -126.5t-237.5 -46t-238 46t-177.5 126.5t-111 190t-38.5 237.5v977h192v-911q0 -95 16.5 -182.5t58.5 -155
t114.5 -108t183.5 -40.5t183.5 40.5t114.5 108t58.5 155t16.5 182.5v911h192v-268q31 11 57 30t45 43.5t29.5 53.5t10.5 61zM833 1704h-143q6 35 21 61t33 47.5t39 39t38 34.5t28 36.5t12 44.5q0 56 -40.5 85.5t-128.5 36.5v108q84 0 145 -16t100 -46t58 -72.5t19 -93.5
q-1 -39 -13 -68.5t-30.5 -52t-41 -41l-42 -33.5t-34.5 -29t-18 -31z" />
    <glyph glyph-name="uni1EF0" unicode="&#x1ef0;" horiz-adv-x="1526" 
d="M1393 1464q0 20 -4.5 40t-12.5 38h127q5 -18 7.5 -38t2.5 -40q0 -56 -20 -105.5t-55 -88.5t-83 -66t-104 -39v-598q0 -128 -38.5 -237.5t-111.5 -190t-177.5 -126.5t-237.5 -46t-238 46t-177.5 126.5t-111 190t-38.5 237.5v977h192v-911q0 -95 16.5 -182.5t58.5 -155
t114.5 -108t183.5 -40.5t183.5 40.5t114.5 108t58.5 155t16.5 182.5v911h192v-268q31 11 57 30t45 43.5t29.5 53.5t10.5 61zM706 -190q24 0 46 -9.5t38 -26t25.5 -38t9.5 -45.5q0 -25 -9.5 -46.5t-25.5 -37.5t-38 -25.5t-46 -9.5q-25 0 -46.5 9.5t-37.5 25.5t-25.5 37.5
t-9.5 46.5q0 24 9.5 45.5t25.5 38t37.5 26t46.5 9.5z" />
    <glyph glyph-name="Ygrave" unicode="&#x1ef2;" horiz-adv-x="1174" 
d="M483 2038l256 -340l-90 -56l-336 306zM-12 1544h221l379 -659l379 659h221l-504 -872v-672h-192v672z" />
    <glyph glyph-name="Yacute" unicode="&#xdd;" horiz-adv-x="1174" 
d="M-12 1544h221l379 -659l379 659h221l-504 -872v-672h-192v672zM924 1948l-336 -306l-90 56l256 340z" />
    <glyph glyph-name="uni1EF8" unicode="&#x1ef8;" horiz-adv-x="1174" 
d="M230 1790l6 10l42.5 58t48 50t58 35t72.5 13q53 0 97.5 -16t84.5 -37q41 -22 77.5 -39t70.5 -17q22 0 41 8.5t35.5 23t30 32t24.5 35.5l96 -80q-18 -36 -42 -67t-54.5 -53.5t-67 -35t-78.5 -12.5q-43 0 -85.5 16.5t-84.5 36.5q-40 19 -79.5 35t-79.5 16q-19 0 -37 -8.5
t-33 -22t-27.5 -30.5t-19.5 -33zM-12 1544h221l379 -659l379 659h221l-504 -872v-672h-192v672z" />
    <glyph glyph-name="Ydieresis" unicode="&#x178;" horiz-adv-x="1174" 
d="M-12 1544h221l379 -659l379 659h221l-504 -872v-672h-192v672zM397 1956q25 0 47.5 -9.5t39.5 -26.5t26.5 -39.5t9.5 -47.5q0 -26 -9.5 -49t-26.5 -40t-39.5 -26.5t-47.5 -9.5q-26 0 -48.5 9.5t-39.5 26.5t-27 40t-10 49q0 25 10 47.5t27 39.5t39.5 26.5t48.5 9.5z
M829 1956q25 0 47.5 -9.5t39.5 -26.5t26.5 -39.5t9.5 -47.5q0 -26 -9.5 -49t-26.5 -40t-39.5 -26.5t-47.5 -9.5q-26 0 -48.5 9.5t-39.5 26.5t-26.5 40t-9.5 49q0 25 9.5 47.5t26.5 39.5t39.5 26.5t48.5 9.5z" />
    <glyph glyph-name="uni1EF6" unicode="&#x1ef6;" horiz-adv-x="1174" 
d="M-12 1544h221l379 -659l379 659h221l-504 -872v-672h-192v672zM635 1704h-143q6 35 21 61t33 47.5t39 39t38 34.5t28 36.5t12 44.5q0 56 -40.5 85.5t-128.5 36.5v108q84 0 145 -16t100 -46t58 -72.5t19 -93.5q-1 -39 -13 -68.5t-30.5 -52t-41 -41l-42 -33.5t-34.5 -29
t-18 -31z" />
    <glyph glyph-name="uni1EF4" unicode="&#x1ef4;" horiz-adv-x="1174" 
d="M-12 1544h221l379 -659l379 659h221l-504 -872v-672h-192v672zM597 -190q24 0 46 -9.5t38 -26t25.5 -38t9.5 -45.5q0 -25 -9.5 -46.5t-25.5 -37.5t-38 -25.5t-46 -9.5q-25 0 -46.5 9.5t-37.5 25.5t-25.5 37.5t-9.5 46.5q0 24 9.5 45.5t25.5 38t37.5 26t46.5 9.5z" />
    <glyph glyph-name="Eth" unicode="&#xd0;" horiz-adv-x="1362" 
d="M131 1544h320q118 0 228.5 -21t206.5 -63t175.5 -105.5t136 -148t88 -191.5t31.5 -235q0 -132 -31 -240.5t-87 -195.5t-135.5 -151.5t-176.5 -107.5t-209 -64t-234 -21h-313v741h-131v164h131v639zM324 905h274v-164h-274v-565h67q98 0 190.5 13t174 42t149.5 75
t116.5 112.5t75.5 154t27 199.5q0 113 -27 201t-75.5 154t-116.5 112t-149.5 74.5t-174 41.5t-190.5 13h-67v-463z" />
    <glyph glyph-name="Thorn" unicode="&#xde;" horiz-adv-x="1014" 
d="M340 0h-193v1544h193v-287h29q178 0 297.5 -30t191.5 -87t102.5 -140t30.5 -189q0 -122 -43.5 -208t-117 -140t-172 -78.5t-207.5 -24.5h-111v-360zM340 532h61q74 0 147 9.5t131.5 39.5t95 86t36.5 148q0 60 -18 104t-48.5 74t-72 48t-88 28t-96 13t-97.5 3h-51v-553z
" />
    <glyph glyph-name="a" unicode="a" horiz-adv-x="1139" 
d="M541 131q75 0 133 28t97.5 75.5t60 110.5t20.5 134q0 70 -21 132.5t-60.5 109.5t-97.5 74.5t-132 27.5q-72 0 -128 -28.5t-95 -76.5t-59.5 -110t-20.5 -129q0 -68 20 -130.5t58.5 -111t95 -77.5t129.5 -29zM1026 0h-184v150h-4q-56 -82 -139.5 -132.5t-186.5 -50.5
q-110 0 -195.5 42.5t-144 114t-89 165t-30.5 196.5q0 99 31.5 189.5t90.5 160t142.5 111t188.5 41.5q106 0 190.5 -51t141.5 -137h4v159h184v-958z" />
    <glyph glyph-name="b" unicode="b" horiz-adv-x="1139" 
d="M590 131q75 0 133 28t97.5 75.5t60 110.5t20.5 134q0 70 -21 132.5t-60.5 109.5t-97.5 74.5t-132 27.5q-72 0 -128 -28.5t-95 -76.5t-59.5 -110t-20.5 -129q0 -68 20 -130.5t58.5 -111t95 -77.5t129.5 -29zM113 1778h184v-979h4q57 86 141.5 137t192.5 51
q103 0 186.5 -41.5t142 -111t90 -160t31.5 -189.5q0 -103 -30 -196.5t-88.5 -165t-143.5 -114t-196 -42.5q-102 0 -186 50.5t-140 132.5h-4v-150h-184v1778z" />
    <glyph glyph-name="c" unicode="c" horiz-adv-x="903" 
d="M831 686q-55 63 -122.5 96t-151.5 33q-68 0 -126 -28t-101 -74.5t-67.5 -107t-24.5 -126.5q0 -74 24.5 -136t68.5 -107.5t104.5 -71t133.5 -25.5q81 0 145.5 34t116.5 93v-235q-63 -34 -127 -49t-137 -15q-106 0 -199.5 38.5t-163.5 106t-110.5 159.5t-40.5 200
q0 111 40.5 205.5t111.5 163.5t166.5 108t206.5 39q65 0 131.5 -15.5t121.5 -47.5v-238z" />
    <glyph glyph-name="d" unicode="d" horiz-adv-x="1139" 
d="M541 131q75 0 133 28t97.5 75.5t60 110.5t20.5 134q0 70 -21 132.5t-60.5 109.5t-97.5 74.5t-132 27.5q-72 0 -128 -28.5t-95 -76.5t-59.5 -110t-20.5 -129q0 -68 20 -130.5t58.5 -111t95 -77.5t129.5 -29zM842 150h-4q-56 -82 -140 -132.5t-186 -50.5
q-111 0 -196.5 42.5t-144 114t-88.5 165t-30 196.5q0 99 31.5 189.5t90 160t142 111t187.5 41.5q108 0 192.5 -51t141.5 -137h4v979h184v-1778h-184v150z" />
    <glyph glyph-name="e" unicode="e" horiz-adv-x="999" 
d="M238 449q1 -62 21 -119t57.5 -101.5t90.5 -71t119 -26.5q53 0 95 13t75.5 37t62 58.5t54.5 77.5l156 -88q-34 -62 -81.5 -111t-105 -82.5t-123 -51t-135.5 -17.5q-110 0 -197.5 39t-148 107t-93 160t-32.5 198q0 111 29.5 205.5t88 163.5t146 108t203.5 39
q114 0 198.5 -39.5t140 -108.5t83 -162t27.5 -200v-28h-731zM784 588q-8 54 -29.5 98t-55 75.5t-79 48.5t-100.5 17q-54 0 -100 -18t-81.5 -50t-59 -76t-31.5 -95h536z" />
    <glyph glyph-name="f" unicode="f" horiz-adv-x="563" 
d="M602 1591q-28 13 -61 26t-62 13q-49 0 -75.5 -27.5t-39 -67.5t-14.5 -85t-2 -80v-412h254v-172h-254v-786h-184v786h-84v172h84v467q0 78 15 147t50.5 120t95 80.5t148.5 29.5q67 0 129 -24v-187z" />
    <glyph glyph-name="g" unicode="g" horiz-adv-x="1137" 
d="M539 131q75 0 133 28t97.5 75.5t60 110.5t20.5 134q0 70 -21 132.5t-60.5 109.5t-97.5 74.5t-132 27.5q-72 0 -128 -28.5t-95 -76.5t-59.5 -110t-20.5 -129q0 -68 20 -130.5t58.5 -111t95 -77.5t129.5 -29zM1024 18q0 -123 -20.5 -227t-73 -179.5t-143 -118t-230.5 -42.5
q-100 0 -184 30t-145.5 86t-97 136.5t-36.5 181.5h185q0 -65 21 -115t59 -84.5t90.5 -52.5t115.5 -18q85 0 139 27.5t84 75t41 111.5t11 138v183h-4q-56 -82 -140 -132.5t-186 -50.5q-111 0 -196.5 42.5t-144 114t-88.5 165t-30 196.5q0 99 31.5 189.5t90 160t142 111
t187.5 41.5q108 0 192.5 -51.5t141.5 -140.5h4v163h184v-940z" />
    <glyph glyph-name="h" unicode="h" horiz-adv-x="1071" 
d="M311 1778v-949h4q22 39 53.5 68.5t69 49.5t80 30t86.5 10q101 0 167 -32t104.5 -88t53.5 -132t15 -164v-571h-184v549q0 61 -6.5 111.5t-28.5 86.5t-64 56t-112 20q-59 0 -100 -16.5t-67.5 -44.5t-41 -65.5t-21 -80t-7.5 -88t-1 -88.5v-440h-184v1778h184z" />
    <glyph glyph-name="i" unicode="i" horiz-adv-x="520" 
d="M352 0h-184v958h184v-958zM260 1526q26 0 49 -10t40.5 -27.5t27.5 -41t10 -50.5q0 -26 -10 -49t-27.5 -40t-40.5 -26.5t-49 -9.5t-49.5 9.5t-40.5 26.5t-27 40t-10 49q0 27 10 50.5t27 41t40.5 27.5t49.5 10z" />
    <glyph glyph-name="j" unicode="j" horiz-adv-x="520" 
d="M352 -549h-184v1507h184v-1507zM260 1526q26 0 49 -10t40.5 -27.5t27.5 -41t10 -50.5q0 -26 -10 -49t-27.5 -40t-40.5 -26.5t-49 -9.5t-49.5 9.5t-40.5 26.5t-27 40t-10 49q0 27 10 50.5t27 41t40.5 27.5t49.5 10z" />
    <glyph glyph-name="k" unicode="k" horiz-adv-x="946" 
d="M324 598l360 360h244l-410 -397l451 -561h-240l-342 436l-63 -63v-373h-185v1778h185v-1180z" />
    <glyph glyph-name="l" unicode="l" horiz-adv-x="455" 
d="M319 0h-184v1778h184v-1778z" />
    <glyph glyph-name="m" unicode="m" horiz-adv-x="1571" 
d="M305 838h4q20 31 47.5 58.5t60.5 47.5t70 31.5t76 11.5q94 0 162 -44.5t115 -125.5q22 39 54 70t70.5 53.5t82 34.5t88.5 12q94 0 155.5 -34t97.5 -91t50 -132t14 -157v-573h-184v543q0 46 -5 95.5t-23.5 90.5t-54 67.5t-95.5 26.5q-49 0 -84 -16t-58.5 -42.5t-37 -62
t-20.5 -75t-9 -79.5t-2 -77v-471h-185v508q0 47 -3.5 102t-20.5 102.5t-52.5 79t-99.5 31.5q-74 0 -116 -34t-64 -86t-27.5 -114t-5.5 -118v-471h-184v958h184v-120z" />
    <glyph glyph-name="n" unicode="n" horiz-adv-x="1071" 
d="M311 829h4q22 39 53.5 68.5t69 49.5t80 30t86.5 10q101 0 167 -32t104.5 -88t53.5 -132t15 -164v-571h-184v549q0 61 -6.5 111.5t-28.5 86.5t-64 56t-112 20q-59 0 -100 -16.5t-67.5 -44.5t-41 -65.5t-21 -80t-7.5 -88t-1 -88.5v-440h-184v958h184v-129z" />
    <glyph glyph-name="o" unicode="o" horiz-adv-x="1106" 
d="M553 987q108 0 201.5 -39t162.5 -107.5t108.5 -162t39.5 -201.5t-39.5 -201.5t-108.5 -162t-162.5 -107.5t-201.5 -39t-201.5 39t-162.5 107.5t-108.5 162t-39.5 201.5t39.5 201.5t108.5 162t162.5 107.5t201.5 39zM553 811q-68 0 -128 -26.5t-104.5 -72t-70 -106.5
t-25.5 -129t25.5 -128.5t70 -106t104.5 -72.5t128 -27t128 27t104.5 72.5t70 106t25.5 128.5t-25.5 129t-70 106.5t-104.5 72t-128 26.5z" />
    <glyph glyph-name="p" unicode="p" horiz-adv-x="1139" 
d="M590 131q75 0 133 28t97.5 75.5t60 110.5t20.5 134q0 70 -21 132.5t-60.5 109.5t-97.5 74.5t-132 27.5q-72 0 -128 -28.5t-95 -76.5t-59.5 -110t-20.5 -129q0 -68 20 -130.5t58.5 -111t95 -77.5t129.5 -29zM297 799h4q57 86 141.5 137t192.5 51q103 0 186.5 -41.5
t142 -111t90 -160t31.5 -189.5q0 -103 -30 -196.5t-88.5 -165t-143.5 -114t-196 -42.5q-102 0 -186 50.5t-140 132.5h-4v-699h-184v1507h184v-159z" />
    <glyph glyph-name="q" unicode="q" horiz-adv-x="1139" 
d="M541 131q75 0 133 28t97.5 75.5t60 110.5t20.5 134q0 70 -21 132.5t-60.5 109.5t-97.5 74.5t-132 27.5q-72 0 -128 -28.5t-95 -76.5t-59.5 -110t-20.5 -129q0 -68 20 -130.5t58.5 -111t95 -77.5t129.5 -29zM1026 -549h-184v699h-4q-56 -82 -140 -132.5t-186 -50.5
q-111 0 -196.5 42.5t-144 114t-88.5 165t-30 196.5q0 99 31.5 189.5t90 160t142 111t187.5 41.5q108 0 192.5 -51t141.5 -137h4v159h184v-1507z" />
    <glyph glyph-name="r" unicode="r" horiz-adv-x="719" 
d="M324 803h6q34 85 101.5 134.5t160.5 49.5q40 0 78.5 -12.5t72.5 -34.5l-84 -168q-24 22 -52 30.5t-60 8.5q-50 0 -85.5 -14.5t-60.5 -39t-40 -58t-23.5 -71t-11 -78t-2.5 -79.5v-471h-185v958h185v-155z" />
    <glyph glyph-name="s" unicode="s" horiz-adv-x="786" 
d="M512 739q-17 35 -50 59.5t-73 24.5q-19 0 -37 -7t-32 -20t-22.5 -30t-8.5 -37q0 -32 19 -55.5t50 -43t71.5 -37l82.5 -36.5t82 -42.5t71 -56t49.5 -74.5t18.5 -99q0 -69 -26.5 -127t-71.5 -100.5t-105 -66.5t-127 -24q-52 0 -103 14.5t-95.5 42.5t-79 67.5t-53.5 90.5
l157 72q15 -27 31.5 -49.5t37 -39t46.5 -25.5t59 -9q29 0 55.5 9.5t46.5 27t32 42.5t12 56q0 38 -18 60.5t-50 44.5l-180 96q-40 21 -73.5 43t-58 50t-38.5 64t-14 85q0 58 22.5 109t60.5 88.5t89.5 59t109.5 21.5q88 0 156 -44.5t107 -123.5z" />
    <glyph glyph-name="t" unicode="t" horiz-adv-x="492" 
d="M338 0h-184v786h-101v172h101v367h184v-367h180v-172h-180v-786z" />
    <glyph glyph-name="u" unicode="u" horiz-adv-x="1049" 
d="M303 958v-530q0 -58 9 -110.5t33.5 -92t67.5 -63t111 -23.5q69 0 112 23.5t67 63t33 92t9 110.5v530h185v-550q0 -99 -23.5 -180t-73 -139t-126.5 -90t-183 -32t-182.5 32t-126 90t-73 139t-23.5 180v550h184z" />
    <glyph glyph-name="v" unicode="v" horiz-adv-x="911" 
d="M455 360l276 598h207l-483 -991l-482 991h207z" />
    <glyph glyph-name="w" unicode="w" horiz-adv-x="1470" 
d="M455 348l282 664l281 -664l278 610h209l-487 -991l-281 641l-282 -641l-488 991h209z" />
    <glyph glyph-name="x" unicode="x" horiz-adv-x="1001" 
d="M55 958h217l228 -309l248 309h223l-353 -438l412 -520h-215l-315 389l-305 -389h-224l428 520z" />
    <glyph glyph-name="y" unicode="y" horiz-adv-x="991" 
d="M-27 958h215l324 -608l301 608h207l-776 -1507h-209l377 713z" />
    <glyph glyph-name="z" unicode="z" horiz-adv-x="1014" 
d="M985 172v-172h-981l649 786h-538v172h897l-650 -786h623z" />
    <glyph glyph-name="agrave" unicode="&#xe0;" horiz-adv-x="1139" 
d="M541 131q75 0 133 28t97.5 75.5t60 110.5t20.5 134q0 70 -21 132.5t-60.5 109.5t-97.5 74.5t-132 27.5q-72 0 -128 -28.5t-95 -76.5t-59.5 -110t-20.5 -129q0 -68 20 -130.5t58.5 -111t95 -77.5t129.5 -29zM1026 0h-184v150h-4q-56 -82 -139.5 -132.5t-186.5 -50.5
q-110 0 -195.5 42.5t-144 114t-89 165t-30.5 196.5q0 99 31.5 189.5t90.5 160t142.5 111t188.5 41.5q106 0 190.5 -51t141.5 -137h4v159h184v-958zM496 1503l256 -340l-90 -55l-336 305z" />
    <glyph glyph-name="aacute" unicode="&#xe1;" horiz-adv-x="1139" 
d="M541 131q75 0 133 28t97.5 75.5t60 110.5t20.5 134q0 70 -21 132.5t-60.5 109.5t-97.5 74.5t-132 27.5q-72 0 -128 -28.5t-95 -76.5t-59.5 -110t-20.5 -129q0 -68 20 -130.5t58.5 -111t95 -77.5t129.5 -29zM1026 0h-184v150h-4q-56 -82 -139.5 -132.5t-186.5 -50.5
q-110 0 -195.5 42.5t-144 114t-89 165t-30.5 196.5q0 99 31.5 189.5t90.5 160t142.5 111t188.5 41.5q106 0 190.5 -51t141.5 -137h4v159h184v-958zM864 1413l-336 -305l-90 55l256 340z" />
    <glyph glyph-name="acircumflex" unicode="&#xe2;" horiz-adv-x="1139" 
d="M541 131q75 0 133 28t97.5 75.5t60 110.5t20.5 134q0 70 -21 132.5t-60.5 109.5t-97.5 74.5t-132 27.5q-72 0 -128 -28.5t-95 -76.5t-59.5 -110t-20.5 -129q0 -68 20 -130.5t58.5 -111t95 -77.5t129.5 -29zM1026 0h-184v150h-4q-56 -82 -139.5 -132.5t-186.5 -50.5
q-110 0 -195.5 42.5t-144 114t-89 165t-30.5 196.5q0 99 31.5 189.5t90.5 160t142.5 111t188.5 41.5q106 0 190.5 -51t141.5 -137h4v159h184v-958zM567 1503l330 -297l-121 -94l-209 197l-207 -197l-118 94z" />
    <glyph glyph-name="uni1EA7" unicode="&#x1ea7;" horiz-adv-x="1139" 
d="M541 131q75 0 133 28t97.5 75.5t60 110.5t20.5 134q0 70 -21 132.5t-60.5 109.5t-97.5 74.5t-132 27.5q-72 0 -128 -28.5t-95 -76.5t-59.5 -110t-20.5 -129q0 -68 20 -130.5t58.5 -111t95 -77.5t129.5 -29zM1026 0h-184v150h-4q-56 -82 -139.5 -132.5t-186.5 -50.5
q-110 0 -195.5 42.5t-144 114t-89 165t-30.5 196.5q0 99 31.5 189.5t90.5 160t142.5 111t188.5 41.5q106 0 190.5 -51t141.5 -137h4v159h184v-958zM567 1503l330 -297l-121 -94l-209 197l-207 -197l-118 94zM720 1792l256 -340l-90 -55l-336 305z" />
    <glyph glyph-name="uni1EA5" unicode="&#x1ea5;" horiz-adv-x="1139" 
d="M541 131q75 0 133 28t97.5 75.5t60 110.5t20.5 134q0 70 -21 132.5t-60.5 109.5t-97.5 74.5t-132 27.5q-72 0 -128 -28.5t-95 -76.5t-59.5 -110t-20.5 -129q0 -68 20 -130.5t58.5 -111t95 -77.5t129.5 -29zM1026 0h-184v150h-4q-56 -82 -139.5 -132.5t-186.5 -50.5
q-110 0 -195.5 42.5t-144 114t-89 165t-30.5 196.5q0 99 31.5 189.5t90.5 160t142.5 111t188.5 41.5q106 0 190.5 -51t141.5 -137h4v159h184v-958zM567 1503l330 -297l-121 -94l-209 197l-207 -197l-118 94zM1196 1702l-336 -305l-90 55l256 340z" />
    <glyph glyph-name="uni1EAB" unicode="&#x1eab;" horiz-adv-x="1139" 
d="M541 131q75 0 133 28t97.5 75.5t60 110.5t20.5 134q0 70 -21 132.5t-60.5 109.5t-97.5 74.5t-132 27.5q-72 0 -128 -28.5t-95 -76.5t-59.5 -110t-20.5 -129q0 -68 20 -130.5t58.5 -111t95 -77.5t129.5 -29zM1026 0h-184v150h-4q-56 -82 -139.5 -132.5t-186.5 -50.5
q-110 0 -195.5 42.5t-144 114t-89 165t-30.5 196.5q0 99 31.5 189.5t90.5 160t142.5 111t188.5 41.5q106 0 190.5 -51t141.5 -137h4v159h184v-958zM567 1503l330 -297l-121 -94l-209 197l-207 -197l-118 94zM211 1655l6 11q21 30 43 58t48 49.5t57.5 34.5t72.5 13
q53 0 97.5 -15.5t85.5 -37.5q40 -22 76.5 -38.5t70.5 -16.5q22 0 41.5 8.5t36 22.5t29.5 31.5t24 35.5l96 -80q-18 -36 -42 -67t-54 -53.5t-66.5 -35t-78.5 -12.5q-44 0 -86 17t-84 37l-80 34.5t-80 16.5q-19 0 -37 -8.5t-33 -22t-27 -30.5t-20 -33z" />
    <glyph glyph-name="uni1EA9" unicode="&#x1ea9;" horiz-adv-x="1139" 
d="M541 131q75 0 133 28t97.5 75.5t60 110.5t20.5 134q0 70 -21 132.5t-60.5 109.5t-97.5 74.5t-132 27.5q-72 0 -128 -28.5t-95 -76.5t-59.5 -110t-20.5 -129q0 -68 20 -130.5t58.5 -111t95 -77.5t129.5 -29zM1026 0h-184v150h-4q-56 -82 -139.5 -132.5t-186.5 -50.5
q-110 0 -195.5 42.5t-144 114t-89 165t-30.5 196.5q0 99 31.5 189.5t90.5 160t142.5 111t188.5 41.5q106 0 190.5 -51t141.5 -137h4v159h184v-958zM567 1503l330 -297l-121 -94l-209 197l-207 -197l-118 94zM1000 1402h-143q6 35 21 61t33 47.5t39 39t38 34.5t28 36.5
t12 44.5q0 56 -40.5 85.5t-128.5 36.5v108q84 0 145 -16t100 -46t58 -72.5t19 -93.5q-1 -39 -13 -68.5t-30.5 -52t-41 -41l-42 -33.5t-34.5 -29t-18 -31z" />
    <glyph glyph-name="uni1EAD" unicode="&#x1ead;" horiz-adv-x="1139" 
d="M541 -190q24 0 46 -9.5t38 -26t25.5 -38t9.5 -45.5q0 -25 -9.5 -46.5t-25.5 -37.5t-38 -25.5t-46 -9.5q-25 0 -46.5 9.5t-37.5 25.5t-25.5 37.5t-9.5 46.5q0 24 9.5 45.5t25.5 38t37.5 26t46.5 9.5zM541 131q75 0 133 28t97.5 75.5t60 110.5t20.5 134q0 70 -21 132.5
t-60.5 109.5t-97.5 74.5t-132 27.5q-72 0 -128 -28.5t-95 -76.5t-59.5 -110t-20.5 -129q0 -68 20 -130.5t58.5 -111t95 -77.5t129.5 -29zM1026 0h-184v150h-4q-56 -82 -139.5 -132.5t-186.5 -50.5q-110 0 -195.5 42.5t-144 114t-89 165t-30.5 196.5q0 99 31.5 189.5
t90.5 160t142.5 111t188.5 41.5q106 0 190.5 -51t141.5 -137h4v159h184v-958zM567 1503l330 -297l-121 -94l-209 197l-207 -197l-118 94z" />
    <glyph glyph-name="atilde" unicode="&#xe3;" horiz-adv-x="1139" 
d="M541 131q75 0 133 28t97.5 75.5t60 110.5t20.5 134q0 70 -21 132.5t-60.5 109.5t-97.5 74.5t-132 27.5q-72 0 -128 -28.5t-95 -76.5t-59.5 -110t-20.5 -129q0 -68 20 -130.5t58.5 -111t95 -77.5t129.5 -29zM1026 0h-184v150h-4q-56 -82 -139.5 -132.5t-186.5 -50.5
q-110 0 -195.5 42.5t-144 114t-89 165t-30.5 196.5q0 99 31.5 189.5t90.5 160t142.5 111t188.5 41.5q106 0 190.5 -51t141.5 -137h4v159h184v-958zM178 1255l6 11q21 30 43 58t48 49.5t58 34.5t73 13q52 0 97 -15.5t85 -37.5t76.5 -38.5t70.5 -16.5q22 0 41.5 8.5t36 22.5
t29.5 31.5t24 35.5l97 -80q-18 -36 -42 -67t-54.5 -53.5t-67 -35t-78.5 -12.5q-43 0 -85.5 17t-84.5 37l-80 34.5t-80 16.5q-19 0 -37 -8.5t-33 -22t-27 -30.5t-20 -33z" />
    <glyph glyph-name="adieresis" unicode="&#xe4;" horiz-adv-x="1139" 
d="M541 131q75 0 133 28t97.5 75.5t60 110.5t20.5 134q0 70 -21 132.5t-60.5 109.5t-97.5 74.5t-132 27.5q-72 0 -128 -28.5t-95 -76.5t-59.5 -110t-20.5 -129q0 -68 20 -130.5t58.5 -111t95 -77.5t129.5 -29zM1026 0h-184v150h-4q-56 -82 -139.5 -132.5t-186.5 -50.5
q-110 0 -195.5 42.5t-144 114t-89 165t-30.5 196.5q0 99 31.5 189.5t90.5 160t142.5 111t188.5 41.5q106 0 190.5 -51t141.5 -137h4v159h184v-958zM354 1421q25 0 47.5 -9.5t39.5 -26.5t26.5 -39.5t9.5 -47.5q0 -26 -9.5 -48.5t-26.5 -39.5t-39.5 -26.5t-47.5 -9.5
q-26 0 -48.5 9.5t-39.5 26.5t-27 39.5t-10 48.5q0 25 10 47.5t27 39.5t39.5 26.5t48.5 9.5zM786 1421q25 0 47.5 -9.5t39.5 -26.5t26.5 -39.5t9.5 -47.5q0 -26 -9.5 -48.5t-26.5 -39.5t-39.5 -26.5t-47.5 -9.5q-26 0 -48.5 9.5t-39.5 26.5t-26.5 39.5t-9.5 48.5
q0 25 9.5 47.5t26.5 39.5t39.5 26.5t48.5 9.5z" />
    <glyph glyph-name="abreve" unicode="&#x103;" horiz-adv-x="1139" 
d="M541 131q75 0 133 28t97.5 75.5t60 110.5t20.5 134q0 70 -21 132.5t-60.5 109.5t-97.5 74.5t-132 27.5q-72 0 -128 -28.5t-95 -76.5t-59.5 -110t-20.5 -129q0 -68 20 -130.5t58.5 -111t95 -77.5t129.5 -29zM1026 0h-184v150h-4q-56 -82 -139.5 -132.5t-186.5 -50.5
q-110 0 -195.5 42.5t-144 114t-89 165t-30.5 196.5q0 99 31.5 189.5t90.5 160t142.5 111t188.5 41.5q106 0 190.5 -51t141.5 -137h4v159h184v-958zM338 1417q31 -72 79 -112.5t130 -40.5t130.5 40.5t80.5 112.5h145q-12 -64 -44.5 -117t-80.5 -91.5t-107.5 -59.5t-123.5 -21
t-123 21t-107 59.5t-81.5 91.5t-45.5 117h148z" />
    <glyph glyph-name="uni1EB1" unicode="&#x1eb1;" horiz-adv-x="1139" 
d="M362 1895l256 -340l-90 -55l-336 305zM541 131q75 0 133 28t97.5 75.5t60 110.5t20.5 134q0 70 -21 132.5t-60.5 109.5t-97.5 74.5t-132 27.5q-72 0 -128 -28.5t-95 -76.5t-59.5 -110t-20.5 -129q0 -68 20 -130.5t58.5 -111t95 -77.5t129.5 -29zM1026 0h-184v150h-4
q-56 -82 -139.5 -132.5t-186.5 -50.5q-110 0 -195.5 42.5t-144 114t-89 165t-30.5 196.5q0 99 31.5 189.5t90.5 160t142.5 111t188.5 41.5q106 0 190.5 -51t141.5 -137h4v159h184v-958zM338 1417q31 -72 79 -112.5t130 -40.5t130.5 40.5t80.5 112.5h145q-12 -64 -44.5 -117
t-80.5 -91.5t-107.5 -59.5t-123.5 -21t-123 21t-107 59.5t-81.5 91.5t-45.5 117h148z" />
    <glyph glyph-name="uni1EAF" unicode="&#x1eaf;" horiz-adv-x="1139" 
d="M541 131q75 0 133 28t97.5 75.5t60 110.5t20.5 134q0 70 -21 132.5t-60.5 109.5t-97.5 74.5t-132 27.5q-72 0 -128 -28.5t-95 -76.5t-59.5 -110t-20.5 -129q0 -68 20 -130.5t58.5 -111t95 -77.5t129.5 -29zM1026 0h-184v150h-4q-56 -82 -139.5 -132.5t-186.5 -50.5
q-110 0 -195.5 42.5t-144 114t-89 165t-30.5 196.5q0 99 31.5 189.5t90.5 160t142.5 111t188.5 41.5q106 0 190.5 -51t141.5 -137h4v159h184v-958zM338 1417q31 -72 79 -112.5t130 -40.5t130.5 40.5t80.5 112.5h145q-12 -64 -44.5 -117t-80.5 -91.5t-107.5 -59.5t-123.5 -21
t-123 21t-107 59.5t-81.5 91.5t-45.5 117h148zM896 1724l-336 -305l-90 55l256 340z" />
    <glyph glyph-name="uni1EB5" unicode="&#x1eb5;" horiz-adv-x="1139" 
d="M205 1699l6 11q21 30 43 58t48 49.5t57.5 34.5t72.5 13q53 0 97.5 -15.5t85.5 -37.5q40 -22 76.5 -38.5t70.5 -16.5q22 0 41.5 8.5t36 22.5t29.5 31.5t24 35.5l96 -80q-18 -36 -42 -67t-54 -53.5t-66.5 -35t-78.5 -12.5q-44 0 -86 17t-84 37l-80 34.5t-80 16.5
q-19 0 -37 -8.5t-33 -22t-27 -30.5t-20 -33zM541 131q75 0 133 28t97.5 75.5t60 110.5t20.5 134q0 70 -21 132.5t-60.5 109.5t-97.5 74.5t-132 27.5q-72 0 -128 -28.5t-95 -76.5t-59.5 -110t-20.5 -129q0 -68 20 -130.5t58.5 -111t95 -77.5t129.5 -29zM1026 0h-184v150h-4
q-56 -82 -139.5 -132.5t-186.5 -50.5q-110 0 -195.5 42.5t-144 114t-89 165t-30.5 196.5q0 99 31.5 189.5t90.5 160t142.5 111t188.5 41.5q106 0 190.5 -51t141.5 -137h4v159h184v-958zM338 1417q31 -72 79 -112.5t130 -40.5t130.5 40.5t80.5 112.5h145q-12 -64 -44.5 -117
t-80.5 -91.5t-107.5 -59.5t-123.5 -21t-123 21t-107 59.5t-81.5 91.5t-45.5 117h148z" />
    <glyph glyph-name="uni1EB3" unicode="&#x1eb3;" horiz-adv-x="1139" 
d="M617 1392h-143q6 35 21 61t33 47.5t39 39t38 34.5t28 36.5t12 44.5q0 56 -40.5 85.5t-128.5 36.5v108q84 0 145 -16t100 -46t58 -72.5t19 -93.5q-1 -39 -13 -68.5t-30.5 -52t-41 -41l-42 -33.5t-34.5 -29t-18 -31zM541 131q75 0 133 28t97.5 75.5t60 110.5t20.5 134
q0 70 -21 132.5t-60.5 109.5t-97.5 74.5t-132 27.5q-72 0 -128 -28.5t-95 -76.5t-59.5 -110t-20.5 -129q0 -68 20 -130.5t58.5 -111t95 -77.5t129.5 -29zM1026 0h-184v150h-4q-56 -82 -139.5 -132.5t-186.5 -50.5q-110 0 -195.5 42.5t-144 114t-89 165t-30.5 196.5
q0 99 31.5 189.5t90.5 160t142.5 111t188.5 41.5q106 0 190.5 -51t141.5 -137h4v159h184v-958zM338 1417q31 -72 79 -112.5t130 -40.5t130.5 40.5t80.5 112.5h145q-12 -64 -44.5 -117t-80.5 -91.5t-107.5 -59.5t-123.5 -21t-123 21t-107 59.5t-81.5 91.5t-45.5 117h148z" />
    <glyph glyph-name="uni1EB7" unicode="&#x1eb7;" horiz-adv-x="1139" 
d="M541 -190q24 0 46 -9.5t38 -26t25.5 -38t9.5 -45.5q0 -25 -9.5 -46.5t-25.5 -37.5t-38 -25.5t-46 -9.5q-25 0 -46.5 9.5t-37.5 25.5t-25.5 37.5t-9.5 46.5q0 24 9.5 45.5t25.5 38t37.5 26t46.5 9.5zM541 131q75 0 133 28t97.5 75.5t60 110.5t20.5 134q0 70 -21 132.5
t-60.5 109.5t-97.5 74.5t-132 27.5q-72 0 -128 -28.5t-95 -76.5t-59.5 -110t-20.5 -129q0 -68 20 -130.5t58.5 -111t95 -77.5t129.5 -29zM1026 0h-184v150h-4q-56 -82 -139.5 -132.5t-186.5 -50.5q-110 0 -195.5 42.5t-144 114t-89 165t-30.5 196.5q0 99 31.5 189.5
t90.5 160t142.5 111t188.5 41.5q106 0 190.5 -51t141.5 -137h4v159h184v-958zM338 1417q31 -72 79 -112.5t130 -40.5t130.5 40.5t80.5 112.5h145q-12 -64 -44.5 -117t-80.5 -91.5t-107.5 -59.5t-123.5 -21t-123 21t-107 59.5t-81.5 91.5t-45.5 117h148z" />
    <glyph glyph-name="aring" unicode="&#xe5;" horiz-adv-x="1139" 
d="M541 131q75 0 133 28t97.5 75.5t60 110.5t20.5 134q0 70 -21 132.5t-60.5 109.5t-97.5 74.5t-132 27.5q-72 0 -128 -28.5t-95 -76.5t-59.5 -110t-20.5 -129q0 -68 20 -130.5t58.5 -111t95 -77.5t129.5 -29zM1026 0h-184v150h-4q-56 -82 -139.5 -132.5t-186.5 -50.5
q-110 0 -195.5 42.5t-144 114t-89 165t-30.5 196.5q0 99 31.5 189.5t90.5 160t142.5 111t188.5 41.5q106 0 190.5 -51t141.5 -137h4v159h184v-958zM569 1503q39 0 73.5 -14.5t59.5 -40t39.5 -59.5t14.5 -72q0 -39 -14.5 -72.5t-39.5 -58t-59.5 -39t-73.5 -14.5
q-38 0 -71.5 14.5t-58.5 39t-39.5 58t-14.5 72.5q0 38 14.5 72t39.5 59.5t58.5 40t71.5 14.5zM569 1225q19 0 36.5 7t30.5 19.5t20.5 29.5t7.5 36t-7.5 36t-20.5 30t-30.5 20.5t-36.5 7.5q-18 0 -35 -7.5t-29.5 -20.5t-20 -30t-7.5 -36t7.5 -36t20 -29.5t29.5 -19.5t35 -7z
" />
    <glyph glyph-name="uni1EA3" unicode="&#x1ea3;" horiz-adv-x="1139" 
d="M541 131q75 0 133 28t97.5 75.5t60 110.5t20.5 134q0 70 -21 132.5t-60.5 109.5t-97.5 74.5t-132 27.5q-72 0 -128 -28.5t-95 -76.5t-59.5 -110t-20.5 -129q0 -68 20 -130.5t58.5 -111t95 -77.5t129.5 -29zM1026 0h-184v150h-4q-56 -82 -139.5 -132.5t-186.5 -50.5
q-110 0 -195.5 42.5t-144 114t-89 165t-30.5 196.5q0 99 31.5 189.5t90.5 160t142.5 111t188.5 41.5q106 0 190.5 -51t141.5 -137h4v159h184v-958zM621 1168h-143q6 35 21 61t33 47.5t39 39t38 34.5t28 36.5t12 44.5q0 56 -40.5 85.5t-128.5 36.5v108q84 0 145 -16t100 -46
t58 -72.5t19 -93.5q-1 -39 -13 -68.5t-30.5 -52t-41 -41l-42 -33.5t-34.5 -29t-18 -31z" />
    <glyph glyph-name="uni1EA1" unicode="&#x1ea1;" horiz-adv-x="1139" 
d="M541 131q75 0 133 28t97.5 75.5t60 110.5t20.5 134q0 70 -21 132.5t-60.5 109.5t-97.5 74.5t-132 27.5q-72 0 -128 -28.5t-95 -76.5t-59.5 -110t-20.5 -129q0 -68 20 -130.5t58.5 -111t95 -77.5t129.5 -29zM1026 0h-184v150h-4q-56 -82 -139.5 -132.5t-186.5 -50.5
q-110 0 -195.5 42.5t-144 114t-89 165t-30.5 196.5q0 99 31.5 189.5t90.5 160t142.5 111t188.5 41.5q106 0 190.5 -51t141.5 -137h4v159h184v-958zM541 -190q24 0 46 -9.5t38 -26t25.5 -38t9.5 -45.5q0 -25 -9.5 -46.5t-25.5 -37.5t-38 -25.5t-46 -9.5q-25 0 -46.5 9.5
t-37.5 25.5t-25.5 37.5t-9.5 46.5q0 24 9.5 45.5t25.5 38t37.5 26t46.5 9.5z" />
    <glyph glyph-name="ae" unicode="&#xe6;" horiz-adv-x="1653" 
d="M1442 588q-9 54 -30.5 98t-55 75.5t-78.5 48.5t-100 17q-54 0 -100 -18t-81.5 -50t-59 -76t-32.5 -95h537zM453 446q-36 0 -76.5 -9.5t-74 -29t-55.5 -50t-22 -72.5q0 -43 23.5 -72.5t58.5 -47.5t76 -26t76 -8q36 0 77.5 8.5t77 27.5t59 49.5t23.5 74.5t-25 73.5
t-62 47.5t-79.5 26t-76.5 8zM891 449q1 -62 21.5 -119t58 -101.5t90.5 -71t119 -26.5q53 0 94.5 13t75.5 37t62 58.5t54 77.5l156 -88q-34 -62 -81.5 -111t-104.5 -82.5t-122.5 -51t-135.5 -17.5q-112 0 -206 49t-163 129q-30 -45 -71.5 -78.5t-89.5 -55.5t-101 -33
t-105 -11q-71 0 -140.5 19t-124.5 57.5t-89.5 97.5t-34.5 140q0 78 29.5 138t79 100.5t115.5 61.5t139 21q38 0 77 -4.5t76.5 -15t72.5 -27t65 -41.5v66q0 127 -62.5 187t-189.5 60q-66 0 -132.5 -5t-129.5 -25v164q71 14 143.5 20t144.5 6q45 0 93 -9t92.5 -28.5t82 -49
t60.5 -71.5q63 79 158 118.5t207 39.5q114 0 198.5 -39.5t140 -108.5t82.5 -162t27 -200v-28h-731z" />
    <glyph glyph-name="aeacute" unicode="&#x1fd;" horiz-adv-x="1815" 
d="M1442 588q-9 54 -30.5 98t-55 75.5t-78.5 48.5t-100 17q-54 0 -100 -18t-81.5 -50t-59 -76t-32.5 -95h537zM453 446q-36 0 -76.5 -9.5t-74 -29t-55.5 -50t-22 -72.5q0 -43 23.5 -72.5t58.5 -47.5t76 -26t76 -8q36 0 77.5 8.5t77 27.5t59 49.5t23.5 74.5t-25 73.5
t-62 47.5t-79.5 26t-76.5 8zM891 449q1 -62 21.5 -119t58 -101.5t90.5 -71t119 -26.5q53 0 94.5 13t75.5 37t62 58.5t54 77.5l156 -88q-34 -62 -81.5 -111t-104.5 -82.5t-122.5 -51t-135.5 -17.5q-112 0 -206 49t-163 129q-30 -45 -71.5 -78.5t-89.5 -55.5t-101 -33
t-105 -11q-71 0 -140.5 19t-124.5 57.5t-89.5 97.5t-34.5 140q0 78 29.5 138t79 100.5t115.5 61.5t139 21q38 0 77 -4.5t76.5 -15t72.5 -27t65 -41.5v66q0 127 -62.5 187t-189.5 60q-66 0 -132.5 -5t-129.5 -25v164q71 14 143.5 20t144.5 6q45 0 93 -9t92.5 -28.5t82 -49
t60.5 -71.5q63 79 158 118.5t207 39.5q114 0 198.5 -39.5t140 -108.5t82.5 -162t27 -200v-28h-731zM1434 1663l-336 -305l-90 55l256 340z" />
    <glyph glyph-name="uni01E3" unicode="&#x1e3;" horiz-adv-x="1815" 
d="M1442 588q-9 54 -30.5 98t-55 75.5t-78.5 48.5t-100 17q-54 0 -100 -18t-81.5 -50t-59 -76t-32.5 -95h537zM453 446q-36 0 -76.5 -9.5t-74 -29t-55.5 -50t-22 -72.5q0 -43 23.5 -72.5t58.5 -47.5t76 -26t76 -8q36 0 77.5 8.5t77 27.5t59 49.5t23.5 74.5t-25 73.5
t-62 47.5t-79.5 26t-76.5 8zM891 449q1 -62 21.5 -119t58 -101.5t90.5 -71t119 -26.5q53 0 94.5 13t75.5 37t62 58.5t54 77.5l156 -88q-34 -62 -81.5 -111t-104.5 -82.5t-122.5 -51t-135.5 -17.5q-112 0 -206 49t-163 129q-30 -45 -71.5 -78.5t-89.5 -55.5t-101 -33
t-105 -11q-71 0 -140.5 19t-124.5 57.5t-89.5 97.5t-34.5 140q0 78 29.5 138t79 100.5t115.5 61.5t139 21q38 0 77 -4.5t76.5 -15t72.5 -27t65 -41.5v66q0 127 -62.5 187t-189.5 60q-66 0 -132.5 -5t-129.5 -25v164q71 14 143.5 20t144.5 6q45 0 93 -9t92.5 -28.5t82 -49
t60.5 -71.5q63 79 158 118.5t207 39.5q114 0 198.5 -39.5t140 -108.5t82.5 -162t27 -200v-28h-731zM1465 1421v-139h-740v139h740z" />
    <glyph glyph-name="ccedilla" unicode="&#xe7;" horiz-adv-x="903" 
d="M831 686q-55 63 -122.5 96t-151.5 33q-68 0 -126 -28t-101 -74.5t-67.5 -107t-24.5 -126.5q0 -74 24.5 -136t68.5 -107.5t104.5 -71t133.5 -25.5q81 0 145.5 34t116.5 93v-235q-63 -34 -127 -49t-137 -15q-106 0 -199.5 38.5t-163.5 106t-110.5 159.5t-40.5 200
q0 111 40.5 205.5t111.5 163.5t166.5 108t206.5 39q65 0 131.5 -15.5t121.5 -47.5v-238zM399 -371l-108 56l178 280l145 -59z" />
    <glyph glyph-name="dcroat" unicode="&#x111;" horiz-adv-x="1139" 
d="M1137 1239h-111v-1239h-184v150h-4q-56 -82 -140 -132.5t-186 -50.5q-111 0 -196.5 42.5t-144 114t-88.5 165t-30 196.5q0 99 31.5 189.5t90 160t142 111t187.5 41.5q108 0 192.5 -51t141.5 -137h4v440h-359v102h359v437h184v-437h111v-102zM541 131q75 0 133 28
t97.5 75.5t60 110.5t20.5 134q0 70 -21 132.5t-60.5 109.5t-97.5 74.5t-132 27.5q-72 0 -128 -28.5t-95 -76.5t-59.5 -110t-20.5 -129q0 -68 20 -130.5t58.5 -111t95 -77.5t129.5 -29z" />
    <glyph glyph-name="egrave" unicode="&#xe8;" horiz-adv-x="999" 
d="M238 449q1 -62 21 -119t57.5 -101.5t90.5 -71t119 -26.5q53 0 95 13t75.5 37t62 58.5t54.5 77.5l156 -88q-34 -62 -81.5 -111t-105 -82.5t-123 -51t-135.5 -17.5q-110 0 -197.5 39t-148 107t-93 160t-32.5 198q0 111 29.5 205.5t88 163.5t146 108t203.5 39
q114 0 198.5 -39.5t140 -108.5t83 -162t27.5 -200v-28h-731zM784 588q-8 54 -29.5 98t-55 75.5t-79 48.5t-100.5 17q-54 0 -100 -18t-81.5 -50t-59 -76t-31.5 -95h536zM426 1503l256 -340l-90 -55l-336 305z" />
    <glyph glyph-name="eacute" unicode="&#xe9;" horiz-adv-x="999" 
d="M238 449q1 -62 21 -119t57.5 -101.5t90.5 -71t119 -26.5q53 0 95 13t75.5 37t62 58.5t54.5 77.5l156 -88q-34 -62 -81.5 -111t-105 -82.5t-123 -51t-135.5 -17.5q-110 0 -197.5 39t-148 107t-93 160t-32.5 198q0 111 29.5 205.5t88 163.5t146 108t203.5 39
q114 0 198.5 -39.5t140 -108.5t83 -162t27.5 -200v-28h-731zM784 588q-8 54 -29.5 98t-55 75.5t-79 48.5t-100.5 17q-54 0 -100 -18t-81.5 -50t-59 -76t-31.5 -95h536zM795 1413l-336 -305l-90 55l256 340z" />
    <glyph glyph-name="ecircumflex" unicode="&#xea;" horiz-adv-x="999" 
d="M238 449q1 -62 21 -119t57.5 -101.5t90.5 -71t119 -26.5q53 0 95 13t75.5 37t62 58.5t54.5 77.5l156 -88q-34 -62 -81.5 -111t-105 -82.5t-123 -51t-135.5 -17.5q-110 0 -197.5 39t-148 107t-93 160t-32.5 198q0 111 29.5 205.5t88 163.5t146 108t203.5 39
q114 0 198.5 -39.5t140 -108.5t83 -162t27.5 -200v-28h-731zM784 588q-8 54 -29.5 98t-55 75.5t-79 48.5t-100.5 17q-54 0 -100 -18t-81.5 -50t-59 -76t-31.5 -95h536zM498 1503l329 -297l-120 -94l-209 197l-207 -197l-119 94z" />
    <glyph glyph-name="uni1EC1" unicode="&#x1ec1;" horiz-adv-x="999" 
d="M238 449q1 -62 21 -119t57.5 -101.5t90.5 -71t119 -26.5q53 0 95 13t75.5 37t62 58.5t54.5 77.5l156 -88q-34 -62 -81.5 -111t-105 -82.5t-123 -51t-135.5 -17.5q-110 0 -197.5 39t-148 107t-93 160t-32.5 198q0 111 29.5 205.5t88 163.5t146 108t203.5 39
q114 0 198.5 -39.5t140 -108.5t83 -162t27.5 -200v-28h-731zM784 588q-8 54 -29.5 98t-55 75.5t-79 48.5t-100.5 17q-54 0 -100 -18t-81.5 -50t-59 -76t-31.5 -95h536zM498 1503l329 -297l-120 -94l-209 197l-207 -197l-119 94zM720 1792l256 -340l-90 -55l-336 305z" />
    <glyph glyph-name="uni1EBF" unicode="&#x1ebf;" horiz-adv-x="999" 
d="M238 449q1 -62 21 -119t57.5 -101.5t90.5 -71t119 -26.5q53 0 95 13t75.5 37t62 58.5t54.5 77.5l156 -88q-34 -62 -81.5 -111t-105 -82.5t-123 -51t-135.5 -17.5q-110 0 -197.5 39t-148 107t-93 160t-32.5 198q0 111 29.5 205.5t88 163.5t146 108t203.5 39
q114 0 198.5 -39.5t140 -108.5t83 -162t27.5 -200v-28h-731zM784 588q-8 54 -29.5 98t-55 75.5t-79 48.5t-100.5 17q-54 0 -100 -18t-81.5 -50t-59 -76t-31.5 -95h536zM498 1503l329 -297l-120 -94l-209 197l-207 -197l-119 94zM1196 1702l-336 -305l-90 55l256 340z" />
    <glyph glyph-name="uni1EC5" unicode="&#x1ec5;" horiz-adv-x="999" 
d="M220 1669l6 11q21 30 43 58t48 49.5t57.5 34.5t72.5 13q53 0 97.5 -15.5t85.5 -37.5q40 -22 76.5 -38.5t70.5 -16.5q22 0 41.5 8.5t36 22.5t29.5 31.5t24 35.5l96 -80q-18 -36 -42 -67t-54 -53.5t-66.5 -35t-78.5 -12.5q-44 0 -86 17t-84 37l-80 34.5t-80 16.5
q-19 0 -37 -8.5t-33 -22t-27 -30.5t-20 -33zM238 449q1 -62 21 -119t57.5 -101.5t90.5 -71t119 -26.5q53 0 95 13t75.5 37t62 58.5t54.5 77.5l156 -88q-34 -62 -81.5 -111t-105 -82.5t-123 -51t-135.5 -17.5q-110 0 -197.5 39t-148 107t-93 160t-32.5 198q0 111 29.5 205.5
t88 163.5t146 108t203.5 39q114 0 198.5 -39.5t140 -108.5t83 -162t27.5 -200v-28h-731zM784 588q-8 54 -29.5 98t-55 75.5t-79 48.5t-100.5 17q-54 0 -100 -18t-81.5 -50t-59 -76t-31.5 -95h536zM498 1503l329 -297l-120 -94l-209 197l-207 -197l-119 94z" />
    <glyph glyph-name="uni1EC3" unicode="&#x1ec3;" horiz-adv-x="999" 
d="M238 449q1 -62 21 -119t57.5 -101.5t90.5 -71t119 -26.5q53 0 95 13t75.5 37t62 58.5t54.5 77.5l156 -88q-34 -62 -81.5 -111t-105 -82.5t-123 -51t-135.5 -17.5q-110 0 -197.5 39t-148 107t-93 160t-32.5 198q0 111 29.5 205.5t88 163.5t146 108t203.5 39
q114 0 198.5 -39.5t140 -108.5t83 -162t27.5 -200v-28h-731zM784 588q-8 54 -29.5 98t-55 75.5t-79 48.5t-100.5 17q-54 0 -100 -18t-81.5 -50t-59 -76t-31.5 -95h536zM498 1503l329 -297l-120 -94l-209 197l-207 -197l-119 94zM910 1402h-143q6 35 21 61t33 47.5t39 39
t38 34.5t28 36.5t12 44.5q0 56 -40.5 85.5t-128.5 36.5v108q84 0 145 -16t100 -46t58 -72.5t19 -93.5q-1 -39 -13 -68.5t-30.5 -52t-41 -41l-42 -33.5t-34.5 -29t-18 -31z" />
    <glyph glyph-name="uni1EC7" unicode="&#x1ec7;" horiz-adv-x="999" 
d="M544 -190q24 0 46 -9.5t38 -26t25.5 -38t9.5 -45.5q0 -25 -9.5 -46.5t-25.5 -37.5t-38 -25.5t-46 -9.5q-25 0 -46.5 9.5t-37.5 25.5t-25.5 37.5t-9.5 46.5q0 24 9.5 45.5t25.5 38t37.5 26t46.5 9.5zM238 449q1 -62 21 -119t57.5 -101.5t90.5 -71t119 -26.5q53 0 95 13
t75.5 37t62 58.5t54.5 77.5l156 -88q-34 -62 -81.5 -111t-105 -82.5t-123 -51t-135.5 -17.5q-110 0 -197.5 39t-148 107t-93 160t-32.5 198q0 111 29.5 205.5t88 163.5t146 108t203.5 39q114 0 198.5 -39.5t140 -108.5t83 -162t27.5 -200v-28h-731zM784 588q-8 54 -29.5 98
t-55 75.5t-79 48.5t-100.5 17q-54 0 -100 -18t-81.5 -50t-59 -76t-31.5 -95h536zM498 1503l329 -297l-120 -94l-209 197l-207 -197l-119 94z" />
    <glyph glyph-name="uni1EBD" unicode="&#x1ebd;" horiz-adv-x="999" 
d="M238 449q1 -62 21 -119t57.5 -101.5t90.5 -71t119 -26.5q53 0 95 13t75.5 37t62 58.5t54.5 77.5l156 -88q-34 -62 -81.5 -111t-105 -82.5t-123 -51t-135.5 -17.5q-110 0 -197.5 39t-148 107t-93 160t-32.5 198q0 111 29.5 205.5t88 163.5t146 108t203.5 39
q114 0 198.5 -39.5t140 -108.5t83 -162t27.5 -200v-28h-731zM784 588q-8 54 -29.5 98t-55 75.5t-79 48.5t-100.5 17q-54 0 -100 -18t-81.5 -50t-59 -76t-31.5 -95h536zM111 1256l6 11q21 30 43 58t48 49.5t57.5 34.5t72.5 13q53 0 97.5 -15.5t85.5 -37.5q40 -22 76.5 -38.5
t70.5 -16.5q22 0 41.5 8.5t36 22.5t29.5 31.5t24 35.5l96 -80q-18 -36 -42 -67t-54 -53.5t-66.5 -35t-78.5 -12.5q-44 0 -86 17t-84 37l-80 34.5t-80 16.5q-19 0 -37 -8.5t-33 -22t-27 -30.5t-20 -33z" />
    <glyph glyph-name="edieresis" unicode="&#xeb;" horiz-adv-x="999" 
d="M238 449q1 -62 21 -119t57.5 -101.5t90.5 -71t119 -26.5q53 0 95 13t75.5 37t62 58.5t54.5 77.5l156 -88q-34 -62 -81.5 -111t-105 -82.5t-123 -51t-135.5 -17.5q-110 0 -197.5 39t-148 107t-93 160t-32.5 198q0 111 29.5 205.5t88 163.5t146 108t203.5 39
q114 0 198.5 -39.5t140 -108.5t83 -162t27.5 -200v-28h-731zM784 588q-8 54 -29.5 98t-55 75.5t-79 48.5t-100.5 17q-54 0 -100 -18t-81.5 -50t-59 -76t-31.5 -95h536zM285 1421q25 0 47.5 -9.5t39 -26.5t26.5 -39.5t10 -47.5q0 -26 -10 -48.5t-26.5 -39.5t-39 -26.5
t-47.5 -9.5q-26 0 -49 9.5t-40 26.5t-26.5 39.5t-9.5 48.5q0 25 9.5 47.5t26.5 39.5t40 26.5t49 9.5zM717 1421q25 0 47.5 -9.5t39 -26.5t26.5 -39.5t10 -47.5q0 -26 -10 -48.5t-26.5 -39.5t-39 -26.5t-47.5 -9.5q-26 0 -49 9.5t-40 26.5t-26.5 39.5t-9.5 48.5
q0 25 9.5 47.5t26.5 39.5t40 26.5t49 9.5z" />
    <glyph glyph-name="uni1EBB" unicode="&#x1ebb;" horiz-adv-x="999" 
d="M238 449q1 -62 21 -119t57.5 -101.5t90.5 -71t119 -26.5q53 0 95 13t75.5 37t62 58.5t54.5 77.5l156 -88q-34 -62 -81.5 -111t-105 -82.5t-123 -51t-135.5 -17.5q-110 0 -197.5 39t-148 107t-93 160t-32.5 198q0 111 29.5 205.5t88 163.5t146 108t203.5 39
q114 0 198.5 -39.5t140 -108.5t83 -162t27.5 -200v-28h-731zM784 588q-8 54 -29.5 98t-55 75.5t-79 48.5t-100.5 17q-54 0 -100 -18t-81.5 -50t-59 -76t-31.5 -95h536zM621 1168h-143q6 35 21 61t33 47.5t39 39t38 34.5t28 36.5t12 44.5q0 56 -40.5 85.5t-128.5 36.5v108
q84 0 145 -16t100 -46t58 -72.5t19 -93.5q-1 -39 -13 -68.5t-30.5 -52t-41 -41l-42 -33.5t-34.5 -29t-18 -31z" />
    <glyph glyph-name="uni1EB9" unicode="&#x1eb9;" horiz-adv-x="999" 
d="M238 449q1 -62 21 -119t57.5 -101.5t90.5 -71t119 -26.5q53 0 95 13t75.5 37t62 58.5t54.5 77.5l156 -88q-34 -62 -81.5 -111t-105 -82.5t-123 -51t-135.5 -17.5q-110 0 -197.5 39t-148 107t-93 160t-32.5 198q0 111 29.5 205.5t88 163.5t146 108t203.5 39
q114 0 198.5 -39.5t140 -108.5t83 -162t27.5 -200v-28h-731zM784 588q-8 54 -29.5 98t-55 75.5t-79 48.5t-100.5 17q-54 0 -100 -18t-81.5 -50t-59 -76t-31.5 -95h536zM544 -190q24 0 46 -9.5t38 -26t25.5 -38t9.5 -45.5q0 -25 -9.5 -46.5t-25.5 -37.5t-38 -25.5t-46 -9.5
q-25 0 -46.5 9.5t-37.5 25.5t-25.5 37.5t-9.5 46.5q0 24 9.5 45.5t25.5 38t37.5 26t46.5 9.5z" />
    <glyph glyph-name="igrave" unicode="&#xec;" horiz-adv-x="520" 
d="M499 0h-184v958h184v-958zM303 1503l256 -340l-90 -55l-336 305z" />
    <glyph glyph-name="iacute" unicode="&#xed;" horiz-adv-x="520" 
d="M376 0h-184v958h184v-958zM559 1413l-336 -305l-90 55l256 340z" />
    <glyph glyph-name="icircumflex" unicode="&#xee;" horiz-adv-x="520" 
d="M553 0h-184v958h184v-958zM459 1503l330 -297l-121 -94l-209 197l-207 -197l-119 94z" />
    <glyph glyph-name="idieresis" unicode="&#xef;" horiz-adv-x="520" 
d="M565 0h-184v958h184v-958zM258 1421q25 0 47.5 -9.5t39.5 -26.5t26.5 -39.5t9.5 -47.5q0 -26 -9.5 -48.5t-26.5 -39.5t-39.5 -26.5t-47.5 -9.5q-26 0 -49 9.5t-40 26.5t-26.5 39.5t-9.5 48.5q0 25 9.5 47.5t26.5 39.5t40 26.5t49 9.5zM690 1421q25 0 47.5 -9.5
t39.5 -26.5t26.5 -39.5t9.5 -47.5q0 -26 -9.5 -48.5t-26.5 -39.5t-39.5 -26.5t-47.5 -9.5q-26 0 -48.5 9.5t-39.5 26.5t-27 39.5t-10 48.5q0 25 10 47.5t27 39.5t39.5 26.5t48.5 9.5z" />
    <glyph glyph-name="uni1EC9" unicode="&#x1ec9;" horiz-adv-x="520" 
d="M317 0h-184v958h184v-958zM311 1156h-152q6 42 21.5 73.5t35.5 56.5t41.5 46t40 42t30 43.5t11.5 52.5q0 67 -43 102.5t-137 42.5v130q89 0 153.5 -19.5t106.5 -55.5t62 -86t20 -111q0 -47 -13 -82t-32.5 -62.5t-43 -48.5l-44 -39.5t-36 -36t-19.5 -37.5z" />
    <glyph glyph-name="uni1ECB" unicode="&#x1ecb;" horiz-adv-x="520" 
d="M352 0h-184v958h184v-958zM260 1526q26 0 49 -10t40.5 -27.5t27.5 -41t10 -50.5q0 -26 -10 -49t-27.5 -40t-40.5 -26.5t-49 -9.5t-49.5 9.5t-40.5 26.5t-27 40t-10 49q0 27 10 50.5t27 41t40.5 27.5t49.5 10zM254 -190q24 0 46 -9.5t38 -26t25.5 -38t9.5 -45.5
q0 -25 -9.5 -46.5t-25.5 -37.5t-38 -25.5t-46 -9.5q-25 0 -46.5 9.5t-37.5 25.5t-25.5 37.5t-9.5 46.5q0 24 9.5 45.5t25.5 38t37.5 26t46.5 9.5z" />
    <glyph glyph-name="dotlessi" unicode="&#x131;" horiz-adv-x="520" 
d="M352 0h-184v958h184v-958z" />
    <glyph glyph-name="ij" unicode="&#x133;" horiz-adv-x="520" 
d="M352 0h-184v958h184v-958zM260 1526q26 0 49 -10t40.5 -27.5t27.5 -41t10 -50.5q0 -26 -10 -49t-27.5 -40t-40.5 -26.5t-49 -9.5t-49.5 9.5t-40.5 26.5t-27 40t-10 49q0 27 10 50.5t27 41t40.5 27.5t49.5 10zM803 -549h-184v1507h184v-1507zM711 1526q26 0 49 -10
t40.5 -27.5t27.5 -41t10 -50.5q0 -26 -10 -49t-27.5 -40t-40.5 -26.5t-49 -9.5t-49.5 9.5t-40.5 26.5t-27 40t-10 49q0 27 10 50.5t27 41t40.5 27.5t49.5 10z" />
    <glyph glyph-name="ntilde" unicode="&#xf1;" horiz-adv-x="1071" 
d="M311 829h4q22 39 53.5 68.5t69 49.5t80 30t86.5 10q101 0 167 -32t104.5 -88t53.5 -132t15 -164v-571h-184v549q0 61 -6.5 111.5t-28.5 86.5t-64 56t-112 20q-59 0 -100 -16.5t-67.5 -44.5t-41 -65.5t-21 -80t-7.5 -88t-1 -88.5v-440h-184v958h184v-129zM145 1255l7 11
l42.5 58t47.5 49.5t58 34.5t73 13q52 0 97 -15.5t85 -37.5t76.5 -38.5t70.5 -16.5q22 0 41.5 8.5t36 22.5t30 31.5t24.5 35.5l96 -80q-18 -36 -42 -67t-54.5 -53.5t-67 -35t-78.5 -12.5q-43 0 -85.5 17t-84.5 37l-79.5 34.5t-80.5 16.5q-19 0 -37 -8.5t-33 -22t-27 -30.5
t-19 -33z" />
    <glyph glyph-name="ograve" unicode="&#xf2;" horiz-adv-x="1106" 
d="M553 987q108 0 201.5 -39t162.5 -107.5t108.5 -162t39.5 -201.5t-39.5 -201.5t-108.5 -162t-162.5 -107.5t-201.5 -39t-201.5 39t-162.5 107.5t-108.5 162t-39.5 201.5t39.5 201.5t108.5 162t162.5 107.5t201.5 39zM553 811q-68 0 -128 -26.5t-104.5 -72t-70 -106.5
t-25.5 -129t25.5 -128.5t70 -106t104.5 -72.5t128 -27t128 27t104.5 72.5t70 106t25.5 128.5t-25.5 129t-70 106.5t-104.5 72t-128 26.5zM428 1503l256 -340l-90 -55l-336 305z" />
    <glyph glyph-name="oacute" unicode="&#xf3;" horiz-adv-x="1106" 
d="M553 987q108 0 201.5 -39t162.5 -107.5t108.5 -162t39.5 -201.5t-39.5 -201.5t-108.5 -162t-162.5 -107.5t-201.5 -39t-201.5 39t-162.5 107.5t-108.5 162t-39.5 201.5t39.5 201.5t108.5 162t162.5 107.5t201.5 39zM553 811q-68 0 -128 -26.5t-104.5 -72t-70 -106.5
t-25.5 -129t25.5 -128.5t70 -106t104.5 -72.5t128 -27t128 27t104.5 72.5t70 106t25.5 128.5t-25.5 129t-70 106.5t-104.5 72t-128 26.5zM848 1413l-336 -305l-90 55l256 340z" />
    <glyph glyph-name="ocircumflex" unicode="&#xf4;" horiz-adv-x="1106" 
d="M553 987q108 0 201.5 -39t162.5 -107.5t108.5 -162t39.5 -201.5t-39.5 -201.5t-108.5 -162t-162.5 -107.5t-201.5 -39t-201.5 39t-162.5 107.5t-108.5 162t-39.5 201.5t39.5 201.5t108.5 162t162.5 107.5t201.5 39zM553 811q-68 0 -128 -26.5t-104.5 -72t-70 -106.5
t-25.5 -129t25.5 -128.5t70 -106t104.5 -72.5t128 -27t128 27t104.5 72.5t70 106t25.5 128.5t-25.5 129t-70 106.5t-104.5 72t-128 26.5zM551 1503l330 -297l-121 -94l-209 197l-207 -197l-119 94z" />
    <glyph glyph-name="uni1ED3" unicode="&#x1ed3;" horiz-adv-x="1106" 
d="M553 987q108 0 201.5 -39t162.5 -107.5t108.5 -162t39.5 -201.5t-39.5 -201.5t-108.5 -162t-162.5 -107.5t-201.5 -39t-201.5 39t-162.5 107.5t-108.5 162t-39.5 201.5t39.5 201.5t108.5 162t162.5 107.5t201.5 39zM553 811q-68 0 -128 -26.5t-104.5 -72t-70 -106.5
t-25.5 -129t25.5 -128.5t70 -106t104.5 -72.5t128 -27t128 27t104.5 72.5t70 106t25.5 128.5t-25.5 129t-70 106.5t-104.5 72t-128 26.5zM551 1503l330 -297l-121 -94l-209 197l-207 -197l-119 94zM720 1792l256 -340l-90 -55l-336 305z" />
    <glyph glyph-name="uni1ED1" unicode="&#x1ed1;" horiz-adv-x="1106" 
d="M553 987q108 0 201.5 -39t162.5 -107.5t108.5 -162t39.5 -201.5t-39.5 -201.5t-108.5 -162t-162.5 -107.5t-201.5 -39t-201.5 39t-162.5 107.5t-108.5 162t-39.5 201.5t39.5 201.5t108.5 162t162.5 107.5t201.5 39zM553 811q-68 0 -128 -26.5t-104.5 -72t-70 -106.5
t-25.5 -129t25.5 -128.5t70 -106t104.5 -72.5t128 -27t128 27t104.5 72.5t70 106t25.5 128.5t-25.5 129t-70 106.5t-104.5 72t-128 26.5zM551 1503l330 -297l-121 -94l-209 197l-207 -197l-119 94zM1196 1702l-336 -305l-90 55l256 340z" />
    <glyph glyph-name="uni1ED7" unicode="&#x1ed7;" horiz-adv-x="1106" 
d="M553 987q108 0 201.5 -39t162.5 -107.5t108.5 -162t39.5 -201.5t-39.5 -201.5t-108.5 -162t-162.5 -107.5t-201.5 -39t-201.5 39t-162.5 107.5t-108.5 162t-39.5 201.5t39.5 201.5t108.5 162t162.5 107.5t201.5 39zM553 811q-68 0 -128 -26.5t-104.5 -72t-70 -106.5
t-25.5 -129t25.5 -128.5t70 -106t104.5 -72.5t128 -27t128 27t104.5 72.5t70 106t25.5 128.5t-25.5 129t-70 106.5t-104.5 72t-128 26.5zM551 1503l330 -297l-121 -94l-209 197l-207 -197l-119 94zM211 1655l6 11q21 30 43 58t48 49.5t57.5 34.5t72.5 13q53 0 97.5 -15.5
t85.5 -37.5q40 -22 76.5 -38.5t70.5 -16.5q22 0 41.5 8.5t36 22.5t29.5 31.5t24 35.5l96 -80q-18 -36 -42 -67t-54 -53.5t-66.5 -35t-78.5 -12.5q-44 0 -86 17t-84 37l-80 34.5t-80 16.5q-19 0 -37 -8.5t-33 -22t-27 -30.5t-20 -33z" />
    <glyph glyph-name="uni1ED5" unicode="&#x1ed5;" horiz-adv-x="1106" 
d="M553 987q108 0 201.5 -39t162.5 -107.5t108.5 -162t39.5 -201.5t-39.5 -201.5t-108.5 -162t-162.5 -107.5t-201.5 -39t-201.5 39t-162.5 107.5t-108.5 162t-39.5 201.5t39.5 201.5t108.5 162t162.5 107.5t201.5 39zM553 811q-68 0 -128 -26.5t-104.5 -72t-70 -106.5
t-25.5 -129t25.5 -128.5t70 -106t104.5 -72.5t128 -27t128 27t104.5 72.5t70 106t25.5 128.5t-25.5 129t-70 106.5t-104.5 72t-128 26.5zM551 1503l330 -297l-121 -94l-209 197l-207 -197l-119 94zM930 1402h-143q6 35 21 61t33 47.5t39 39t38 34.5t28 36.5t12 44.5
q0 56 -40.5 85.5t-128.5 36.5v108q84 0 145 -16t100 -46t58 -72.5t19 -93.5q-1 -39 -13 -68.5t-30.5 -52t-41 -41l-42 -33.5t-34.5 -29t-18 -31z" />
    <glyph glyph-name="uni1ED9" unicode="&#x1ed9;" horiz-adv-x="1106" 
d="M553 987q108 0 201.5 -39t162.5 -107.5t108.5 -162t39.5 -201.5t-39.5 -201.5t-108.5 -162t-162.5 -107.5t-201.5 -39t-201.5 39t-162.5 107.5t-108.5 162t-39.5 201.5t39.5 201.5t108.5 162t162.5 107.5t201.5 39zM553 811q-68 0 -128 -26.5t-104.5 -72t-70 -106.5
t-25.5 -129t25.5 -128.5t70 -106t104.5 -72.5t128 -27t128 27t104.5 72.5t70 106t25.5 128.5t-25.5 129t-70 106.5t-104.5 72t-128 26.5zM551 1503l330 -297l-121 -94l-209 197l-207 -197l-119 94zM546 -190q24 0 46 -9.5t38 -26t25.5 -38t9.5 -45.5q0 -25 -9.5 -46.5
t-25.5 -37.5t-38 -25.5t-46 -9.5q-25 0 -46.5 9.5t-37.5 25.5t-25.5 37.5t-9.5 46.5q0 24 9.5 45.5t25.5 38t37.5 26t46.5 9.5z" />
    <glyph glyph-name="otilde" unicode="&#xf5;" horiz-adv-x="1106" 
d="M553 987q108 0 201.5 -39t162.5 -107.5t108.5 -162t39.5 -201.5t-39.5 -201.5t-108.5 -162t-162.5 -107.5t-201.5 -39t-201.5 39t-162.5 107.5t-108.5 162t-39.5 201.5t39.5 201.5t108.5 162t162.5 107.5t201.5 39zM553 811q-68 0 -128 -26.5t-104.5 -72t-70 -106.5
t-25.5 -129t25.5 -128.5t70 -106t104.5 -72.5t128 -27t128 27t104.5 72.5t70 106t25.5 128.5t-25.5 129t-70 106.5t-104.5 72t-128 26.5zM162 1255l6 11l42.5 58t48 49.5t58 34.5t72.5 13q53 0 97.5 -15.5t84.5 -37.5q41 -22 77.5 -38.5t70.5 -16.5q22 0 41 8.5t35.5 22.5
t30 31.5t24.5 35.5l96 -80q-18 -36 -42 -67t-54 -53.5t-66.5 -35t-78.5 -12.5q-44 0 -86 17t-84 37l-80.5 34.5t-79.5 16.5q-19 0 -37 -8.5t-33 -22t-27 -30.5t-20 -33z" />
    <glyph glyph-name="odieresis" unicode="&#xf6;" horiz-adv-x="1106" 
d="M553 987q108 0 201.5 -39t162.5 -107.5t108.5 -162t39.5 -201.5t-39.5 -201.5t-108.5 -162t-162.5 -107.5t-201.5 -39t-201.5 39t-162.5 107.5t-108.5 162t-39.5 201.5t39.5 201.5t108.5 162t162.5 107.5t201.5 39zM553 811q-68 0 -128 -26.5t-104.5 -72t-70 -106.5
t-25.5 -129t25.5 -128.5t70 -106t104.5 -72.5t128 -27t128 27t104.5 72.5t70 106t25.5 128.5t-25.5 129t-70 106.5t-104.5 72t-128 26.5zM338 1421q25 0 47.5 -9.5t39.5 -26.5t26.5 -39.5t9.5 -47.5q0 -26 -9.5 -48.5t-26.5 -39.5t-39.5 -26.5t-47.5 -9.5q-26 0 -49 9.5
t-40 26.5t-26.5 39.5t-9.5 48.5q0 25 9.5 47.5t26.5 39.5t40 26.5t49 9.5zM770 1421q25 0 47.5 -9.5t39.5 -26.5t26.5 -39.5t9.5 -47.5q0 -26 -9.5 -48.5t-26.5 -39.5t-39.5 -26.5t-47.5 -9.5q-26 0 -49 9.5t-40 26.5t-26.5 39.5t-9.5 48.5q0 25 9.5 47.5t26.5 39.5t40 26.5
t49 9.5z" />
    <glyph glyph-name="uni1ECF" unicode="&#x1ecf;" horiz-adv-x="1106" 
d="M553 987q108 0 201.5 -39t162.5 -107.5t108.5 -162t39.5 -201.5t-39.5 -201.5t-108.5 -162t-162.5 -107.5t-201.5 -39t-201.5 39t-162.5 107.5t-108.5 162t-39.5 201.5t39.5 201.5t108.5 162t162.5 107.5t201.5 39zM553 811q-68 0 -128 -26.5t-104.5 -72t-70 -106.5
t-25.5 -129t25.5 -128.5t70 -106t104.5 -72.5t128 -27t128 27t104.5 72.5t70 106t25.5 128.5t-25.5 129t-70 106.5t-104.5 72t-128 26.5zM621 1168h-143q6 35 21 61t33 47.5t39 39t38 34.5t28 36.5t12 44.5q0 56 -40.5 85.5t-128.5 36.5v108q84 0 145 -16t100 -46t58 -72.5
t19 -93.5q-1 -39 -13 -68.5t-30.5 -52t-41 -41l-42 -33.5t-34.5 -29t-18 -31z" />
    <glyph glyph-name="uni1ECD" unicode="&#x1ecd;" horiz-adv-x="1106" 
d="M553 987q108 0 201.5 -39t162.5 -107.5t108.5 -162t39.5 -201.5t-39.5 -201.5t-108.5 -162t-162.5 -107.5t-201.5 -39t-201.5 39t-162.5 107.5t-108.5 162t-39.5 201.5t39.5 201.5t108.5 162t162.5 107.5t201.5 39zM553 811q-68 0 -128 -26.5t-104.5 -72t-70 -106.5
t-25.5 -129t25.5 -128.5t70 -106t104.5 -72.5t128 -27t128 27t104.5 72.5t70 106t25.5 128.5t-25.5 129t-70 106.5t-104.5 72t-128 26.5zM546 -190q24 0 46 -9.5t38 -26t25.5 -38t9.5 -45.5q0 -25 -9.5 -46.5t-25.5 -37.5t-38 -25.5t-46 -9.5q-25 0 -46.5 9.5t-37.5 25.5
t-25.5 37.5t-9.5 46.5q0 24 9.5 45.5t25.5 38t37.5 26t46.5 9.5z" />
    <glyph glyph-name="ohorn" unicode="&#x1a1;" horiz-adv-x="1210" 
d="M1092 887q0 20 -4.5 39.5t-12.5 38.5h127q5 -19 7.5 -38.5t2.5 -39.5q0 -88 -46 -157t-122 -109q11 -35 16 -71t5 -73q0 -108 -39.5 -201.5t-108.5 -162t-162.5 -107.5t-201.5 -39t-201.5 39t-162.5 107.5t-108.5 162t-39.5 201.5t39.5 201.5t108.5 162t162.5 107.5
t201.5 39q73 0 140 -18.5t125 -53t104.5 -83t78.5 -107.5q42 28 66.5 70t24.5 92zM553 811q-68 0 -128 -26.5t-104.5 -72t-70 -106.5t-25.5 -129t25.5 -128.5t70 -106t104.5 -72.5t128 -27t128 27t104.5 72.5t70 106t25.5 128.5t-25.5 129t-70 106.5t-104.5 72t-128 26.5z
" />
    <glyph glyph-name="uni1EDD" unicode="&#x1edd;" horiz-adv-x="1210" 
d="M399 1503l256 -340l-90 -55l-336 305zM1092 887q0 20 -4.5 39.5t-12.5 38.5h127q5 -19 7.5 -38.5t2.5 -39.5q0 -88 -46 -157t-122 -109q11 -35 16 -71t5 -73q0 -108 -39.5 -201.5t-108.5 -162t-162.5 -107.5t-201.5 -39t-201.5 39t-162.5 107.5t-108.5 162t-39.5 201.5
t39.5 201.5t108.5 162t162.5 107.5t201.5 39q73 0 140 -18.5t125 -53t104.5 -83t78.5 -107.5q42 28 66.5 70t24.5 92zM553 811q-68 0 -128 -26.5t-104.5 -72t-70 -106.5t-25.5 -129t25.5 -128.5t70 -106t104.5 -72.5t128 -27t128 27t104.5 72.5t70 106t25.5 128.5t-25.5 129
t-70 106.5t-104.5 72t-128 26.5z" />
    <glyph glyph-name="uni1EDB" unicode="&#x1edb;" horiz-adv-x="1210" 
d="M819 1413l-336 -305l-90 55l256 340zM1092 887q0 20 -4.5 39.5t-12.5 38.5h127q5 -19 7.5 -38.5t2.5 -39.5q0 -88 -46 -157t-122 -109q11 -35 16 -71t5 -73q0 -108 -39.5 -201.5t-108.5 -162t-162.5 -107.5t-201.5 -39t-201.5 39t-162.5 107.5t-108.5 162t-39.5 201.5
t39.5 201.5t108.5 162t162.5 107.5t201.5 39q73 0 140 -18.5t125 -53t104.5 -83t78.5 -107.5q42 28 66.5 70t24.5 92zM553 811q-68 0 -128 -26.5t-104.5 -72t-70 -106.5t-25.5 -129t25.5 -128.5t70 -106t104.5 -72.5t128 -27t128 27t104.5 72.5t70 106t25.5 128.5t-25.5 129
t-70 106.5t-104.5 72t-128 26.5z" />
    <glyph glyph-name="uni1EE1" unicode="&#x1ee1;" horiz-adv-x="1210" 
d="M1092 887q0 20 -4.5 39.5t-12.5 38.5h127q5 -19 7.5 -38.5t2.5 -39.5q0 -88 -46 -157t-122 -109q11 -35 16 -71t5 -73q0 -108 -39.5 -201.5t-108.5 -162t-162.5 -107.5t-201.5 -39t-201.5 39t-162.5 107.5t-108.5 162t-39.5 201.5t39.5 201.5t108.5 162t162.5 107.5
t201.5 39q73 0 140 -18.5t125 -53t104.5 -83t78.5 -107.5q42 28 66.5 70t24.5 92zM553 811q-68 0 -128 -26.5t-104.5 -72t-70 -106.5t-25.5 -129t25.5 -128.5t70 -106t104.5 -72.5t128 -27t128 27t104.5 72.5t70 106t25.5 128.5t-25.5 129t-70 106.5t-104.5 72t-128 26.5z
M172 1256l6 11q21 30 43 58t48 49.5t57.5 34.5t72.5 13q53 0 97.5 -15.5t85.5 -37.5q40 -22 76.5 -38.5t70.5 -16.5q22 0 41.5 8.5t36 22.5t29.5 31.5t24 35.5l96 -80q-18 -36 -42 -67t-54 -53.5t-66.5 -35t-78.5 -12.5q-44 0 -86 17t-84 37l-80 34.5t-80 16.5
q-19 0 -37 -8.5t-33 -22t-27 -30.5t-20 -33z" />
    <glyph glyph-name="uni1EDF" unicode="&#x1edf;" horiz-adv-x="1210" 
d="M1092 887q0 20 -4.5 39.5t-12.5 38.5h127q5 -19 7.5 -38.5t2.5 -39.5q0 -88 -46 -157t-122 -109q11 -35 16 -71t5 -73q0 -108 -39.5 -201.5t-108.5 -162t-162.5 -107.5t-201.5 -39t-201.5 39t-162.5 107.5t-108.5 162t-39.5 201.5t39.5 201.5t108.5 162t162.5 107.5
t201.5 39q73 0 140 -18.5t125 -53t104.5 -83t78.5 -107.5q42 28 66.5 70t24.5 92zM553 811q-68 0 -128 -26.5t-104.5 -72t-70 -106.5t-25.5 -129t25.5 -128.5t70 -106t104.5 -72.5t128 -27t128 27t104.5 72.5t70 106t25.5 128.5t-25.5 129t-70 106.5t-104.5 72t-128 26.5z
M621 1168h-143q6 35 21 61t33 47.5t39 39t38 34.5t28 36.5t12 44.5q0 56 -40.5 85.5t-128.5 36.5v108q84 0 145 -16t100 -46t58 -72.5t19 -93.5q-1 -39 -13 -68.5t-30.5 -52t-41 -41l-42 -33.5t-34.5 -29t-18 -31z" />
    <glyph glyph-name="uni1EE3" unicode="&#x1ee3;" horiz-adv-x="1210" 
d="M1092 887q0 20 -4.5 39.5t-12.5 38.5h127q5 -19 7.5 -38.5t2.5 -39.5q0 -88 -46 -157t-122 -109q11 -35 16 -71t5 -73q0 -108 -39.5 -201.5t-108.5 -162t-162.5 -107.5t-201.5 -39t-201.5 39t-162.5 107.5t-108.5 162t-39.5 201.5t39.5 201.5t108.5 162t162.5 107.5
t201.5 39q73 0 140 -18.5t125 -53t104.5 -83t78.5 -107.5q42 28 66.5 70t24.5 92zM553 811q-68 0 -128 -26.5t-104.5 -72t-70 -106.5t-25.5 -129t25.5 -128.5t70 -106t104.5 -72.5t128 -27t128 27t104.5 72.5t70 106t25.5 128.5t-25.5 129t-70 106.5t-104.5 72t-128 26.5z
M546 -190q24 0 46 -9.5t38 -26t25.5 -38t9.5 -45.5q0 -25 -9.5 -46.5t-25.5 -37.5t-38 -25.5t-46 -9.5q-25 0 -46.5 9.5t-37.5 25.5t-25.5 37.5t-9.5 46.5q0 24 9.5 45.5t25.5 38t37.5 26t46.5 9.5z" />
    <glyph glyph-name="oslash" unicode="&#xf8;" horiz-adv-x="1106" 
d="M741 750q-38 27 -86 44t-102 17q-68 0 -128 -26.5t-104.5 -72t-70 -106.5t-25.5 -129q0 -52 16 -100t44 -88zM377 197q38 -26 82 -40t94 -14q68 0 128 27t104.5 72.5t70 106t25.5 128.5q0 50 -13.5 94.5t-38.5 81.5zM154 156q-53 63 -83 145t-30 176q0 108 39.5 201.5
t108.5 162t162.5 107.5t201.5 39q91 0 171 -27.5t146 -78.5l125 125l95 -88l-127 -130q48 -63 75 -142t27 -169q0 -108 -39.5 -201.5t-108.5 -162t-162.5 -107.5t-201.5 -39q-88 0 -165.5 26t-139.5 73l-142 -144l-90 96z" />
    <glyph glyph-name="oe" unicode="&#x153;" horiz-adv-x="1837" 
d="M1620 588q-9 54 -30.5 98t-55 75.5t-78.5 48.5t-100 17q-54 0 -100 -18t-81.5 -50t-59 -76t-32.5 -95h537zM553 811q-68 0 -128 -26.5t-104.5 -72t-70 -106.5t-25.5 -129t25.5 -128.5t70 -106t104.5 -72.5t128 -27t128 27t104.5 72.5t70 106t25.5 128.5t-25.5 129
t-70 106.5t-104.5 72t-128 26.5zM1075 449q1 -62 21.5 -119t58 -101.5t90.5 -71t119 -26.5q53 0 94.5 13t75.5 37t62.5 58.5t54.5 77.5l155 -88q-34 -62 -81.5 -111t-104.5 -82.5t-122.5 -51t-135.5 -17.5q-60 -1 -118.5 13t-111 41t-96 66.5t-73.5 90.5q-35 -51 -81 -91
t-99.5 -67t-112 -40.5t-117.5 -12.5q-108 0 -201.5 39t-162.5 107.5t-108.5 162t-39.5 201.5t39.5 201.5t108.5 162t162.5 107.5t201.5 39q58 -2 116.5 -17.5t112.5 -42.5t100.5 -66t80.5 -89q66 105 163.5 157.5t231.5 57.5q114 0 198.5 -39.5t140 -108.5t82.5 -162
t27 -200v-28h-731z" />
    <glyph glyph-name="germandbls" unicode="&#xdf;" horiz-adv-x="1188" 
d="M578 139q80 0 152.5 31t127 84t87 123.5t32.5 150.5q0 89 -31 157.5t-85 116t-126.5 74t-156.5 31.5v180q59 -1 109.5 21t87.5 60.5t58 90.5t21 111q0 57 -21 104.5t-57.5 82t-85 54t-102.5 19.5q-68 0 -114 -22.5t-75 -60t-44.5 -86.5t-22.5 -103t-7.5 -109t-0.5 -104
v-1145h-185v791h-82v172h82v303q0 117 23.5 215t76.5 169.5t140 111.5t215 40q94 0 175.5 -33t141 -91.5t93.5 -139.5t34 -178q0 -227 -196 -342q76 -25 135 -75.5t100 -116.5t62.5 -143t21.5 -155q0 -80 -21.5 -154t-60 -137.5t-92 -115t-118.5 -87t-138.5 -53.5
t-152.5 -14v172z" />
    <glyph glyph-name="ugrave" unicode="&#xf9;" horiz-adv-x="1049" 
d="M303 958v-530q0 -58 9 -110.5t33.5 -92t67.5 -63t111 -23.5q69 0 112 23.5t67 63t33 92t9 110.5v530h185v-550q0 -99 -23.5 -180t-73 -139t-126.5 -90t-183 -32t-182.5 32t-126 90t-73 139t-23.5 180v550h184zM399 1503l256 -340l-90 -55l-336 305z" />
    <glyph glyph-name="uacute" unicode="&#xfa;" horiz-adv-x="1049" 
d="M303 958v-530q0 -58 9 -110.5t33.5 -92t67.5 -63t111 -23.5q69 0 112 23.5t67 63t33 92t9 110.5v530h185v-550q0 -99 -23.5 -180t-73 -139t-126.5 -90t-183 -32t-182.5 32t-126 90t-73 139t-23.5 180v550h184zM819 1413l-336 -305l-90 55l256 340z" />
    <glyph glyph-name="ucircumflex" unicode="&#xfb;" horiz-adv-x="1049" 
d="M303 958v-530q0 -58 9 -110.5t33.5 -92t67.5 -63t111 -23.5q69 0 112 23.5t67 63t33 92t9 110.5v530h185v-550q0 -99 -23.5 -180t-73 -139t-126.5 -90t-183 -32t-182.5 32t-126 90t-73 139t-23.5 180v550h184zM522 1503l330 -297l-121 -94l-209 197l-207 -197l-118 94z
" />
    <glyph glyph-name="utilde" unicode="&#x169;" horiz-adv-x="1049" 
d="M303 958v-530q0 -58 9 -110.5t33.5 -92t67.5 -63t111 -23.5q69 0 112 23.5t67 63t33 92t9 110.5v530h185v-550q0 -99 -23.5 -180t-73 -139t-126.5 -90t-183 -32t-182.5 32t-126 90t-73 139t-23.5 180v550h184zM94 1256l6 11q21 30 43 58t48 49.5t57.5 34.5t72.5 13
q53 0 97.5 -15.5t85.5 -37.5q40 -22 76.5 -38.5t70.5 -16.5q22 0 41.5 8.5t36 22.5t29.5 31.5t24 35.5l96 -80q-18 -36 -42 -67t-54 -53.5t-66.5 -35t-78.5 -12.5q-44 0 -86 17t-84 37l-80 34.5t-80 16.5q-19 0 -37 -8.5t-33 -22t-27 -30.5t-20 -33z" />
    <glyph glyph-name="uni1EE7" unicode="&#x1ee7;" horiz-adv-x="1049" 
d="M303 958v-530q0 -58 9 -110.5t33.5 -92t67.5 -63t111 -23.5q69 0 112 23.5t67 63t33 92t9 110.5v530h185v-550q0 -99 -23.5 -180t-73 -139t-126.5 -90t-183 -32t-182.5 32t-126 90t-73 139t-23.5 180v550h184zM621 1168h-143q6 35 21 61t33 47.5t39 39t38 34.5t28 36.5
t12 44.5q0 56 -40.5 85.5t-128.5 36.5v108q84 0 145 -16t100 -46t58 -72.5t19 -93.5q-1 -39 -13 -68.5t-30.5 -52t-41 -41l-42 -33.5t-34.5 -29t-18 -31z" />
    <glyph glyph-name="uni1EE5" unicode="&#x1ee5;" horiz-adv-x="1049" 
d="M303 958v-530q0 -58 9 -110.5t33.5 -92t67.5 -63t111 -23.5q69 0 112 23.5t67 63t33 92t9 110.5v530h185v-550q0 -99 -23.5 -180t-73 -139t-126.5 -90t-183 -32t-182.5 32t-126 90t-73 139t-23.5 180v550h184zM554 -190q24 0 46 -9.5t38 -26t25.5 -38t9.5 -45.5
q0 -25 -9.5 -46.5t-25.5 -37.5t-38 -25.5t-46 -9.5q-25 0 -46.5 9.5t-37.5 25.5t-25.5 37.5t-9.5 46.5q0 24 9.5 45.5t25.5 38t37.5 26t46.5 9.5z" />
    <glyph glyph-name="uhorn" unicode="&#x1b0;" horiz-adv-x="1194" 
d="M1071 887q0 38 -16 78h127q5 -19 7.5 -38.5t2.5 -39.5q0 -56 -20 -105.5t-55 -89t-83 -66.5t-104 -38v-180q0 -99 -23.5 -180t-73 -139t-126.5 -90t-183 -32t-182.5 32t-126 90t-73 139t-23.5 180v550h184v-530q0 -58 9 -110.5t33.5 -92t67.5 -63t111 -23.5
q69 0 112 23.5t67 63t33 92t9 110.5v530h185v-260q31 11 56.5 30t44.5 44t29.5 54t10.5 61z" />
    <glyph glyph-name="uni1EEB" unicode="&#x1eeb;" horiz-adv-x="1194" 
d="M399 1503l256 -340l-90 -55l-336 305zM1071 887q0 38 -16 78h127q5 -19 7.5 -38.5t2.5 -39.5q0 -56 -20 -105.5t-55 -89t-83 -66.5t-104 -38v-180q0 -99 -23.5 -180t-73 -139t-126.5 -90t-183 -32t-182.5 32t-126 90t-73 139t-23.5 180v550h184v-530q0 -58 9 -110.5
t33.5 -92t67.5 -63t111 -23.5q69 0 112 23.5t67 63t33 92t9 110.5v530h185v-260q31 11 56.5 30t44.5 44t29.5 54t10.5 61z" />
    <glyph glyph-name="uni1EE9" unicode="&#x1ee9;" horiz-adv-x="1194" 
d="M819 1413l-336 -305l-90 55l256 340zM1071 887q0 38 -16 78h127q5 -19 7.5 -38.5t2.5 -39.5q0 -56 -20 -105.5t-55 -89t-83 -66.5t-104 -38v-180q0 -99 -23.5 -180t-73 -139t-126.5 -90t-183 -32t-182.5 32t-126 90t-73 139t-23.5 180v550h184v-530q0 -58 9 -110.5
t33.5 -92t67.5 -63t111 -23.5q69 0 112 23.5t67 63t33 92t9 110.5v530h185v-260q31 11 56.5 30t44.5 44t29.5 54t10.5 61z" />
    <glyph glyph-name="uni1EEF" unicode="&#x1eef;" horiz-adv-x="1194" 
d="M1071 887q0 38 -16 78h127q5 -19 7.5 -38.5t2.5 -39.5q0 -56 -20 -105.5t-55 -89t-83 -66.5t-104 -38v-180q0 -99 -23.5 -180t-73 -139t-126.5 -90t-183 -32t-182.5 32t-126 90t-73 139t-23.5 180v550h184v-530q0 -58 9 -110.5t33.5 -92t67.5 -63t111 -23.5
q69 0 112 23.5t67 63t33 92t9 110.5v530h185v-260q31 11 56.5 30t44.5 44t29.5 54t10.5 61zM124 1256l6 11q21 30 43 58t48 49.5t57.5 34.5t72.5 13q53 0 97.5 -15.5t85.5 -37.5q40 -22 76.5 -38.5t70.5 -16.5q22 0 41.5 8.5t36 22.5t29.5 31.5t24 35.5l96 -80
q-18 -36 -42 -67t-54 -53.5t-66.5 -35t-78.5 -12.5q-44 0 -86 17t-84 37l-80 34.5t-80 16.5q-19 0 -37 -8.5t-33 -22t-27 -30.5t-20 -33z" />
    <glyph glyph-name="uni1EED" unicode="&#x1eed;" horiz-adv-x="1194" 
d="M1071 887q0 38 -16 78h127q5 -19 7.5 -38.5t2.5 -39.5q0 -56 -20 -105.5t-55 -89t-83 -66.5t-104 -38v-180q0 -99 -23.5 -180t-73 -139t-126.5 -90t-183 -32t-182.5 32t-126 90t-73 139t-23.5 180v550h184v-530q0 -58 9 -110.5t33.5 -92t67.5 -63t111 -23.5
q69 0 112 23.5t67 63t33 92t9 110.5v530h185v-260q31 11 56.5 30t44.5 44t29.5 54t10.5 61zM661 1315h-143q6 35 21 61t33 47.5t39 39t38 34.5t28 36.5t12 44.5q0 56 -40.5 85.5t-128.5 36.5v108q84 0 145 -16t100 -46t58 -72.5t19 -93.5q-1 -39 -13 -68.5t-30.5 -52
t-41 -41l-42 -33.5t-34.5 -29t-18 -31z" />
    <glyph glyph-name="uni1EF1" unicode="&#x1ef1;" horiz-adv-x="1194" 
d="M1071 887q0 38 -16 78h127q5 -19 7.5 -38.5t2.5 -39.5q0 -56 -20 -105.5t-55 -89t-83 -66.5t-104 -38v-180q0 -99 -23.5 -180t-73 -139t-126.5 -90t-183 -32t-182.5 32t-126 90t-73 139t-23.5 180v550h184v-530q0 -58 9 -110.5t33.5 -92t67.5 -63t111 -23.5
q69 0 112 23.5t67 63t33 92t9 110.5v530h185v-260q31 11 56.5 30t44.5 44t29.5 54t10.5 61zM534 -190q24 0 46 -9.5t38 -26t25.5 -38t9.5 -45.5q0 -25 -9.5 -46.5t-25.5 -37.5t-38 -25.5t-46 -9.5q-25 0 -46.5 9.5t-37.5 25.5t-25.5 37.5t-9.5 46.5q0 24 9.5 45.5t25.5 38
t37.5 26t46.5 9.5z" />
    <glyph glyph-name="ygrave" unicode="&#x1ef3;" horiz-adv-x="991" 
d="M-27 958h215l324 -608l301 608h207l-776 -1507h-209l377 713zM206 1756l256 -340l-90 -55l-336 305z" />
    <glyph glyph-name="yacute" unicode="&#xfd;" horiz-adv-x="991" 
d="M-27 958h215l324 -608l301 608h207l-776 -1507h-209l377 713zM831 1413l-335 -305l-90 55l256 340z" />
    <glyph glyph-name="uni1EF9" unicode="&#x1ef9;" horiz-adv-x="991" 
d="M-27 958h215l324 -608l301 608h207l-776 -1507h-209l377 713zM80 1256l6 11q21 30 43 58t48 49.5t57.5 34.5t72.5 13q53 0 97.5 -15.5t85.5 -37.5q40 -22 76.5 -38.5t70.5 -16.5q22 0 41.5 8.5t36 22.5t29.5 31.5t24 35.5l96 -80q-18 -36 -42 -67t-54 -53.5t-66.5 -35
t-78.5 -12.5q-44 0 -86 17t-84 37l-80 34.5t-80 16.5q-19 0 -37 -8.5t-33 -22t-27 -30.5t-20 -33z" />
    <glyph glyph-name="ydieresis" unicode="&#xff;" horiz-adv-x="991" 
d="M-27 958h215l324 -608l301 608h207l-776 -1507h-209l377 713zM301 1421q25 0 47.5 -9.5t39.5 -26.5t26.5 -39.5t9.5 -47.5q0 -26 -9.5 -48.5t-26.5 -39.5t-39.5 -26.5t-47.5 -9.5q-26 0 -49 9.5t-40 26.5t-26.5 39.5t-9.5 48.5q0 25 9.5 47.5t26.5 39.5t40 26.5t49 9.5z
M733 1421q25 0 47.5 -9.5t39.5 -26.5t26.5 -39.5t9.5 -47.5q0 -26 -9.5 -48.5t-26.5 -39.5t-39.5 -26.5t-47.5 -9.5q-26 0 -48.5 9.5t-39.5 26.5t-27 39.5t-10 48.5q0 25 10 47.5t27 39.5t39.5 26.5t48.5 9.5z" />
    <glyph glyph-name="uni1EF7" unicode="&#x1ef7;" horiz-adv-x="991" 
d="M-27 958h215l324 -608l301 608h207l-776 -1507h-209l377 713zM608 1315h-143q6 35 21 61t33 47.5t39 39t38 34.5t28 36.5t12 44.5q0 56 -40.5 85.5t-128.5 36.5v108q84 0 145 -16t100 -46t58 -72.5t19 -93.5q-1 -39 -13 -68.5t-30.5 -52t-41 -41l-42 -33.5t-34.5 -29
t-18 -31z" />
    <glyph glyph-name="uni1EF5" unicode="&#x1ef5;" horiz-adv-x="991" 
d="M-27 958h215l324 -608l301 608h207l-776 -1507h-209l377 713zM609 -190q24 0 46 -9.5t38 -26t25.5 -38t9.5 -45.5q0 -25 -9.5 -46.5t-25.5 -37.5t-38 -25.5t-46 -9.5q-25 0 -46.5 9.5t-37.5 25.5t-25.5 37.5t-9.5 46.5q0 24 9.5 45.5t25.5 38t37.5 26t46.5 9.5z" />
    <glyph glyph-name="eth" unicode="&#xf0;" horiz-adv-x="1106" 
d="M553 811q-68 0 -128 -26.5t-104.5 -72t-70 -106.5t-25.5 -129t25.5 -128.5t70 -106t104.5 -72.5t128 -27t128 27t104.5 72.5t70 106t25.5 128.5t-25.5 129t-70 106.5t-104.5 72t-128 26.5zM391 1477q-110 122 -227 215l117 104q65 -45 130.5 -102.5t133.5 -128.5l297 170
l86 -113l-289 -166q87 -102 164 -218t135.5 -238t92.5 -245t34 -239q0 -131 -39.5 -233t-108.5 -172t-162.5 -107t-201.5 -37t-201.5 39t-162.5 107.5t-108.5 162t-39.5 201.5t39.5 201.5t108.5 162t162.5 107.5t201.5 39q42 0 75 -7t59 -17.5t46 -22.5l37 -22
q-62 126 -133 238t-152 212l-301 -172l-90 111z" />
    <glyph glyph-name="thorn" unicode="&#xfe;" horiz-adv-x="1139" 
d="M297 799h4q57 86 141.5 137t192.5 51q103 0 186.5 -41.5t142 -111t90 -160t31.5 -189.5q0 -103 -30 -196.5t-88.5 -165t-143.5 -114t-196 -42.5q-102 0 -186 50.5t-140 132.5h-4v-699h-184v2327h184v-979zM590 131q75 0 133 28t97.5 75.5t60 110.5t20.5 134
q0 70 -21 132.5t-60.5 109.5t-97.5 74.5t-132 27.5q-72 0 -128 -28.5t-95 -76.5t-59.5 -110t-20.5 -129q0 -68 20 -130.5t58.5 -111t95 -77.5t129.5 -29z" />
    <glyph glyph-name="fi" unicode="&#xfb01;" horiz-adv-x="1049" 
d="M881 0h-185v958h185v-958zM788 1526q26 0 49 -10t40.5 -27.5t27.5 -41t10 -50.5q0 -26 -10 -49t-27.5 -40t-40.5 -26.5t-49 -9.5t-49 9.5t-40 26.5t-27 40t-10 49q0 27 10 50.5t27 41t40 27.5t49 10zM602 1591q-28 13 -61 26t-62 13q-49 0 -75.5 -27.5t-39 -67.5
t-14.5 -85t-2 -80v-412h254v-172h-254v-786h-184v786h-84v172h84v467q0 78 15 147t50.5 120t95 80.5t148.5 29.5q67 0 129 -24v-187z" />
    <glyph glyph-name="fl" unicode="&#xfb02;" horiz-adv-x="1018" 
d="M883 0h-185v1778h185v-1778zM602 1591q-28 13 -61 26t-62 13q-49 0 -75.5 -27.5t-39 -67.5t-14.5 -85t-2 -80v-412h254v-172h-254v-786h-184v786h-84v172h84v467q0 78 15 147t50.5 120t95 80.5t148.5 29.5q67 0 129 -24v-187z" />
    <glyph glyph-name="ampersand" unicode="&#x26;" horiz-adv-x="1417" 
d="M569 750l-88.5 -61.5t-91 -74t-71.5 -88t-29 -102.5q0 -56 24 -107t64 -91t91.5 -63.5t106.5 -23.5q54 0 102.5 18.5t93 48t84 66l75.5 72.5l-342 418zM653 1020l61.5 47t60 52.5t45.5 62t18 75.5q0 41 -14 72.5t-38 52.5t-57 32t-72 11q-35 0 -66 -11.5t-54.5 -33
t-37.5 -51.5t-14 -67q0 -29 8 -55t21 -49.5t30 -45.5l34 -43l51 -65zM1044 209q-44 -51 -96 -95.5t-110.5 -77t-123 -51t-132.5 -18.5q-97 0 -183 33.5t-150.5 94t-102 144t-37.5 183.5q0 73 21.5 131.5t58 107t85.5 89.5t105 81l96 70q-33 34 -63.5 73t-54.5 81.5t-38 88.5
t-14 95q0 80 27 142.5t75 106t113.5 66.5t141.5 23q70 0 134.5 -22t114 -63t78.5 -101t29 -136q0 -65 -26 -120t-66.5 -102t-90.5 -87l-98 -76l322 -389l180 209l123 -127l-188 -221l276 -342h-238z" />
    <glyph glyph-name="comma" unicode="," horiz-adv-x="592" 
d="M496 180l-273 -547l-112 48l225 563z" />
    <glyph glyph-name="semicolon" unicode=";" horiz-adv-x="592" 
d="M479 180l-272 -547l-113 48l225 563zM393 987q25 0 46.5 -9.5t37.5 -26t25.5 -38t9.5 -45.5t-9.5 -45.5t-25.5 -37.5t-37.5 -25.5t-46.5 -9.5q-24 0 -46 9.5t-38 25.5t-25.5 37.5t-9.5 45.5t9.5 45.5t25.5 38t38 26t46 9.5z" />
    <glyph glyph-name="colon" unicode=":" horiz-adv-x="592" 
d="M297 205q24 0 46 -9.5t38 -26t25.5 -38t9.5 -45.5q0 -25 -9.5 -46.5t-25.5 -37.5t-38 -25.5t-46 -9.5q-25 0 -46.5 9.5t-37.5 25.5t-25.5 37.5t-9.5 46.5q0 24 9.5 45.5t25.5 38t37.5 26t46.5 9.5zM297 987q24 0 46 -9.5t38 -26t25.5 -38t9.5 -45.5t-9.5 -45.5
t-25.5 -37.5t-38 -25.5t-46 -9.5q-25 0 -46.5 9.5t-37.5 25.5t-25.5 37.5t-9.5 45.5t9.5 45.5t25.5 38t37.5 26t46.5 9.5z" />
    <glyph glyph-name="period" unicode="." horiz-adv-x="592" 
d="M297 205q24 0 46 -9.5t38 -26t25.5 -38t9.5 -45.5q0 -25 -9.5 -46.5t-25.5 -37.5t-38 -25.5t-46 -9.5q-25 0 -46.5 9.5t-37.5 25.5t-25.5 37.5t-9.5 46.5q0 24 9.5 45.5t25.5 38t37.5 26t46.5 9.5z" />
    <glyph glyph-name="ellipsis" unicode="&#x2026;" horiz-adv-x="2048" 
d="M1024 205q25 0 46.5 -9.5t37.5 -26t25.5 -38t9.5 -45.5q0 -25 -9.5 -46.5t-25.5 -37.5t-37.5 -25.5t-46.5 -9.5t-46.5 9.5t-37.5 25.5t-25.5 37.5t-9.5 46.5q0 24 9.5 45.5t25.5 38t37.5 26t46.5 9.5zM1708 205q25 0 46.5 -9.5t37.5 -26t25.5 -38t9.5 -45.5
q0 -25 -9.5 -46.5t-25.5 -37.5t-37.5 -25.5t-46.5 -9.5t-46.5 9.5t-37.5 25.5t-25.5 37.5t-9.5 46.5q0 24 9.5 45.5t25.5 38t37.5 26t46.5 9.5zM340 205q25 0 46.5 -9.5t37.5 -26t25.5 -38t9.5 -45.5q0 -25 -9.5 -46.5t-25.5 -37.5t-37.5 -25.5t-46.5 -9.5t-46.5 9.5
t-37.5 25.5t-25.5 37.5t-9.5 46.5q0 24 9.5 45.5t25.5 38t37.5 26t46.5 9.5z" />
    <glyph glyph-name="exclam" unicode="!" horiz-adv-x="657" 
d="M330 205q24 0 46 -9.5t38 -26t25.5 -38t9.5 -45.5q0 -25 -9.5 -46.5t-25.5 -37.5t-38 -25.5t-46 -9.5q-25 0 -46.5 9.5t-37.5 25.5t-25.5 37.5t-9.5 46.5q0 24 9.5 45.5t25.5 38t37.5 26t46.5 9.5zM238 1544h184v-1188h-184v1188z" />
    <glyph glyph-name="exclamdown" unicode="&#xa1;" horiz-adv-x="657" 
d="M330 1040q24 0 46 -9.5t38 -26t25.5 -37.5t9.5 -45q0 -25 -9.5 -46.5t-25.5 -37.5t-38 -25.5t-46 -9.5q-25 0 -46.5 9.5t-37.5 25.5t-25.5 37.5t-9.5 46.5q0 24 9.5 45t25.5 37.5t37.5 26t46.5 9.5zM422 662v-1190h-184v1190h184z" />
    <glyph glyph-name="question" unicode="?" horiz-adv-x="928" 
d="M803 707q3 -67 -24 -127t-73.5 -105t-108 -71.5t-126.5 -26.5q-68 0 -128 25t-105 69.5t-71 104.5t-26 129q0 73 22 122t58.5 83t83 56t94.5 40l94 34.5t82 39.5t58 56.5t22 84.5q0 42 -14 75.5t-39.5 57.5t-60 36.5t-74.5 12.5q-36 0 -68 -14t-56 -38t-38 -56t-14 -68
q0 -17 3.5 -33t8.5 -33h-192l-5 68q-5 75 25 139t82 110.5t120 72.5t140 26q78 0 145 -27.5t117 -76.5t78.5 -115t28.5 -144q0 -71 -28.5 -139t-82.5 -114q-25 -23 -56 -40t-64 -30.5t-67.5 -24l-66.5 -20.5q-28 -9 -54.5 -20.5t-47.5 -29t-34 -42t-13 -58.5q0 -31 11 -57.5
t30 -46.5t45 -31.5t57 -11.5q33 0 60 12.5t46 34t29.5 50.5t9.5 61h187zM471 205q25 0 46.5 -9.5t37.5 -26t25.5 -38t9.5 -45.5q0 -25 -9.5 -46.5t-25.5 -37.5t-37.5 -25.5t-46.5 -9.5q-24 0 -46 9.5t-38 25.5t-25.5 37.5t-9.5 46.5q0 24 9.5 45.5t25.5 38t38 26t46 9.5z
" />
    <glyph glyph-name="questiondown" unicode="&#xbf;" horiz-adv-x="928" 
d="M125 322q-3 67 24 126.5t73.5 104.5t108 71.5t126.5 26.5q68 0 128 -25t104.5 -69.5t70.5 -104t26 -128.5q0 -73 -22 -122.5t-58.5 -83.5t-83 -55.5t-94.5 -39.5l-94 -35t-82 -40t-58 -56.5t-22 -84.5q0 -42 14 -75.5t39.5 -57.5t60 -36.5t75.5 -12.5q36 0 68 14t56 38
t38 56t14 68q0 17 -3.5 33t-8.5 33h192l4 -68q5 -75 -24.5 -139t-81.5 -110.5t-120 -72.5t-140 -26q-78 0 -145 27.5t-117 76.5t-78.5 115t-28.5 144q0 71 28.5 139t82.5 115q25 22 56 39t64 30.5t67.5 24l66.5 20.5q27 9 54 20.5t48 29t34 42t13 58.5q0 31 -11 57.5
t-30 46.5t-45 31.5t-57 11.5q-33 0 -60 -12.5t-46.5 -34t-30 -50t-9.5 -60.5h-186zM457 1040q24 0 45.5 -9.5t37.5 -26t25.5 -37.5t9.5 -45q0 -25 -9.5 -46.5t-25.5 -37.5t-37.5 -25.5t-45.5 -9.5q-25 0 -46.5 9.5t-37.5 25.5t-25.5 37.5t-9.5 46.5q0 24 9.5 45t25.5 37.5
t37.5 26t46.5 9.5z" />
    <glyph glyph-name="quoteleft" unicode="&#x2018;" horiz-adv-x="567" 
d="M123 1030l272 547l115 -47l-225 -563z" />
    <glyph glyph-name="quoteright" unicode="&#x2019;" horiz-adv-x="567" 
d="M444 1513l-272 -546l-115 47l226 563z" />
    <glyph glyph-name="quotedblleft" unicode="&#x201c;" horiz-adv-x="899" 
d="M463 1030l272 547l115 -47l-225 -563zM123 1030l272 547l115 -47l-225 -563z" />
    <glyph glyph-name="quotedblright" unicode="&#x201d;" horiz-adv-x="899" 
d="M436 1513l-272 -546l-115 47l225 563zM776 1513l-272 -546l-115 47l225 563z" />
    <glyph glyph-name="quotesinglbase" unicode="&#x201a;" horiz-adv-x="567" 
d="M496 180l-273 -547l-112 48l225 563z" />
    <glyph glyph-name="quotedblbase" unicode="&#x201e;" horiz-adv-x="899" 
d="M487 180l-272 -547l-113 48l226 563zM827 180l-272 -547l-113 48l226 563z" />
    <glyph glyph-name="guilsinglleft" unicode="&#x2039;" horiz-adv-x="688" 
d="M532 264l-114 -84l-373 475l373 492l114 -84l-305 -408z" />
    <glyph glyph-name="guilsinglright" unicode="&#x203a;" horiz-adv-x="688" 
d="M461 655l-305 408l114 84l373 -492l-373 -475l-114 84z" />
    <glyph glyph-name="guillemotleft" unicode="&#xab;" horiz-adv-x="1071" 
d="M942 264l-115 -84l-372 475l372 492l115 -84l-305 -408zM549 264l-115 -84l-373 475l373 492l115 -84l-305 -408z" />
    <glyph glyph-name="guillemotright" unicode="&#xbb;" horiz-adv-x="1071" 
d="M434 655l-305 408l115 84l372 -492l-372 -475l-115 84zM827 655l-305 408l115 84l373 -492l-373 -475l-115 84z" />
    <glyph glyph-name="slash" unicode="/" horiz-adv-x="1128" 
d="M1065 1712l-854 -1970l-145 65l852 1971z" />
    <glyph glyph-name="bar" unicode="|" horiz-adv-x="1167" 
d="M672 -438h-176v2048h176v-2048z" />
    <glyph glyph-name="endash" unicode="&#x2013;" horiz-adv-x="1024" 
d="M1024 733v-153h-1024v153h1024z" />
    <glyph glyph-name="emdash" unicode="&#x2014;" horiz-adv-x="2048" 
d="M1782 733v-153h-1516v153h1516z" />
    <glyph glyph-name="bullet" unicode="&#x2022;" 
d="M592 387q-79 0 -149 30t-122.5 82t-83 122t-30.5 151q-1 81 29 151.5t82 123t122.5 82.5t151.5 30t151.5 -30t123 -82.5t82.5 -123t30 -151.5t-31 -151t-83.5 -122t-123 -82t-149.5 -30z" />
    <glyph glyph-name="periodcentered" unicode="&#xb7;" horiz-adv-x="592" 
d="M297 643q24 0 46 -9.5t38 -26t25.5 -38t9.5 -45.5t-9.5 -45.5t-25.5 -37.5t-38 -25.5t-46 -9.5q-25 0 -46.5 9.5t-37.5 25.5t-25.5 37.5t-9.5 45.5t9.5 45.5t25.5 38t37.5 26t46.5 9.5z" />
    <glyph glyph-name="parenleft" unicode="(" horiz-adv-x="598" 
d="M481 1544q-48 -101 -81.5 -214.5t-54.5 -231t-30.5 -236.5t-9.5 -231t9.5 -231t30.5 -236.5t54.5 -231t81.5 -215.5l-151 -112q-57 111 -97.5 239t-66 261.5t-37.5 267.5t-12 258t12 258.5t37.5 268t66 261t97.5 238.5z" />
    <glyph glyph-name="parenright" unicode=")" horiz-adv-x="598" 
d="M268 1657q57 -111 97.5 -238.5t66 -261t37.5 -268t12 -258.5t-12 -258t-37.5 -267.5t-66 -261.5t-97.5 -239l-151 112q48 102 81.5 215.5t54.5 231t30.5 236.5t9.5 231t-9.5 231t-30.5 236.5t-54.5 231t-81.5 214.5z" />
    <glyph glyph-name="bracketleft" unicode="[" horiz-adv-x="637" 
d="M313 -223h201v-172h-389v2052h389v-172h-201v-1708z" />
    <glyph glyph-name="bracketright" unicode="]" horiz-adv-x="637" 
d="M324 1485h-201v172h389v-2052h-389v172h201v1708z" />
    <glyph glyph-name="braceleft" unicode="{" horiz-adv-x="684" 
d="M98 705q78 34 116 113.5t38 195.5v372q0 61 18.5 111.5t45.5 85.5t57 54.5t53 19.5h160v-172h-82q-24 0 -37 -10.5t-19 -28t-7 -40.5t-1 -48v-377q0 -89 -20.5 -152.5t-47 -105.5t-52 -64.5t-35.5 -29.5q10 -6 35.5 -28.5t52 -64.5t47 -105.5t20.5 -151.5v-377
q0 -26 1 -49t7 -40t19 -27.5t37 -10.5h82v-172h-160q-23 0 -53 19t-57 54.5t-45.5 85t-18.5 111.5v373q0 115 -38 195t-116 114v150z" />
    <glyph glyph-name="braceright" unicode="}" horiz-adv-x="684" 
d="M586 555q-78 -34 -116 -114t-38 -195v-373q0 -62 -18.5 -111.5t-45.5 -85t-57 -54.5t-53 -19h-160v172h82q24 0 37 10.5t19 27.5t7 40t1 49v377q0 88 20.5 151.5t47 105.5t52 64.5t35.5 28.5q-10 7 -35.5 29.5t-52 64.5t-47 105.5t-20.5 152.5v377q0 25 -1 48t-7 40.5
t-19 28t-37 10.5h-82v172h160q23 0 53 -19.5t57 -54.5t45.5 -85.5t18.5 -111.5v-372q0 -116 38 -195.5t116 -113.5v-150z" />
    <glyph glyph-name="asterisk" unicode="*" horiz-adv-x="885" 
d="M518 1544v-194l166 98l72 -121l-174 -102l174 -103l-72 -118l-166 102v-197h-141v199l-178 -100l-70 116l174 101l-172 102l64 117l182 -101v201h141z" />
    <glyph glyph-name="dagger" unicode="&#x2020;" 
d="M684 1778v-564h371v-176h-371v-1218h-184v1218h-371v176h371v564h184z" />
    <glyph glyph-name="daggerdbl" unicode="&#x2021;" 
d="M684 1778v-490h371v-176h-371v-250h371v-176h-371v-864h-184v864h-371v176h371v250h-371v176h371v490h184z" />
    <glyph glyph-name="section" unicode="&#xa7;" 
d="M797 508q27 17 49.5 41t39 52t25.5 59t9 63q0 37 -13.5 64t-35.5 48t-50 37t-57 31l-377 191q-28 -18 -50.5 -42t-38.5 -52t-25 -59.5t-9 -63.5q0 -39 15.5 -68t40.5 -51.5t56 -39.5t62 -32zM346 535q-55 27 -103 54.5t-84 63.5t-56.5 84.5t-20.5 118.5q0 56 14.5 103
t41 87t62.5 75t79 67q-44 49 -67.5 105t-23.5 122q0 78 33 144.5t87.5 115t125.5 76t146 27.5q78 0 149.5 -23t127 -67t90.5 -108t40 -146h-178q-2 44 -23 78t-53.5 57t-72.5 35t-80 12q-43 0 -81 -16t-66 -43.5t-44 -65t-16 -80.5q0 -41 15 -72t39 -56t55.5 -44t64.5 -35
l272 -137l98 -51.5t91 -63.5t67.5 -82.5t26.5 -107.5q0 -51 -13.5 -100t-37.5 -93.5t-57.5 -83.5t-73.5 -69q52 -50 80 -114t28 -136q0 -92 -36 -165t-96 -124t-139 -78.5t-165 -27.5q-99 0 -183.5 30t-147 87t-97.5 138.5t-35 184.5v31h182q-2 -62 17.5 -117.5t56 -96.5
t88.5 -65t117 -24q48 0 94 17t81.5 47.5t57 73t21.5 93.5q0 45 -19.5 79t-50 60t-67.5 46l-72 38z" />
    <glyph glyph-name="paragraph" unicode="&#xb6;" 
d="M1102 1372h-125v-1685h-172v1685h-127v-1685h-172v893q-87 0 -161 29.5t-129.5 85.5t-90 137.5t-41.5 185.5q-5 62 7.5 125t38.5 121.5t66 109.5t90 89t110 59.5t128 21.5h578v-172z" />
    <glyph glyph-name="Omega" unicode="&#x2126;" horiz-adv-x="1526" 
d="M418 150q-56 53 -108 123.5t-92 157.5t-63.5 189t-23.5 218q0 163 48.5 298.5t134.5 233t202.5 151.5t253.5 54q96 0 179.5 -27.5t152.5 -76.5t123 -116.5t91.5 -148.5t57 -172t19.5 -186q0 -120 -25 -226t-66 -194.5t-92.5 -159t-105.5 -118.5v-7h317v-143h-516v104
q60 42 116.5 109t100.5 156.5t70.5 201t26.5 244.5q0 72 -12.5 146t-38 142t-63 128t-87.5 104t-112.5 69.5t-137.5 25.5q-106 0 -191.5 -48t-146 -132t-93 -197.5t-32.5 -243.5q0 -124 26.5 -234t70 -201t99.5 -160t115 -110v-104h-514v143h316v7z" />
    <glyph glyph-name="pi" unicode="&#x3c0;" horiz-adv-x="1225" 
d="M997 1006v-682q0 -68 2.5 -119t7 -89t10 -66t11.5 -50h-166q-15 28 -25 102t-10 207v697h-378q-3 -71 -10 -158t-17 -180.5t-24 -189t-30 -184t-34.5 -164.5t-38.5 -130h-168q21 61 39.5 139t34.5 165.5t29.5 180.5t24 184.5t17 177.5t9.5 159q-49 0 -86 -2t-64.5 -5.5
t-48 -8.5t-37.5 -11l-25 117q20 13 48 23.5t66 18.5t87 12.5t111 4.5h850l-15 -149h-170z" />
    <glyph glyph-name="grave" unicode="`" horiz-adv-x="737" 
d="M215 1756l256 -340l-90 -55l-336 305z" />
    <glyph glyph-name="acute" unicode="&#xb4;" horiz-adv-x="737" 
d="M852 1663l-336 -305l-90 55l256 340z" />
    <glyph glyph-name="circumflex" unicode="&#x2c6;" horiz-adv-x="963" 
d="M479 1503l330 -297l-121 -94l-209 197l-207 -197l-118 94z" />
    <glyph glyph-name="caron" unicode="&#x2c7;" horiz-adv-x="967" 
d="M274 1503l207 -196l209 196l121 -94l-330 -297l-325 297z" />
    <glyph glyph-name="tilde" unicode="&#x2dc;" horiz-adv-x="1044" 
d="M-139 1256l6 11q21 30 43 58t48 49.5t57.5 34.5t72.5 13q53 0 97.5 -15.5t85.5 -37.5q40 -22 76.5 -38.5t70.5 -16.5q22 0 41.5 8.5t36 22.5t29.5 31.5t24 35.5l96 -80q-18 -36 -42 -67t-54 -53.5t-66.5 -35t-78.5 -12.5q-44 0 -86 17t-84 37l-80 34.5t-80 16.5
q-19 0 -37 -8.5t-33 -22t-27 -30.5t-20 -33z" />
    <glyph glyph-name="dieresis" unicode="&#xa8;" horiz-adv-x="963" 
d="M266 1421q25 0 47.5 -9.5t39.5 -26.5t26.5 -39.5t9.5 -47.5q0 -26 -9.5 -48.5t-26.5 -39.5t-39.5 -26.5t-47.5 -9.5q-26 0 -48.5 9.5t-39.5 26.5t-27 39.5t-10 48.5q0 25 10 47.5t27 39.5t39.5 26.5t48.5 9.5zM698 1421q25 0 47.5 -9.5t39.5 -26.5t26.5 -39.5t9.5 -47.5
q0 -26 -9.5 -48.5t-26.5 -39.5t-39.5 -26.5t-47.5 -9.5q-26 0 -48.5 9.5t-39.5 26.5t-27 39.5t-10 48.5q0 25 10 47.5t27 39.5t39.5 26.5t48.5 9.5z" />
    <glyph glyph-name="macron" unicode="&#xaf;" horiz-adv-x="1024" 
d="M883 1421v-139h-740v139h740z" />
    <glyph glyph-name="breve" unicode="&#x2d8;" horiz-adv-x="1004" 
d="M293 1421q31 -72 79 -112.5t130 -40.5t130.5 40.5t80.5 112.5h145q-12 -64 -44.5 -117t-80.5 -91t-107.5 -59t-123.5 -21t-123 21t-107 59t-81.5 91t-45.5 117h148z" />
    <glyph glyph-name="ring" unicode="&#x2da;" horiz-adv-x="737" 
d="M369 1503q39 0 73 -14.5t59 -40t39.5 -59.5t14.5 -72q0 -39 -14.5 -72.5t-39.5 -58t-59 -39t-73 -14.5t-72.5 14.5t-58.5 39t-39.5 58t-14.5 72.5q0 38 14.5 72t39.5 59.5t58.5 40t72.5 14.5zM369 1225q19 0 36 7t30 19.5t20.5 29.5t7.5 36t-7.5 36t-20.5 30t-30 20.5
t-36 7.5t-36 -7.5t-29.5 -20.5t-20 -30t-7.5 -36t7.5 -36t20 -29.5t29.5 -19.5t36 -7z" />
    <glyph glyph-name="hungarumlaut" unicode="&#x2dd;" horiz-adv-x="963" 
d="M885 1395l-336 -305l-90 55l256 340zM504 1413l-336 -305l-90 55l256 340z" />
    <glyph glyph-name="dotaccent" unicode="&#x2d9;" horiz-adv-x="737" 
d="M371 1421q25 0 47.5 -9.5t39 -26.5t26.5 -39.5t10 -47.5q0 -26 -10 -48.5t-26.5 -39.5t-39 -26.5t-47.5 -9.5q-26 0 -49 9.5t-40 26.5t-26.5 39.5t-9.5 48.5q0 25 9.5 47.5t26.5 39.5t40 26.5t49 9.5z" />
    <glyph glyph-name="cedilla" unicode="&#xb8;" horiz-adv-x="676" 
d="M285 -371l-109 56l178 280l146 -59z" />
    <glyph glyph-name="ogonek" unicode="&#x2db;" horiz-adv-x="696" 
d="M432 -33v-4q-21 -14 -43 -32.5t-40 -40.5t-30 -47.5t-12 -53.5q0 -26 9 -44.5t25 -30t37 -16.5t44 -5q28 0 53.5 5.5t48.5 20.5l-14 -118q-29 -19 -63 -27t-68 -8q-38 0 -75 10.5t-66 31.5t-47.5 52.5t-18.5 73.5q0 39 14.5 73.5t38 63.5t53 53.5t60.5 42.5h94z" />
    <glyph glyph-name="gravecomb" unicode="&#x300;" horiz-adv-x="0" 
d="M365 1601l256 -340l-90 -55l-336 305z" />
    <glyph glyph-name="acutecomb" unicode="&#x301;" horiz-adv-x="0" 
d="M375 1513l-336 -305l-90 55l256 340z" />
    <glyph glyph-name="tildecomb" unicode="&#x303;" horiz-adv-x="1024" 
d="M-360 1339l6 11q21 30 43 58t48 49.5t57.5 34.5t72.5 13q53 0 97.5 -15.5t85.5 -37.5q40 -22 76.5 -38.5t70.5 -16.5q22 0 41.5 8.5t36 22.5t29.5 31.5t24 35.5l96 -80q-18 -36 -42 -67t-54 -53.5t-66.5 -35t-78.5 -12.5q-44 0 -86 17t-84 37l-80 34.5t-80 16.5
q-19 0 -37 -8.5t-33 -22t-27 -30.5t-20 -33z" />
    <glyph glyph-name="hookabovecomb" unicode="&#x309;" horiz-adv-x="0" 
d="M96 1315h-143q6 35 21 61t33 47.5t39 39t38 34.5t28 36.5t12 44.5q0 56 -40.5 85.5t-128.5 36.5v108q84 0 145 -16t100 -46t58 -72.5t19 -93.5q-1 -39 -13 -68.5t-30.5 -52t-41 -41l-42 -33.5t-34.5 -29t-18 -31z" />
    <glyph glyph-name="dotbelowcomb" unicode="&#x323;" horiz-adv-x="0" 
d="M-27 -190q24 0 46 -9.5t38 -26t25.5 -38t9.5 -45.5q0 -25 -9.5 -46.5t-25.5 -37.5t-38 -25.5t-46 -9.5q-25 0 -46.5 9.5t-37.5 25.5t-25.5 37.5t-9.5 46.5q0 24 9.5 45.5t25.5 38t37.5 26t46.5 9.5z" />
    <glyph glyph-name="asciicircum" unicode="^" 
d="M477 1544h230l409 -913h-192l-332 741l-334 -741h-190z" />
    <glyph glyph-name="asciitilde" unicode="~" 
d="M1116 582q-23 -42 -53.5 -86.5t-69.5 -81t-86 -59.5t-102 -23q-29 0 -58.5 9t-59.5 24t-60 33.5l-58 37.5l-54.5 38t-49.5 34t-43.5 24t-36.5 9q-53 0 -96 -44t-92 -124l-129 92l58.5 84t69.5 81.5t83.5 62t101.5 24.5q37 0 71.5 -9t65.5 -24t59 -34l54 -38l48 -37.5
t44.5 -33.5t41.5 -24t38 -9q29 0 51.5 13t42.5 36.5t39.5 56l42.5 70.5z" />
    <glyph glyph-name="brokenbar" unicode="&#xa6;" horiz-adv-x="1167" 
d="M672 -182h-176v512h176v-512zM672 842h-176v512h176v-512z" />
    <glyph glyph-name="backslash" unicode="\" horiz-adv-x="1128" 
d="M236 1778l827 -1778h-172l-828 1778h173z" />
    <glyph glyph-name="copyright" unicode="&#xa9;" horiz-adv-x="1638" 
d="M819 -33q-112 0 -216 28.5t-193.5 80.5t-163 125.5t-125.5 163t-80.5 192.5t-28.5 215t28.5 215.5t80.5 193t125.5 162.5t163 125t193 80.5t216.5 28.5t216.5 -28.5t193 -80.5t163 -125t125.5 -162.5t80.5 -193t28.5 -215.5t-28.5 -215t-80.5 -192.5t-125.5 -163
t-163 -125.5t-193 -80.5t-216.5 -28.5zM819 1446q-138 0 -261 -51.5t-215 -142.5t-146 -214t-54 -266q0 -142 54 -265t146 -214t215 -143t261 -52q92 0 178 23.5t161 67t137 104.5t106.5 136t69 161.5t24.5 181.5t-24.5 182t-69 162t-106.5 136t-137 104t-161 66.5
t-178 23.5zM1104 938q-19 85 -86.5 129.5t-169.5 44.5q-83 0 -142 -29t-97 -75.5t-56 -105.5t-18 -120q0 -71 20.5 -132.5t61 -106.5t99.5 -71t136 -26q102 0 166 46.5t86 136.5h125q-9 -73 -43 -131.5t-85 -99t-115 -62t-134 -21.5q-102 0 -185 36.5t-141.5 99t-90.5 147
t-32 180.5q0 100 30.5 185t88.5 147t140.5 97.5t187.5 35.5q71 0 134 -21t113 -60.5t84 -96t48 -127.5h-125z" />
    <glyph glyph-name="registered" unicode="&#xae;" horiz-adv-x="1638" 
d="M819 -33q-112 0 -216 28.5t-193.5 80.5t-163 125.5t-125.5 163t-80.5 192.5t-28.5 215t28.5 215.5t80.5 193t125.5 162.5t163 125t193 80.5t216.5 28.5t216.5 -28.5t193 -80.5t163 -125t125.5 -162.5t80.5 -193t28.5 -215.5t-28.5 -215t-80.5 -192.5t-125.5 -163
t-163 -125.5t-193 -80.5t-216.5 -28.5zM819 1446q-138 0 -261 -51.5t-215 -142.5t-146 -214t-54 -266q0 -142 54 -265t146 -214t215 -143t261 -52q92 0 178 23.5t161 67t137 104.5t106.5 136t69 161.5t24.5 181.5t-24.5 182t-69 162t-106.5 136t-137 104t-161 66.5
t-178 23.5zM1188 313h-150l-231 418h-168v-418h-131v906h381q61 0 117.5 -11t99.5 -38t68.5 -73.5t25.5 -117.5q0 -67 -21 -113.5t-55 -76t-77.5 -43.5t-88.5 -15zM639 1087v-225h139q46 0 97.5 -1t94.5 6.5t71 29.5t28 68q0 43 -16.5 67.5t-45 36.5t-65.5 15t-78 3h-225z
" />
    <glyph glyph-name="trademark" unicode="&#x2122;" horiz-adv-x="1925" 
d="M1855 682h-131v731h-4l-295 -731h-79l-287 731h-4v-731h-131v862h215l247 -608l256 608h213v-862zM766 1413h-283v-731h-131v731h-282v131h696v-131z" />
    <glyph glyph-name="at" unicode="@" horiz-adv-x="1638" 
d="M1030 762q8 62 -4 110.5t-39.5 81.5t-70 50.5t-95.5 17.5q-62 0 -112 -28t-85 -72.5t-54 -100.5t-19 -112q0 -45 14 -87.5t40.5 -75t64.5 -52t86 -19.5q68 0 117 24t81.5 64t50.5 91.5t25 107.5zM1110 1163h145l-102 -526l-11 -57t-6 -57.5t10 -44t36 -17.5q35 0 74 33
t71.5 87.5t54 125.5t21.5 147q0 129 -42.5 232.5t-116.5 176t-175.5 111.5t-218.5 39q-86 0 -165 -23t-147 -64.5t-123 -100t-94.5 -130t-61 -153.5t-21.5 -170q0 -141 52 -258.5t140.5 -202.5t206 -132.5t248.5 -47.5q128 0 225 24.5t156 73.5l153 -123
q-54 -29 -109.5 -54.5t-120 -44t-142.5 -29.5t-179 -11q-110 0 -211.5 27.5t-190 78t-160.5 122.5t-123.5 161.5t-80 194.5t-28.5 221q0 115 27.5 219t78 193.5t122 162t158 123.5t187 79t209.5 28q136 0 257.5 -42.5t223.5 -135.5q52 -45 94.5 -97.5t72.5 -112t46.5 -125
t16.5 -136.5q0 -128 -32.5 -241t-94.5 -193q-75 -97 -158 -139.5t-158 -39.5q-43 2 -72 35.5t-38 91.5q-26 -26 -55.5 -49t-64 -40.5t-74 -27.5t-85.5 -10q-68 0 -130 29.5t-109.5 81t-76 120.5t-28.5 148q0 93 29.5 181t84 156t132 109.5t172.5 41.5q78 0 144 -33t128 -113
z" />
    <glyph glyph-name="currency" unicode="&#xa4;" 
d="M1112 995l-84 -90q40 -63 63 -133t23 -158q0 -87 -23 -157t-63 -133l84 -91l-123 -122l-94 90q-59 -45 -131.5 -72t-171.5 -27t-171.5 27t-131.5 72l-94 -90l-123 122l84 91q-41 63 -63.5 133t-22.5 157q0 88 22.5 158t63.5 133l-84 90l123 123l94 -90q59 45 131.5 71.5
t171.5 26.5t171.5 -26.5t131.5 -71.5l94 90zM592 266q75 0 140 27.5t113 75t76 111t29 134.5q1 76 -26 140t-75 110.5t-114 72.5t-143 26t-143 -26t-114.5 -72.5t-76 -110.5t-25.5 -140q2 -71 30.5 -134.5t76.5 -111t112.5 -75t139.5 -27.5z" />
    <glyph glyph-name="dollar" unicode="$" 
d="M682 160q47 10 86.5 36.5t68 64t44.5 83t16 94.5q0 52 -17.5 93.5t-47.5 75t-69 59.5t-81 49v-555zM580 1761h102v-184q116 -11 205 -72.5t145 -165.5l-162 -92q-32 62 -77 97t-111 55v-481q78 -34 150 -76.5t127.5 -99t88.5 -129.5t33 -167q0 -55 -14 -110t-40 -105.5
t-62.5 -95t-81 -79.5t-95.5 -58t-106 -31v-194h-102v194q-91 1 -171.5 35.5t-144 93t-106 136t-56.5 165.5l185 39q13 -65 35 -115t56.5 -86t84 -57.5t117.5 -30.5v615l-74 37q-61 31 -114.5 65t-93.5 78t-63.5 100.5t-23.5 131.5q0 76 29 146t79 125t117 90.5t144 41.5v184
zM580 1399q-40 -6 -75 -25t-60.5 -46.5t-40.5 -63.5t-15 -76q0 -45 15.5 -79.5t41.5 -61t60.5 -46t73.5 -34.5v432z" />
    <glyph glyph-name="cent" unicode="&#xa2;" 
d="M729 1286q65 -3 129 -17t121 -46v-236h-4q-43 57 -107.5 92t-138.5 37v-672q77 11 136.5 40.5t113.5 86.5v-239q-53 -25 -105.5 -39t-109.5 -19l-35 -2v-174h-98v183q-93 14 -171 57t-135 108t-88.5 148t-31.5 178t31 181t87 154.5t134.5 114t173.5 60.5v160h98v-156z
M631 1104q-55 -7 -100 -40t-77.5 -79.5t-50.5 -100.5t-18 -104q0 -55 17 -109t49 -99t77.5 -77.5t102.5 -43.5v653z" />
    <glyph glyph-name="sterling" unicode="&#xa3;" 
d="M23 49q27 48 57.5 89.5t67.5 72t83.5 49t106.5 21.5q13 43 21 86t7.5 84.5t-10.5 82.5t-34 82h-265v119h205l-42.5 86.5t-38.5 93.5t-27.5 96t-10.5 93q0 100 43 186t114 150t162 100.5t187 36.5q108 0 196.5 -35t152 -98t100.5 -151.5t43 -194.5l-185 -70v57
q0 63 -22.5 119.5t-62 99.5t-94.5 68t-120 25q-64 0 -123.5 -27.5t-105 -71.5t-73 -99.5t-27.5 -111.5q0 -53 15 -100t37 -90t47 -83t46 -79h303v-119h-254q15 -48 22 -91t6.5 -85t-7.5 -85t-21 -91l152 -53l45 -18t48.5 -19t49.5 -15.5t49 -6.5q31 0 56.5 14.5t46 36.5
t37 49l30.5 51l154 -94q-21 -51 -52 -95t-71 -76.5t-89.5 -51.5t-107.5 -19q-66 0 -134 21t-134 47q-65 26 -125 45.5t-112 19.5q-72 0 -114 -35.5t-67 -97.5z" />
    <glyph glyph-name="florin" unicode="&#x192;" 
d="M991 1034l-18 -139h-268l-113 -621q-15 -83 -31.5 -158t-40.5 -139.5t-59 -116.5t-87.5 -88.5t-124.5 -56.5t-171 -20h-49l30 176h39q89 0 142.5 32.5t84.5 87t46 125.5t28 148l109 631h-133l18 139h144l43 254q15 91 41.5 168.5t72 134.5t115.5 89t174 32q32 0 63 -3
t60 -11l-33 -172q-20 8 -41 11t-43 3q-62 0 -100 -23.5t-60.5 -62t-34.5 -88t-22 -100.5l-45 -232h264z" />
    <glyph glyph-name="yen" unicode="&#xa5;" 
d="M688 0h-192v532h-484v119h484v21l-111 192h-373v119h303l-323 561h221l379 -659l379 659h221l-324 -561h303v-119h-370l-113 -192v-21h483v-119h-483v-532z" />
    <glyph glyph-name="ordfeminine" unicode="&#xaa;" horiz-adv-x="684" 
d="M342 1063q49 0 87 17t63.5 45.5t39 66.5t13.5 80t-13.5 79.5t-39.5 66t-64 45t-86 16.5q-46 0 -82.5 -17.5t-62 -46.5t-39 -66t-13.5 -77q0 -41 13 -78.5t38 -66.5t61.5 -46.5t84.5 -17.5zM659 985h-120v88h-4q-36 -48 -89.5 -78t-121.5 -30q-72 0 -127.5 25t-93.5 68
t-58 99.5t-20 118.5q0 59 20.5 113.5t59 96t92.5 66.5t122 25q70 0 124.5 -31t93.5 -82h2v95h120v-574z" />
    <glyph glyph-name="ordmasculine" unicode="&#xba;" horiz-adv-x="664" 
d="M332 1577q70 0 131 -23.5t106 -65t71 -97.5t26 -121t-26 -120.5t-71 -96.5t-106 -64.5t-131 -23.5t-130.5 23.5t-105.5 64.5t-70.5 96.5t-25.5 120.5t25.5 121t70.5 97.5t105.5 65t130.5 23.5zM332 1470q-45 0 -83.5 -16t-67 -43t-44.5 -63.5t-16 -77.5q0 -40 16 -76
t44.5 -63.5t67 -43.5t83.5 -16t83.5 16t67.5 43.5t45.5 63.5t16.5 76q0 41 -16.5 77.5t-45.5 63.5t-67.5 43t-83.5 16z" />
    <glyph glyph-name="numbersign" unicode="#" 
d="M602 1470l-74 -397h254l72 397h162l-72 -397h189v-164h-220l-55 -315h207v-164h-240l-77 -430h-156l76 430h-252l-82 -430h-154l76 430h-205v164h236l55 315h-215v164h244l73 397h158zM446 594h252l56 315h-252z" />
    <glyph glyph-name="zero" unicode="0" 
d="M592 -33q-99 0 -177.5 38t-138.5 101t-102.5 145.5t-69 172t-39 179.5t-12.5 169t12 170t39 180t69 171.5t102 145.5t138.5 100.5t178.5 37.5t178.5 -37.5t138.5 -100.5t102 -145.5t68.5 -171.5t38.5 -180t12 -170t-12.5 -169t-39 -179.5t-68.5 -172t-102 -145.5
t-138.5 -101t-177.5 -38zM592 1413q-69 0 -122.5 -32.5t-92.5 -86t-66 -121.5t-43 -139t-23 -139t-7 -121t7 -121t23 -138.5t43 -138t66 -120.5t92.5 -85t122.5 -32t122 32t92.5 85t66 120.5t43 138t23.5 138.5t7 121t-7 121t-23.5 139t-43 139t-66 121.5t-92.5 86
t-122 32.5z" />
    <glyph glyph-name="one" unicode="1" 
d="M252 1368l106 176h347v-1544h-185v1368h-268z" />
    <glyph glyph-name="two" unicode="2" 
d="M1090 176v-176h-998l676 829q24 29 48 61.5t44 68t32.5 72.5t12.5 75q0 61 -25 114.5t-66.5 93.5t-96.5 63.5t-115 23.5q-59 0 -111.5 -22.5t-92.5 -60.5t-64.5 -90t-28.5 -110h-192q11 103 49.5 187.5t101 145t148 93.5t190.5 33q98 0 186.5 -34.5t155.5 -96.5
t106.5 -147t39.5 -185q0 -87 -30.5 -169t-84.5 -148l-508 -621h623z" />
    <glyph glyph-name="three" unicode="3" 
d="M563 897q62 0 117 12.5t96.5 41.5t65.5 76.5t24 117.5q0 58 -20 106.5t-56 83.5t-85 54.5t-107 19.5q-52 0 -96 -16t-77 -45t-54.5 -69.5t-28.5 -90.5h-190q13 95 50 168t94.5 122t135 74t172.5 25q92 0 173.5 -28.5t142 -82.5t96 -131t35.5 -174q0 -114 -49 -203
t-148 -145q57 -27 98.5 -67t68 -89.5t39.5 -107t13 -119.5q0 -108 -38 -194t-105 -146t-157 -91.5t-193 -31.5q-91 0 -174 29t-147.5 83t-105 130.5t-44.5 171.5h186q7 -57 33.5 -102.5t67 -77.5t91.5 -49t107 -17q64 0 118.5 23.5t93.5 65t61 96.5t22 118q0 74 -24 132
t-67.5 97t-103 57.5t-131.5 12.5v160z" />
    <glyph glyph-name="four" unicode="4" 
d="M1137 393v-168h-176v-225h-185v225h-762l947 1385v-1217h176zM776 1030h-4l-434 -637h438v637z" />
    <glyph glyph-name="five" unicode="5" 
d="M596 1368l-96 -317l108 6q112 0 203.5 -44.5t156.5 -119t100.5 -172.5t35.5 -205q0 -122 -44.5 -223t-122 -173.5t-182 -112.5t-223.5 -40q-71 0 -141 18.5t-132 53.5t-113 85t-85 114l144 135q18 -49 54 -91t83 -73t100.5 -48.5t104.5 -17.5q78 0 146.5 30t118.5 82
t79 120.5t29 146.5q0 75 -29.5 141.5t-80 116.5t-117.5 79.5t-142 29.5q-41 0 -81.5 -9.5t-78 -27t-71 -43t-58.5 -57.5h-37l238 792h618v-176h-485z" />
    <glyph glyph-name="six" unicode="6" 
d="M915 1483l-411 -557l4 -4q34 17 71.5 26.5t79.5 9.5q95 0 177 -40.5t142 -108t94 -154.5t34 -180q0 -106 -40 -198.5t-109.5 -161.5t-162.5 -108.5t-198 -39.5q-100 0 -192.5 39t-164 106t-114.5 157t-43 192q0 58 13.5 112t36.5 104.5t53.5 98t64.5 92.5l526 709z
M594 139q64 0 123.5 25t105 68.5t72.5 100.5t27 122q0 72 -28 132.5t-74.5 105t-105.5 69t-120 24.5q-63 0 -122 -26.5t-105 -71t-73.5 -102.5t-27.5 -121q0 -67 26.5 -126t71.5 -103.5t104.5 -70.5t125.5 -26z" />
    <glyph glyph-name="seven" unicode="7" 
d="M96 1368v176h1112l-962 -1577l-150 92l799 1309h-799z" />
    <glyph glyph-name="eight" unicode="8" 
d="M592 721q-59 0 -113 -22.5t-95 -61.5t-66 -92.5t-25 -114.5q0 -59 25.5 -111.5t67 -92.5t95.5 -63.5t111 -23.5t110.5 23.5t95.5 63.5t67.5 92.5t25.5 111.5q0 61 -25 114.5t-66 92.5t-95.5 61.5t-112.5 22.5zM109 430q0 62 15.5 120t46.5 106.5t76 86t105 58.5
q-96 54 -149 142.5t-53 203.5q0 94 34.5 173t94.5 136t140.5 89t172.5 32t172.5 -32t140.5 -89t94.5 -136t34.5 -173q0 -115 -53.5 -203.5t-149.5 -142.5q60 -21 105.5 -58.5t76.5 -86t46.5 -106.5t15.5 -120q0 -108 -38.5 -193.5t-104.5 -145.5t-154 -92t-186 -32t-186 32
t-154 92t-104.5 145.5t-38.5 193.5zM592 1413q-52 0 -99.5 -21t-83.5 -57t-57.5 -84.5t-21.5 -103.5q0 -46 23 -93t60 -84.5t84 -61t95 -23.5t95 23.5t84 61t60 84.5t23 93q0 55 -21.5 103.5t-57.5 84.5t-83.5 57t-99.5 21z" />
    <glyph glyph-name="nine" unicode="9" 
d="M297 63l412 555l-4 5q-35 -17 -72.5 -23t-77.5 -6q-96 0 -178 39.5t-142.5 105.5t-94.5 152t-34 178q0 106 40.5 198.5t109.5 161.5t162 108.5t198 39.5q100 0 193 -39t164 -106t114 -157t43 -192q0 -57 -13.5 -111t-36.5 -104.5t-53 -98.5t-64 -93l-527 -709zM618 758
q74 0 134.5 27t103.5 71.5t66.5 103t23.5 121.5q0 61 -25.5 119.5t-69 104t-100.5 73t-120 27.5q-69 0 -131 -26t-108.5 -70t-73.5 -103t-27 -125q0 -69 28.5 -128t75 -102.5t105 -68t118.5 -24.5z" />
    <glyph glyph-name="uni2007" unicode="&#x2007;" horiz-adv-x="1139" 
 />
    <glyph glyph-name="onesuperior" unicode="&#xb9;" horiz-adv-x="709" 
d="M133 1425l70 119h237v-926h-131v807h-176z" />
    <glyph glyph-name="twosuperior" unicode="&#xb2;" horiz-adv-x="709" 
d="M680 737v-119h-649l440 498q31 35 54.5 77.5t23.5 88.5q0 36 -17.5 66t-44.5 52t-60.5 34t-64.5 12q-38 0 -69.5 -11.5t-55.5 -32t-38.5 -49.5t-16.5 -63h-137q7 61 31.5 112t65.5 87t96.5 56t123.5 20q64 0 121.5 -21t101 -58t69.5 -88t26 -112q0 -51 -18 -102t-50 -88
l-317 -359h385z" />
    <glyph glyph-name="threesuperior" unicode="&#xb3;" horiz-adv-x="709" 
d="M334 1180q87 0 139.5 34t52.5 103q0 35 -15 61.5t-39 44t-54.5 26.5t-61.5 9q-30 0 -57.5 -6.5t-49 -21t-34 -36t-12.5 -51.5h-137q18 115 93.5 174.5t200.5 59.5q60 0 114 -17t94.5 -49.5t64.5 -79t24 -104.5q0 -68 -35 -121.5t-100 -87.5q75 -32 112.5 -93t37.5 -136
q0 -65 -26 -117t-70.5 -88t-104.5 -55t-127 -19q-59 0 -112.5 17.5t-95.5 50t-68 79t-29 103.5h131q11 -69 59 -100t125 -31q37 0 71 11.5t59.5 33t41 51.5t15.5 68q0 40 -16 71.5t-44 53.5t-66 33t-81 10v119z" />
    <glyph glyph-name="fraction" unicode="&#x2044;" horiz-adv-x="338" 
d="M672 1524l-901 -1557l-105 58l901 1552z" />
    <glyph glyph-name="onequarter" unicode="&#xbc;" horiz-adv-x="1776" 
d="M1694 254v-119h-101v-135h-131v135h-497l628 834v-715h101zM1462 590h-6l-252 -336h258v336zM82 1425l70 119h237v-926h-131v807h-176zM1397 1524l-901 -1557l-105 58l901 1552z" />
    <glyph glyph-name="onehalf" unicode="&#xbd;" horiz-adv-x="1776" 
d="M258 1425h-176l70 119h237v-926h-131v807zM1694 119v-119h-650l441 498q31 35 54.5 77t23.5 89q0 36 -17.5 66t-44.5 51.5t-60.5 33.5t-64.5 12q-38 0 -69.5 -11.5t-55.5 -31.5t-38.5 -49t-16.5 -63h-137q7 61 31.5 111.5t65.5 86.5t96.5 56t123.5 20q64 0 121.5 -21
t101 -58t69.5 -88t26 -111q0 -51 -18 -102.5t-50 -88.5l-317 -358h385zM1290 1524l-901 -1557l-104 58l901 1552z" />
    <glyph glyph-name="threequarters" unicode="&#xbe;" horiz-adv-x="1776" 
d="M1694 254v-119h-101v-135h-131v135h-497l628 834v-715h101zM1462 590h-6l-252 -336h258v336zM377 1180q87 0 139.5 34t52.5 103q0 35 -15 61.5t-39 44t-54.5 26.5t-61.5 9q-30 0 -57.5 -6.5t-49 -21t-34 -36t-12.5 -51.5h-137q18 115 93.5 174.5t200.5 59.5q60 0 114 -17
t94.5 -49.5t64.5 -79t24 -104.5q0 -68 -35 -121.5t-100 -87.5q75 -32 112.5 -93t37.5 -136q0 -65 -26 -117t-70.5 -88t-104.5 -55t-127 -19q-59 0 -112.5 17.5t-95.5 50t-68 79t-29 103.5h131q11 -69 59 -100t125 -31q37 0 71 11.5t59.5 33t41 51.5t15.5 68q0 40 -16 71.5
t-44 53.5t-66 33t-81 10v119zM1511 1524l-901 -1557l-104 58l901 1552z" />
    <glyph glyph-name="percent" unicode="%" horiz-adv-x="1450" 
d="M395 1454q-48 0 -91 -18t-75.5 -49t-51.5 -72.5t-19 -89.5q0 -47 19 -88.5t51.5 -72.5t75.5 -49t91 -18t91 18t75.5 49t52 72.5t19.5 88.5q0 48 -19.5 89.5t-52 72.5t-75.5 49t-91 18zM1223 1524l-901 -1557l-95 51l903 1559zM1057 547q-48 0 -91 -18t-75.5 -49.5
t-52 -73t-19.5 -89.5q0 -47 19.5 -88t52 -72t75.5 -49t91 -18t91 18t75.5 49t51.5 72t19 88q0 48 -19 89.5t-51.5 73t-75.5 49.5t-91 18zM395 1577q73 0 138.5 -27.5t115 -75t78.5 -112t29 -137.5t-29.5 -137t-79 -111.5t-115 -75t-137.5 -27.5t-137.5 27.5t-115 75
t-78.5 111.5t-29 137t29 137.5t78.5 112t114.5 75t138 27.5zM1057 670q73 0 138 -27.5t114.5 -75t78.5 -112t29 -138.5q0 -73 -29.5 -136.5t-79 -111t-114.5 -75t-137 -27.5t-137.5 27.5t-115 75t-79 111t-29.5 136.5q0 74 29 138.5t78.5 112t115 75t138.5 27.5z" />
    <glyph glyph-name="perthousand" unicode="&#x2030;" horiz-adv-x="2273" 
d="M406 1454q-48 0 -91 -18t-75.5 -49t-52 -72.5t-19.5 -89.5q0 -47 19.5 -88.5t52 -72.5t75.5 -49t91 -18q47 0 90 18t75.5 49t52 72.5t19.5 88.5q0 48 -19.5 89.5t-52 72.5t-75.5 49t-90 18zM1233 1524l-901 -1557l-94 51l903 1559zM1067 547q-48 0 -91 -18t-75.5 -49.5
t-52 -73t-19.5 -89.5q0 -47 19.5 -88t52 -72t75.5 -49t91 -18t91 18t75.5 49t52 72t19.5 88q0 48 -19.5 89.5t-52 73t-75.5 49.5t-91 18zM406 1577q73 0 138 -27.5t114.5 -75t78.5 -112t29 -137.5t-29.5 -137t-79 -111.5t-114.5 -75t-137 -27.5t-137.5 27.5t-115 75
t-79 111.5t-29.5 137t29 137.5t78.5 112t115 75t138.5 27.5zM1067 670q73 0 138.5 -27.5t114.5 -75t78 -112t29 -138.5q0 -73 -29 -136.5t-78.5 -111t-115 -75t-137.5 -27.5t-137.5 27.5t-115 75t-78.5 111t-29 136.5q0 74 29 138.5t78 112t114.5 75t138.5 27.5zM1870 670
q73 0 138 -27.5t114.5 -75t78.5 -112t29 -138.5q0 -73 -29.5 -136.5t-79 -111t-114.5 -75t-137 -27.5t-137.5 27.5t-115 75t-79 111t-29.5 136.5q0 74 29 138.5t78.5 112t115 75t138.5 27.5zM1870 547q-48 0 -91 -18t-75.5 -49.5t-52 -73t-19.5 -89.5q0 -47 19.5 -88t52 -72
t75.5 -49t91 -18t91 18t75.5 49t51.5 72t19 88q0 48 -19 89.5t-51.5 73t-75.5 49.5t-91 18z" />
    <glyph glyph-name="plus" unicode="+" 
d="M680 1049v-437h436v-176h-436v-436h-176v436h-436v176h436v437h176z" />
    <glyph glyph-name="plusminus" unicode="&#xb1;" 
d="M68 176h1048v-176h-1048v176zM680 1151v-354h436v-176h-436v-355h-176v355h-436v176h436v354h176z" />
    <glyph glyph-name="multiply" unicode="&#xd7;" 
d="M190 1049l402 -400l401 400l123 -125l-399 -400l399 -399l-123 -125l-401 399l-402 -399l-122 125l399 399l-399 400z" />
    <glyph glyph-name="divide" unicode="&#xf7;" 
d="M68 612h1048v-176h-1048v176zM592 254q26 0 49 -10t40.5 -27.5t27.5 -41t10 -50.5q0 -26 -10 -49t-27.5 -40t-40.5 -26.5t-49 -9.5t-49.5 9.5t-40.5 26.5t-27 40t-10 49q0 27 10 50.5t27 41t40.5 27.5t49.5 10zM592 1049q26 0 49 -10t40.5 -27.5t27.5 -41t10 -50.5
q0 -26 -10 -49t-27.5 -40t-40.5 -26.5t-49 -9.5t-49.5 9.5t-40.5 26.5t-27 40t-10 49q0 27 10 50.5t27 41t40.5 27.5t49.5 10z" />
    <glyph glyph-name="equal" unicode="=" 
d="M1116 788v-176h-1048v176h1048zM1116 436v-176h-1048v176h1048z" />
    <glyph glyph-name="less" unicode="&#x3c;" 
d="M1116 827l-786 -303l786 -303v-192l-1048 424v143l1048 424v-193z" />
    <glyph glyph-name="greater" unicode="&#x3e;" 
d="M68 1020l1048 -424v-143l-1048 -424v192l786 303l-786 303v193z" />
    <glyph glyph-name="logicalnot" unicode="&#xac;" 
d="M940 612h-872v176h1048v-552h-176v376z" />
    <glyph glyph-name="approxequal" unicode="&#x2248;" horiz-adv-x="1204" 
d="M1106 893q-21 -44 -49 -82t-62.5 -66.5t-76.5 -44.5t-91 -16q-32 0 -60.5 6t-58 17.5t-61 28.5l-69.5 38q-25 15 -49 28t-48.5 23.5t-49.5 16.5t-52 6q-38 0 -68 -13t-55 -35.5t-46.5 -52t-41.5 -61.5l-72 59q48 97 125.5 154t171.5 57q39 0 73.5 -9.5t64 -23t55 -29.5
t47.5 -28l52.5 -29t48 -24t47.5 -16t53 -6q66 0 112 42t90 119zM1106 520q-21 -43 -48.5 -80.5t-62 -65.5t-76.5 -44.5t-92 -16.5q-32 0 -60.5 6t-58 17.5t-61 28.5l-69.5 38q-51 29 -98 51.5t-101 22.5q-38 0 -68 -13.5t-55 -36t-46.5 -52t-41.5 -60.5l-72 60
q24 48 56 86.5t70 65.5t81 42t90 15q40 0 74 -9t63.5 -22.5t54.5 -28.5t48 -26l51 -29.5t48 -25t49.5 -17t54.5 -6.5q64 0 110 41.5t90 120.5z" />
    <glyph glyph-name="notequal" unicode="&#x2260;" horiz-adv-x="1204" 
d="M762 897h332v-111h-375l-144 -313h519v-111h-562l-114 -251l-88 39l98 212h-319v111h364l141 313h-505v111h548l113 250l88 -39z" />
    <glyph glyph-name="lessequal" unicode="&#x2264;" horiz-adv-x="1204" 
d="M121 711v116l966 490v-133l-849 -412v-4l849 -416v-133zM111 16v115h985v-115h-985z" />
    <glyph glyph-name="greaterequal" unicode="&#x2265;" horiz-adv-x="1204" 
d="M1090 825v-114l-965 -492v133l848 414v4l-850 414v133zM113 16v115h981v-115h-981z" />
    <glyph glyph-name="partialdiff" unicode="&#x2202;" horiz-adv-x="1174" 
d="M162 1614q26 21 60.5 43t79 40t99 29t119.5 11q105 0 203 -50.5t174 -154t122 -261.5t46 -374q0 -200 -36 -368.5t-107 -291t-176 -191.5t-242 -69q-105 0 -182.5 44t-128.5 116t-76 164t-25 188q0 132 37.5 237.5t100.5 179.5t145.5 113.5t173.5 39.5q72 0 130 -22.5
t101.5 -54.5t72 -66.5t40.5 -59.5h4q2 19 2 46.5v47.5q0 142 -31 260t-85 202.5t-126.5 131.5t-154.5 47q-49 0 -91 -9.5t-77 -24.5t-64 -34t-51 -38zM522 123q75 0 136 47t106 125t74 179.5t39 211.5q-12 35 -37.5 76t-64 75.5t-89 57.5t-111.5 23q-65 0 -122 -34
t-99.5 -92.5t-67 -136.5t-24.5 -166q0 -80 18 -147t51.5 -116t80.5 -76t106 -27h4z" />
    <glyph glyph-name="uni2206" unicode="&#x2206;" horiz-adv-x="1384" 
d="M68 117l528 1474h199l520 -1472v-119h-1247v117zM1133 141l-302 834q-14 45 -33.5 100.5l-39.5 111l-38 107.5t-28 90h-8q-8 -32 -23 -77.5l-33 -97l-36.5 -104t-32.5 -97.5l-319 -867h893z" />
    <glyph glyph-name="product" unicode="&#x220f;" horiz-adv-x="1497" 
d="M1208 1393v-1608h-168v1608h-585v-1608h-168v1608h-230v157h1383v-157h-232z" />
    <glyph glyph-name="summation" unicode="&#x2211;" 
d="M49 -215v117l572 764l-547 764v120h1028v-147h-793v-8l506 -703l-551 -735v-8h873v-164h-1088z" />
    <glyph glyph-name="radical" unicode="&#x221a;" horiz-adv-x="1231" 
d="M756 -330h-150l-340 1026l-160 -59l-32 104l299 117l268 -809q9 -43 20 -88.5t17 -77.5l4 -2l12 78.5t17 89.5l395 1796h125z" />
    <glyph glyph-name="infinity" unicode="&#x221e;" horiz-adv-x="1681" 
d="M1573 643q0 -80 -28 -144.5t-74.5 -109.5t-107 -69.5t-124.5 -24.5q-51 0 -97.5 15.5t-94 47.5t-97 80.5t-106.5 114.5q-43 -50 -88 -96.5t-94.5 -82.5t-105.5 -57.5t-122 -21.5t-125 26t-103.5 71.5t-70.5 108t-26 134.5q0 75 25.5 138.5t71.5 109.5t108.5 72t136.5 26
q60 0 114 -21t103 -56.5t94 -81.5t88 -97l84.5 91t90.5 82.5t104.5 59.5t125.5 23q71 0 129.5 -24.5t100.5 -69t65 -106t23 -136.5v-2zM453 401q51 0 96.5 22.5t86.5 56.5t77.5 74.5l70.5 76.5l-73 89t-79 79.5t-90 57.5t-106 22q-51 0 -91 -20t-67.5 -54t-42 -78.5
t-14.5 -93.5q1 -48 17.5 -90t46.5 -73.5t71.5 -50t92.5 -18.5h4zM1241 879q-54 0 -102.5 -26t-90.5 -63.5t-77.5 -78.5t-63.5 -70l96.5 -105t83 -75t78 -45t82.5 -15q51 0 90.5 21t66.5 54.5t41.5 75t14.5 83.5q0 57 -16.5 102t-45.5 76.5t-68.5 48.5t-86.5 17h-2z" />
    <glyph glyph-name="integral" unicode="&#x222b;" horiz-adv-x="780" 
d="M715 1747q-14 9 -35 15.5t-43 6.5q-28 0 -57.5 -12.5t-51.5 -40.5q-40 -49 -55.5 -143.5t-15.5 -251.5q0 -131 4.5 -270l9.5 -281t9.5 -284.5t4.5 -278.5q0 -89 -7 -159.5t-19.5 -125t-29.5 -95t-36 -69.5q-18 -30 -42 -52t-52.5 -36t-60.5 -21t-64 -7q-43 0 -82 11
t-59 23l28 125q14 -6 40 -15t57 -9q28 0 54.5 12.5t45.5 38.5q15 21 28 51t22.5 75t14.5 107t5 146q0 138 -4.5 282t-10 288t-10 285.5t-4.5 274.5q0 91 6 163.5t20 129.5t36.5 100.5t54.5 77.5q42 47 96 67.5t111 20.5q35 0 68 -8.5t50 -19.5z" />
    <glyph glyph-name="underscore" unicode="_" horiz-adv-x="1024" 
d="M1024 -256h-1024v102h1024v-102z" />
    <glyph glyph-name="degree" unicode="&#xb0;" horiz-adv-x="819" 
d="M717 1270q0 -64 -24.5 -120t-66 -97.5t-97.5 -65.5t-119 -24q-64 0 -120 24t-98 65.5t-66 97.5t-24 120q-1 63 23 119t66 97.5t98.5 66t120.5 24.5q63 0 119 -24.5t97.5 -66t66 -97.5t24.5 -119zM408 1475q-43 0 -80.5 -16t-65 -44t-43 -65t-14.5 -80q0 -44 15.5 -81.5
t43 -65t65 -43t81.5 -15.5q43 0 80 15.5t64.5 43t43.5 65t16 81.5q0 43 -16 80t-43.5 65t-65.5 44t-81 16z" />
    <glyph glyph-name="quotesingle" unicode="'" horiz-adv-x="567" 
d="M385 1544l-37 -672h-127l-37 672h201z" />
    <glyph glyph-name="quotedbl" unicode="&#x22;" horiz-adv-x="899" 
d="M385 1544l-37 -672h-127l-37 672h201zM715 1544l-37 -672h-127l-37 672h201z" />
    <glyph glyph-name="uni00B5" horiz-adv-x="1139" 
d="M836 0v117q-111 -129 -291 -129q-82 0 -147 23.5t-113 68.5v-551h-105v1458h105v-612q0 -144 69.5 -219.5t202.5 -75.5t206 77t73 218v612h104v-987h-104z" />
    <glyph glyph-name="lozenge" unicode="&#x25ca;" horiz-adv-x="1233" 
d="M682 -98h-139l-426 872l432 875h139l426 -875zM659 1380q-12 29 -23 62.5t-18 58.5h-6l-17.5 -58.5t-23.5 -62.5l-299 -602l301 -614q14 -34 24 -65.5t15 -51.5h9q2 11 6.5 26l9.5 31.5l10 31.5t10 26l301 608z" />
    <glyph glyph-name="_32" unicode=" " horiz-adv-x="522" 
 />
    <glyph glyph-name="_127" horiz-adv-x="1024" 
 />
    <glyph glyph-name="uniF8FF" unicode="&#xf8ff;" horiz-adv-x="0" 
 />
    <glyph glyph-name="itilde" unicode="&#x129;" horiz-adv-x="598" 
d="M352 0h-184v958h184v-958zM-130 1256l6 11q21 30 43 58t48 49.5t57.5 34.5t72.5 13q53 0 97.5 -15.5t85.5 -37.5q40 -22 76.5 -38.5t70.5 -16.5q22 0 41.5 8.5t36 22.5t29.5 31.5t24 35.5l96 -80q-18 -36 -42 -67t-54 -53.5t-66.5 -35t-78.5 -12.5q-44 0 -86 17t-84 37
l-80 34.5t-80 16.5q-19 0 -37 -8.5t-33 -22t-27 -30.5t-20 -33z" />
    <glyph glyph-name="_45" horiz-adv-x="872" 
d="M168 492v96h537v-96h-537z" />
    <glyph glyph-name="udieresis" unicode="&#xfc;" horiz-adv-x="1049" 
d="M303 958v-530q0 -58 9 -110.5t33.5 -92t67.5 -63t111 -23.5q69 0 112 23.5t67 63t33 92t9 110.5v530h185v-550q0 -99 -23.5 -180t-73 -139t-126.5 -90t-183 -32t-182.5 32t-126 90t-73 139t-23.5 180v550h184zM309 1421q25 0 47.5 -9.5t39.5 -26.5t26.5 -39.5t9.5 -47.5
q0 -26 -9.5 -48.5t-26.5 -39.5t-39.5 -26.5t-47.5 -9.5q-26 0 -48.5 9.5t-39.5 26.5t-27 39.5t-10 48.5q0 25 10 47.5t27 39.5t39.5 26.5t48.5 9.5zM741 1421q25 0 47.5 -9.5t39.5 -26.5t26.5 -39.5t9.5 -47.5q0 -26 -9.5 -48.5t-26.5 -39.5t-39.5 -26.5t-47.5 -9.5
q-26 0 -48.5 9.5t-39.5 26.5t-27 39.5t-10 48.5q0 25 10 47.5t27 39.5t39.5 26.5t48.5 9.5z" />
    <glyph glyph-name="uni1EBE" unicode="&#x1ebe;" horiz-adv-x="1067" 
d="M147 1544h830v-176h-637v-432h618v-176h-618v-584h637v-176h-830v1544zM557 2038l330 -297l-121 -94l-209 196l-207 -196l-119 94zM1356 2156l-336 -305l-90 55l256 340z" />
    <glyph glyph-name="Ecircumflex" unicode="&#xca;" horiz-adv-x="1067" 
d="M147 1544h830v-176h-637v-432h618v-176h-618v-584h637v-176h-830v1544zM557 2038l330 -297l-121 -94l-209 196l-207 -196l-119 94z" />
    <glyph glyph-name="uni02BC" unicode="&#x2bc;" horiz-adv-x="0" 
d="M36 1175h-143q6 35 21 61t33 47.5t39 39t38 34.5t28 36.5t12 44.5q0 56 -40.5 85.5t-128.5 36.5v108q84 0 145 -16t100 -46t58 -72.5t19 -93.5q-1 -39 -13 -68.5t-30.5 -52t-41 -41l-42 -33.5t-34.5 -29t-18 -31z" />
    <glyph glyph-name="hyphen" unicode="-" horiz-adv-x="680" 
d="M565 733v-153h-448v153h448z" />
    <glyph glyph-name="Lslash" unicode="&#x141;" horiz-adv-x="788" 
d="M340 954l242 170v-184l-242 -162v-602h469v-176h-662v659l-165 -118v186l165 111v706h193v-590z" />
    <glyph glyph-name="lslash" unicode="&#x142;" horiz-adv-x="522" 
d="M168 844l-166 -113v166l166 113v768h184v-643l168 114v-168l-168 -112v-969h-184v844z" />
    <glyph glyph-name="mu" unicode="&#xb5;" horiz-adv-x="1049" 
d="M303 958v-530q0 -58 9 -110.5t33.5 -92t67.5 -63t111 -23.5q69 0 112 23.5t67 63t33 92t9 110.5v530h185v-550q0 -99 -23.5 -180t-73 -139t-126.5 -90t-183 -32q-31 0 -62 7.5t-59.5 20.5t-54 29t-45.5 33v-606h-184v1507h184z" />
    <glyph glyph-name="minus" unicode="&#x2212;" 
d="M68 612h1048v-176h-1048v176z" />
    <glyph glyph-name="Scaron" unicode="&#x160;" horiz-adv-x="1100" 
d="M834 1251q-44 73 -102.5 109.5t-145.5 36.5q-46 0 -92 -15t-83 -43.5t-60 -69t-23 -91.5q0 -45 20 -80.5t51 -62t69.5 -46t74.5 -33.5l110 -43q82 -32 152 -72.5t121.5 -95t80.5 -127t29 -169.5q0 -105 -38 -193.5t-105 -152.5t-157 -100t-193 -36q-94 0 -175.5 33
t-144.5 90.5t-104 136.5t-53 172l194 41q-1 -64 22.5 -117.5t64 -92.5t95.5 -61t117 -22t114.5 24.5t90.5 66t59 96t21 115.5q0 62 -23 107.5t-60.5 79.5t-85 59t-97.5 46l-107 45q-66 28 -127 63t-107.5 81t-74 106.5t-27.5 141.5q0 93 38 167t101.5 125.5t145.5 79
t170 27.5q130 0 232 -60.5t165 -173.5zM362 2038l207 -197l209 197l121 -94l-330 -297l-325 297z" />
    <glyph glyph-name="Zcaron" unicode="&#x17d;" horiz-adv-x="1130" 
d="M1114 176v-176h-1096l783 1368h-672v176h985l-782 -1368h782zM387 2038l207 -197l209 197l121 -94l-330 -297l-326 297z" />
    <glyph glyph-name="scaron" unicode="&#x161;" horiz-adv-x="786" 
d="M512 739q-17 35 -50 59.5t-73 24.5q-19 0 -37 -7t-32 -20t-22.5 -30t-8.5 -37q0 -32 19 -55.5t50 -43t71.5 -37l82.5 -36.5t82 -42.5t71 -56t49.5 -74.5t18.5 -99q0 -69 -26.5 -127t-71.5 -100.5t-105 -66.5t-127 -24q-52 0 -103 14.5t-95.5 42.5t-79 67.5t-53.5 90.5
l157 72q15 -27 31.5 -49.5t37 -39t46.5 -25.5t59 -9q29 0 55.5 9.5t46.5 27t32 42.5t12 56q0 38 -18 60.5t-50 44.5l-180 96q-40 21 -73.5 43t-58 50t-38.5 64t-14 85q0 58 22.5 109t60.5 88.5t89.5 59t109.5 21.5q88 0 156 -44.5t107 -123.5zM184 1503l207 -196l209 196
l121 -94l-330 -297l-325 297z" />
    <glyph glyph-name="zcaron" unicode="&#x17e;" horiz-adv-x="1014" 
d="M985 172v-172h-981l649 786h-538v172h897l-650 -786h623zM330 1503l207 -196l208 196l121 -94l-329 -297l-326 297z" />
    <glyph glyph-name="f_i" horiz-adv-x="1049" 
d="M881 0h-185v958h185v-958zM788 1526q26 0 49 -10t40.5 -27.5t27.5 -41t10 -50.5q0 -26 -10 -49t-27.5 -40t-40.5 -26.5t-49 -9.5t-49 9.5t-40 26.5t-27 40t-10 49q0 27 10 50.5t27 41t40 27.5t49 10zM602 1591q-28 13 -61 26t-62 13q-49 0 -75.5 -27.5t-39 -67.5
t-14.5 -85t-2 -80v-412h254v-172h-254v-786h-184v786h-84v172h84v467q0 78 15 147t50.5 120t95 80.5t148.5 29.5q67 0 129 -24v-187z" />
    <glyph glyph-name="uni03BC" unicode="&#x3bc;" horiz-adv-x="1049" 
d="M303 958v-530q0 -58 9 -110.5t33.5 -92t67.5 -63t111 -23.5q69 0 112 23.5t67 63t33 92t9 110.5v530h185v-550q0 -99 -23.5 -180t-73 -139t-126.5 -90t-183 -32q-31 0 -62 7.5t-59.5 20.5t-54 29t-45.5 33v-606h-184v1507h184z" />
    <glyph glyph-name="Euro" unicode="&#x20ac;" 
d="M1090 1303q-23 21 -54 40.5t-70 34.5t-87 24t-105 9q-88 0 -155 -31t-113.5 -86t-74 -131t-36.5 -166h604l-47 -141h-575q0 -17 -1 -39t-1 -41q0 -23 1 -45.5t1 -38.5h518l-47 -141h-453q23 -208 119.5 -314t261.5 -106q112 0 187.5 31t126.5 78v-183q-20 -16 -51 -32
t-73.5 -28.5t-96 -20t-117.5 -7.5q-111 0 -202 34.5t-159.5 106t-113 181.5t-62.5 260h-160l47 141h99q-2 16 -3 39.5t-1 44.5q0 20 1 41.5t1 38.5h-144l47 141h109q17 127 56.5 233.5t105 183t159.5 119t220 42.5q60 0 112.5 -8.5t95.5 -22t76 -30t54 -33.5v-178z" />
    <glyph glyph-name="afii61289" unicode="&#x2113;" horiz-adv-x="1042" 
d="M993 252q-71 -139 -172.5 -207t-228.5 -68q-94 0 -160 33.5t-108.5 89.5t-63.5 130.5t-24 156.5v29l-60.5 -49.5l-62.5 -51.5l-52 99l90.5 76.5t81.5 76.5v604q0 151 29 253t76 164t107 89t122 27q69 0 119 -28t83 -76.5t49 -114.5t16 -142q0 -104 -31.5 -205.5t-89 -202
t-138 -200.5t-178.5 -200v-80q1 -92 19.5 -156.5t50 -105t73 -59.5t87.5 -19q50 0 93.5 19t79.5 49.5t64.5 68t48.5 74.5zM397 707q68 77 126.5 156t102 158.5t68.5 160t25 161.5q0 52 -8 94.5t-26 72.5t-46.5 46.5t-69.5 16.5q-30 0 -60.5 -19.5t-55.5 -65.5t-40.5 -121.5
t-15.5 -186.5v-473z" />
    <glyph glyph-name="estimated" unicode="&#x212e;" horiz-adv-x="1942" 
d="M416 750q-13 0 -13 -11v-438q0 -14 5.5 -26t13.5 -23q106 -110 246.5 -174t302.5 -64q87 0 168 19t154 54t137 84t116 110h129q-60 -71 -137.5 -128.5t-168 -98.5t-192 -63t-208.5 -22q-123 0 -237.5 28.5t-213.5 81t-180.5 125.5t-139.5 162.5t-90 192t-32 213.5t32 214
t90 192.5t139.5 163t180.5 126t213 81t238 28.5t238.5 -28.5t213.5 -81t181 -126t140 -163t90 -192.5t32 -214v-22h-1448zM1534 1247q0 14 -5 28t-16 25q-53 52 -114.5 94t-130 72t-143.5 46t-154 16q-80 0 -155.5 -16.5t-144.5 -47.5t-131 -74.5t-114 -97.5
q-11 -11 -17 -24.5t-6 -30.5v-430q0 -3 3.5 -8.5t9.5 -5.5h1110q5 0 6.5 5.5t1.5 8.5v440z" />
    <glyph glyph-name="uni2219" unicode="&#x2219;" horiz-adv-x="592" 
d="M297 643q24 0 46 -9.5t38 -26t25.5 -38t9.5 -45.5t-9.5 -45.5t-25.5 -37.5t-38 -25.5t-46 -9.5q-25 0 -46.5 9.5t-37.5 25.5t-25.5 37.5t-9.5 45.5t9.5 45.5t25.5 38t37.5 26t46.5 9.5z" />
    <glyph glyph-name="uni00A0" unicode="&#xa0;" horiz-adv-x="592" 
 />
    <glyph glyph-name="uni00AD" unicode="&#xad;" horiz-adv-x="680" 
d="M565 733v-153h-448v153h448z" />
    <glyph glyph-name="uni02C9" unicode="&#x2c9;" horiz-adv-x="1024" 
d="M883 1421v-139h-740v139h740z" />
    <glyph glyph-name="uni03A9" unicode="&#x3a9;" horiz-adv-x="1526" 
d="M418 150q-56 53 -108 123.5t-92 157.5t-63.5 189t-23.5 218q0 163 48.5 298.5t134.5 233t202.5 151.5t253.5 54q96 0 179.5 -27.5t152.5 -76.5t123 -116.5t91.5 -148.5t57 -172t19.5 -186q0 -120 -25 -226t-66 -194.5t-92.5 -159t-105.5 -118.5v-7h317v-143h-516v104
q60 42 116.5 109t100.5 156.5t70.5 201t26.5 244.5q0 72 -12.5 146t-38 142t-63 128t-87.5 104t-112.5 69.5t-137.5 25.5q-106 0 -191.5 -48t-146 -132t-93 -197.5t-32.5 -243.5q0 -124 26.5 -234t70 -201t99.5 -160t115 -110v-104h-514v143h316v7z" />
    <glyph glyph-name="uni2215" unicode="&#x2215;" horiz-adv-x="338" 
d="M672 1524l-901 -1557l-105 58l901 1552z" />
    <glyph glyph-name="f_l" horiz-adv-x="1018" 
d="M883 0h-185v1778h185v-1778zM602 1591q-28 13 -61 26t-62 13q-49 0 -75.5 -27.5t-39 -67.5t-14.5 -85t-2 -80v-412h254v-172h-254v-786h-184v786h-84v172h84v467q0 78 15 147t50.5 120t95 80.5t148.5 29.5q67 0 129 -24v-187z" />
    <glyph glyph-name="a.superior" horiz-adv-x="684" 
d="M342 1063q49 0 87 17t63.5 45.5t39 66.5t13.5 80t-13.5 79.5t-39.5 66t-64 45t-86 16.5q-46 0 -82.5 -17.5t-62 -46.5t-39 -66t-13.5 -77q0 -41 13 -78.5t38 -66.5t61.5 -46.5t84.5 -17.5zM659 985h-120v88h-4q-36 -48 -89.5 -78t-121.5 -30q-72 0 -127.5 25t-93.5 68
t-58 99.5t-20 118.5q0 59 20.5 113.5t59 96t92.5 66.5t122 25q70 0 124.5 -31t93.5 -82h2v95h120v-574z" />
    <glyph glyph-name="o.superior" horiz-adv-x="664" 
d="M332 1577q70 0 131 -23.5t106 -65t71 -97.5t26 -121t-26 -120.5t-71 -96.5t-106 -64.5t-131 -23.5t-130.5 23.5t-105.5 64.5t-70.5 96.5t-25.5 120.5t25.5 121t70.5 97.5t105.5 65t130.5 23.5zM332 1470q-45 0 -83.5 -16t-67 -43t-44.5 -63.5t-16 -77.5q0 -40 16 -76
t44.5 -63.5t67 -43.5t83.5 -16t83.5 16t67.5 43.5t45.5 63.5t16.5 76q0 41 -16.5 77.5t-45.5 63.5t-67.5 43t-83.5 16z" />
    <glyph glyph-name="one.superior" horiz-adv-x="709" 
d="M133 1425l70 119h237v-926h-131v807h-176z" />
    <glyph glyph-name="two.superior" horiz-adv-x="709" 
d="M680 737v-119h-649l440 498q31 35 54.5 77.5t23.5 88.5q0 36 -17.5 66t-44.5 52t-60.5 34t-64.5 12q-38 0 -69.5 -11.5t-55.5 -32t-38.5 -49.5t-16.5 -63h-137q7 61 31.5 112t65.5 87t96.5 56t123.5 20q64 0 121.5 -21t101 -58t69.5 -88t26 -112q0 -51 -18 -102t-50 -88
l-317 -359h385z" />
    <glyph glyph-name="three.superior" horiz-adv-x="709" 
d="M334 1180q87 0 139.5 34t52.5 103q0 35 -15 61.5t-39 44t-54.5 26.5t-61.5 9q-30 0 -57.5 -6.5t-49 -21t-34 -36t-12.5 -51.5h-137q18 115 93.5 174.5t200.5 59.5q60 0 114 -17t94.5 -49.5t64.5 -79t24 -104.5q0 -68 -35 -121.5t-100 -87.5q75 -32 112.5 -93t37.5 -136
q0 -65 -26 -117t-70.5 -88t-104.5 -55t-127 -19q-59 0 -112.5 17.5t-95.5 50t-68 79t-29 103.5h131q11 -69 59 -100t125 -31q37 0 71 11.5t59.5 33t41 51.5t15.5 68q0 40 -16 71.5t-44 53.5t-66 33t-81 10v119z" />
    <glyph glyph-name="uni2010" unicode="&#x2010;" horiz-adv-x="680" 
d="M565 733v-153h-448v153h448z" />
    </font>
</defs>
</svg>
